%TF.GenerationSoftware,KiCad,Pcbnew,7.0.5-0*%
%TF.CreationDate,2024-01-28T18:46:13+01:00*%
%TF.ProjectId,controller,636f6e74-726f-46c6-9c65-722e6b696361,1.0.0*%
%TF.SameCoordinates,Original*%
%TF.FileFunction,Legend,Top*%
%TF.FilePolarity,Positive*%
%FSLAX46Y46*%
G04 Gerber Fmt 4.6, Leading zero omitted, Abs format (unit mm)*
G04 Created by KiCad (PCBNEW 7.0.5-0) date 2024-01-28 18:46:13*
%MOMM*%
%LPD*%
G01*
G04 APERTURE LIST*
%ADD10C,0.150000*%
%ADD11C,0.100000*%
%ADD12C,0.120000*%
G04 APERTURE END LIST*
D10*
X117348000Y-80772000D02*
X118110000Y-80772000D01*
X118110000Y-87884000D01*
X117348000Y-87884000D01*
X117348000Y-80772000D01*
G36*
X117348000Y-80772000D02*
G01*
X118110000Y-80772000D01*
X118110000Y-87884000D01*
X117348000Y-87884000D01*
X117348000Y-80772000D01*
G37*
X113030000Y-79756000D02*
X118110000Y-79756000D01*
X118110000Y-88900000D01*
X113030000Y-88900000D01*
X113030000Y-79756000D01*
X161112200Y-96230839D02*
X161159819Y-96087982D01*
X161159819Y-96087982D02*
X161159819Y-95849887D01*
X161159819Y-95849887D02*
X161112200Y-95754649D01*
X161112200Y-95754649D02*
X161064580Y-95707030D01*
X161064580Y-95707030D02*
X160969342Y-95659411D01*
X160969342Y-95659411D02*
X160874104Y-95659411D01*
X160874104Y-95659411D02*
X160778866Y-95707030D01*
X160778866Y-95707030D02*
X160731247Y-95754649D01*
X160731247Y-95754649D02*
X160683628Y-95849887D01*
X160683628Y-95849887D02*
X160636009Y-96040363D01*
X160636009Y-96040363D02*
X160588390Y-96135601D01*
X160588390Y-96135601D02*
X160540771Y-96183220D01*
X160540771Y-96183220D02*
X160445533Y-96230839D01*
X160445533Y-96230839D02*
X160350295Y-96230839D01*
X160350295Y-96230839D02*
X160255057Y-96183220D01*
X160255057Y-96183220D02*
X160207438Y-96135601D01*
X160207438Y-96135601D02*
X160159819Y-96040363D01*
X160159819Y-96040363D02*
X160159819Y-95802268D01*
X160159819Y-95802268D02*
X160207438Y-95659411D01*
X161159819Y-95230839D02*
X160493152Y-95230839D01*
X160159819Y-95230839D02*
X160207438Y-95278458D01*
X160207438Y-95278458D02*
X160255057Y-95230839D01*
X160255057Y-95230839D02*
X160207438Y-95183220D01*
X160207438Y-95183220D02*
X160159819Y-95230839D01*
X160159819Y-95230839D02*
X160255057Y-95230839D01*
X161112200Y-94326078D02*
X161159819Y-94421316D01*
X161159819Y-94421316D02*
X161159819Y-94611792D01*
X161159819Y-94611792D02*
X161112200Y-94707030D01*
X161112200Y-94707030D02*
X161064580Y-94754649D01*
X161064580Y-94754649D02*
X160969342Y-94802268D01*
X160969342Y-94802268D02*
X160683628Y-94802268D01*
X160683628Y-94802268D02*
X160588390Y-94754649D01*
X160588390Y-94754649D02*
X160540771Y-94707030D01*
X160540771Y-94707030D02*
X160493152Y-94611792D01*
X160493152Y-94611792D02*
X160493152Y-94421316D01*
X160493152Y-94421316D02*
X160540771Y-94326078D01*
X161159819Y-93897506D02*
X160159819Y-93897506D01*
X161159819Y-93468935D02*
X160636009Y-93468935D01*
X160636009Y-93468935D02*
X160540771Y-93516554D01*
X160540771Y-93516554D02*
X160493152Y-93611792D01*
X160493152Y-93611792D02*
X160493152Y-93754649D01*
X160493152Y-93754649D02*
X160540771Y-93849887D01*
X160540771Y-93849887D02*
X160588390Y-93897506D01*
X161112200Y-92611792D02*
X161159819Y-92707030D01*
X161159819Y-92707030D02*
X161159819Y-92897506D01*
X161159819Y-92897506D02*
X161112200Y-92992744D01*
X161112200Y-92992744D02*
X161016961Y-93040363D01*
X161016961Y-93040363D02*
X160636009Y-93040363D01*
X160636009Y-93040363D02*
X160540771Y-92992744D01*
X160540771Y-92992744D02*
X160493152Y-92897506D01*
X160493152Y-92897506D02*
X160493152Y-92707030D01*
X160493152Y-92707030D02*
X160540771Y-92611792D01*
X160540771Y-92611792D02*
X160636009Y-92564173D01*
X160636009Y-92564173D02*
X160731247Y-92564173D01*
X160731247Y-92564173D02*
X160826485Y-93040363D01*
X161159819Y-92135601D02*
X160493152Y-92135601D01*
X160683628Y-92135601D02*
X160588390Y-92087982D01*
X160588390Y-92087982D02*
X160540771Y-92040363D01*
X160540771Y-92040363D02*
X160493152Y-91945125D01*
X160493152Y-91945125D02*
X160493152Y-91849887D01*
X160493152Y-91087982D02*
X161159819Y-91087982D01*
X160493152Y-91516553D02*
X161016961Y-91516553D01*
X161016961Y-91516553D02*
X161112200Y-91468934D01*
X161112200Y-91468934D02*
X161159819Y-91373696D01*
X161159819Y-91373696D02*
X161159819Y-91230839D01*
X161159819Y-91230839D02*
X161112200Y-91135601D01*
X161112200Y-91135601D02*
X161064580Y-91087982D01*
X160493152Y-90611791D02*
X161159819Y-90611791D01*
X160588390Y-90611791D02*
X160540771Y-90564172D01*
X160540771Y-90564172D02*
X160493152Y-90468934D01*
X160493152Y-90468934D02*
X160493152Y-90326077D01*
X160493152Y-90326077D02*
X160540771Y-90230839D01*
X160540771Y-90230839D02*
X160636009Y-90183220D01*
X160636009Y-90183220D02*
X161159819Y-90183220D01*
X160493152Y-89278458D02*
X161302676Y-89278458D01*
X161302676Y-89278458D02*
X161397914Y-89326077D01*
X161397914Y-89326077D02*
X161445533Y-89373696D01*
X161445533Y-89373696D02*
X161493152Y-89468934D01*
X161493152Y-89468934D02*
X161493152Y-89611791D01*
X161493152Y-89611791D02*
X161445533Y-89707029D01*
X161112200Y-89278458D02*
X161159819Y-89373696D01*
X161159819Y-89373696D02*
X161159819Y-89564172D01*
X161159819Y-89564172D02*
X161112200Y-89659410D01*
X161112200Y-89659410D02*
X161064580Y-89707029D01*
X161064580Y-89707029D02*
X160969342Y-89754648D01*
X160969342Y-89754648D02*
X160683628Y-89754648D01*
X160683628Y-89754648D02*
X160588390Y-89707029D01*
X160588390Y-89707029D02*
X160540771Y-89659410D01*
X160540771Y-89659410D02*
X160493152Y-89564172D01*
X160493152Y-89564172D02*
X160493152Y-89373696D01*
X160493152Y-89373696D02*
X160540771Y-89278458D01*
X160588390Y-87897505D02*
X160540771Y-87992743D01*
X160540771Y-87992743D02*
X160493152Y-88040362D01*
X160493152Y-88040362D02*
X160397914Y-88087981D01*
X160397914Y-88087981D02*
X160350295Y-88087981D01*
X160350295Y-88087981D02*
X160255057Y-88040362D01*
X160255057Y-88040362D02*
X160207438Y-87992743D01*
X160207438Y-87992743D02*
X160159819Y-87897505D01*
X160159819Y-87897505D02*
X160159819Y-87707029D01*
X160159819Y-87707029D02*
X160207438Y-87611791D01*
X160207438Y-87611791D02*
X160255057Y-87564172D01*
X160255057Y-87564172D02*
X160350295Y-87516553D01*
X160350295Y-87516553D02*
X160397914Y-87516553D01*
X160397914Y-87516553D02*
X160493152Y-87564172D01*
X160493152Y-87564172D02*
X160540771Y-87611791D01*
X160540771Y-87611791D02*
X160588390Y-87707029D01*
X160588390Y-87707029D02*
X160588390Y-87897505D01*
X160588390Y-87897505D02*
X160636009Y-87992743D01*
X160636009Y-87992743D02*
X160683628Y-88040362D01*
X160683628Y-88040362D02*
X160778866Y-88087981D01*
X160778866Y-88087981D02*
X160969342Y-88087981D01*
X160969342Y-88087981D02*
X161064580Y-88040362D01*
X161064580Y-88040362D02*
X161112200Y-87992743D01*
X161112200Y-87992743D02*
X161159819Y-87897505D01*
X161159819Y-87897505D02*
X161159819Y-87707029D01*
X161159819Y-87707029D02*
X161112200Y-87611791D01*
X161112200Y-87611791D02*
X161064580Y-87564172D01*
X161064580Y-87564172D02*
X160969342Y-87516553D01*
X160969342Y-87516553D02*
X160778866Y-87516553D01*
X160778866Y-87516553D02*
X160683628Y-87564172D01*
X160683628Y-87564172D02*
X160636009Y-87611791D01*
X160636009Y-87611791D02*
X160588390Y-87707029D01*
X160874104Y-87135600D02*
X160874104Y-86659410D01*
X161159819Y-87230838D02*
X160159819Y-86897505D01*
X160159819Y-86897505D02*
X161159819Y-86564172D01*
X170516779Y-117979819D02*
X170516779Y-116979819D01*
X170516779Y-116979819D02*
X171088207Y-117979819D01*
X171088207Y-117979819D02*
X171088207Y-116979819D01*
X171945350Y-117932200D02*
X171850112Y-117979819D01*
X171850112Y-117979819D02*
X171659636Y-117979819D01*
X171659636Y-117979819D02*
X171564398Y-117932200D01*
X171564398Y-117932200D02*
X171516779Y-117836961D01*
X171516779Y-117836961D02*
X171516779Y-117456009D01*
X171516779Y-117456009D02*
X171564398Y-117360771D01*
X171564398Y-117360771D02*
X171659636Y-117313152D01*
X171659636Y-117313152D02*
X171850112Y-117313152D01*
X171850112Y-117313152D02*
X171945350Y-117360771D01*
X171945350Y-117360771D02*
X171992969Y-117456009D01*
X171992969Y-117456009D02*
X171992969Y-117551247D01*
X171992969Y-117551247D02*
X171516779Y-117646485D01*
X172850112Y-117313152D02*
X172850112Y-117979819D01*
X172421541Y-117313152D02*
X172421541Y-117836961D01*
X172421541Y-117836961D02*
X172469160Y-117932200D01*
X172469160Y-117932200D02*
X172564398Y-117979819D01*
X172564398Y-117979819D02*
X172707255Y-117979819D01*
X172707255Y-117979819D02*
X172802493Y-117932200D01*
X172802493Y-117932200D02*
X172850112Y-117884580D01*
X173183446Y-117313152D02*
X173564398Y-117313152D01*
X173326303Y-116979819D02*
X173326303Y-117836961D01*
X173326303Y-117836961D02*
X173373922Y-117932200D01*
X173373922Y-117932200D02*
X173469160Y-117979819D01*
X173469160Y-117979819D02*
X173564398Y-117979819D01*
X173897732Y-117979819D02*
X173897732Y-117313152D01*
X173897732Y-117503628D02*
X173945351Y-117408390D01*
X173945351Y-117408390D02*
X173992970Y-117360771D01*
X173992970Y-117360771D02*
X174088208Y-117313152D01*
X174088208Y-117313152D02*
X174183446Y-117313152D01*
X174945351Y-117979819D02*
X174945351Y-117456009D01*
X174945351Y-117456009D02*
X174897732Y-117360771D01*
X174897732Y-117360771D02*
X174802494Y-117313152D01*
X174802494Y-117313152D02*
X174612018Y-117313152D01*
X174612018Y-117313152D02*
X174516780Y-117360771D01*
X174945351Y-117932200D02*
X174850113Y-117979819D01*
X174850113Y-117979819D02*
X174612018Y-117979819D01*
X174612018Y-117979819D02*
X174516780Y-117932200D01*
X174516780Y-117932200D02*
X174469161Y-117836961D01*
X174469161Y-117836961D02*
X174469161Y-117741723D01*
X174469161Y-117741723D02*
X174516780Y-117646485D01*
X174516780Y-117646485D02*
X174612018Y-117598866D01*
X174612018Y-117598866D02*
X174850113Y-117598866D01*
X174850113Y-117598866D02*
X174945351Y-117551247D01*
X175564399Y-117979819D02*
X175469161Y-117932200D01*
X175469161Y-117932200D02*
X175421542Y-117836961D01*
X175421542Y-117836961D02*
X175421542Y-116979819D01*
X177628779Y-117979819D02*
X177628779Y-116979819D01*
X177628779Y-116979819D02*
X178009731Y-116979819D01*
X178009731Y-116979819D02*
X178104969Y-117027438D01*
X178104969Y-117027438D02*
X178152588Y-117075057D01*
X178152588Y-117075057D02*
X178200207Y-117170295D01*
X178200207Y-117170295D02*
X178200207Y-117313152D01*
X178200207Y-117313152D02*
X178152588Y-117408390D01*
X178152588Y-117408390D02*
X178104969Y-117456009D01*
X178104969Y-117456009D02*
X178009731Y-117503628D01*
X178009731Y-117503628D02*
X177628779Y-117503628D01*
X178628779Y-117979819D02*
X178628779Y-116979819D01*
X179057350Y-117979819D02*
X179057350Y-117456009D01*
X179057350Y-117456009D02*
X179009731Y-117360771D01*
X179009731Y-117360771D02*
X178914493Y-117313152D01*
X178914493Y-117313152D02*
X178771636Y-117313152D01*
X178771636Y-117313152D02*
X178676398Y-117360771D01*
X178676398Y-117360771D02*
X178628779Y-117408390D01*
X179962112Y-117979819D02*
X179962112Y-117456009D01*
X179962112Y-117456009D02*
X179914493Y-117360771D01*
X179914493Y-117360771D02*
X179819255Y-117313152D01*
X179819255Y-117313152D02*
X179628779Y-117313152D01*
X179628779Y-117313152D02*
X179533541Y-117360771D01*
X179962112Y-117932200D02*
X179866874Y-117979819D01*
X179866874Y-117979819D02*
X179628779Y-117979819D01*
X179628779Y-117979819D02*
X179533541Y-117932200D01*
X179533541Y-117932200D02*
X179485922Y-117836961D01*
X179485922Y-117836961D02*
X179485922Y-117741723D01*
X179485922Y-117741723D02*
X179533541Y-117646485D01*
X179533541Y-117646485D02*
X179628779Y-117598866D01*
X179628779Y-117598866D02*
X179866874Y-117598866D01*
X179866874Y-117598866D02*
X179962112Y-117551247D01*
X180390684Y-117932200D02*
X180485922Y-117979819D01*
X180485922Y-117979819D02*
X180676398Y-117979819D01*
X180676398Y-117979819D02*
X180771636Y-117932200D01*
X180771636Y-117932200D02*
X180819255Y-117836961D01*
X180819255Y-117836961D02*
X180819255Y-117789342D01*
X180819255Y-117789342D02*
X180771636Y-117694104D01*
X180771636Y-117694104D02*
X180676398Y-117646485D01*
X180676398Y-117646485D02*
X180533541Y-117646485D01*
X180533541Y-117646485D02*
X180438303Y-117598866D01*
X180438303Y-117598866D02*
X180390684Y-117503628D01*
X180390684Y-117503628D02*
X180390684Y-117456009D01*
X180390684Y-117456009D02*
X180438303Y-117360771D01*
X180438303Y-117360771D02*
X180533541Y-117313152D01*
X180533541Y-117313152D02*
X180676398Y-117313152D01*
X180676398Y-117313152D02*
X180771636Y-117360771D01*
X181628779Y-117932200D02*
X181533541Y-117979819D01*
X181533541Y-117979819D02*
X181343065Y-117979819D01*
X181343065Y-117979819D02*
X181247827Y-117932200D01*
X181247827Y-117932200D02*
X181200208Y-117836961D01*
X181200208Y-117836961D02*
X181200208Y-117456009D01*
X181200208Y-117456009D02*
X181247827Y-117360771D01*
X181247827Y-117360771D02*
X181343065Y-117313152D01*
X181343065Y-117313152D02*
X181533541Y-117313152D01*
X181533541Y-117313152D02*
X181628779Y-117360771D01*
X181628779Y-117360771D02*
X181676398Y-117456009D01*
X181676398Y-117456009D02*
X181676398Y-117551247D01*
X181676398Y-117551247D02*
X181200208Y-117646485D01*
X160547255Y-116979819D02*
X160737731Y-116979819D01*
X160737731Y-116979819D02*
X160832969Y-117027438D01*
X160832969Y-117027438D02*
X160928207Y-117122676D01*
X160928207Y-117122676D02*
X160975826Y-117313152D01*
X160975826Y-117313152D02*
X160975826Y-117646485D01*
X160975826Y-117646485D02*
X160928207Y-117836961D01*
X160928207Y-117836961D02*
X160832969Y-117932200D01*
X160832969Y-117932200D02*
X160737731Y-117979819D01*
X160737731Y-117979819D02*
X160547255Y-117979819D01*
X160547255Y-117979819D02*
X160452017Y-117932200D01*
X160452017Y-117932200D02*
X160356779Y-117836961D01*
X160356779Y-117836961D02*
X160309160Y-117646485D01*
X160309160Y-117646485D02*
X160309160Y-117313152D01*
X160309160Y-117313152D02*
X160356779Y-117122676D01*
X160356779Y-117122676D02*
X160452017Y-117027438D01*
X160452017Y-117027438D02*
X160547255Y-116979819D01*
X161309160Y-117313152D02*
X161547255Y-117979819D01*
X161547255Y-117979819D02*
X161785350Y-117313152D01*
X162547255Y-117932200D02*
X162452017Y-117979819D01*
X162452017Y-117979819D02*
X162261541Y-117979819D01*
X162261541Y-117979819D02*
X162166303Y-117932200D01*
X162166303Y-117932200D02*
X162118684Y-117836961D01*
X162118684Y-117836961D02*
X162118684Y-117456009D01*
X162118684Y-117456009D02*
X162166303Y-117360771D01*
X162166303Y-117360771D02*
X162261541Y-117313152D01*
X162261541Y-117313152D02*
X162452017Y-117313152D01*
X162452017Y-117313152D02*
X162547255Y-117360771D01*
X162547255Y-117360771D02*
X162594874Y-117456009D01*
X162594874Y-117456009D02*
X162594874Y-117551247D01*
X162594874Y-117551247D02*
X162118684Y-117646485D01*
X163023446Y-117313152D02*
X163023446Y-117979819D01*
X163023446Y-117408390D02*
X163071065Y-117360771D01*
X163071065Y-117360771D02*
X163166303Y-117313152D01*
X163166303Y-117313152D02*
X163309160Y-117313152D01*
X163309160Y-117313152D02*
X163404398Y-117360771D01*
X163404398Y-117360771D02*
X163452017Y-117456009D01*
X163452017Y-117456009D02*
X163452017Y-117979819D01*
X133686779Y-63029819D02*
X133686779Y-62029819D01*
X133686779Y-62029819D02*
X134067731Y-62029819D01*
X134067731Y-62029819D02*
X134162969Y-62077438D01*
X134162969Y-62077438D02*
X134210588Y-62125057D01*
X134210588Y-62125057D02*
X134258207Y-62220295D01*
X134258207Y-62220295D02*
X134258207Y-62363152D01*
X134258207Y-62363152D02*
X134210588Y-62458390D01*
X134210588Y-62458390D02*
X134162969Y-62506009D01*
X134162969Y-62506009D02*
X134067731Y-62553628D01*
X134067731Y-62553628D02*
X133686779Y-62553628D01*
X134686779Y-62934580D02*
X134734398Y-62982200D01*
X134734398Y-62982200D02*
X134686779Y-63029819D01*
X134686779Y-63029819D02*
X134639160Y-62982200D01*
X134639160Y-62982200D02*
X134686779Y-62934580D01*
X134686779Y-62934580D02*
X134686779Y-63029819D01*
X136496302Y-63029819D02*
X136162969Y-62553628D01*
X135924874Y-63029819D02*
X135924874Y-62029819D01*
X135924874Y-62029819D02*
X136305826Y-62029819D01*
X136305826Y-62029819D02*
X136401064Y-62077438D01*
X136401064Y-62077438D02*
X136448683Y-62125057D01*
X136448683Y-62125057D02*
X136496302Y-62220295D01*
X136496302Y-62220295D02*
X136496302Y-62363152D01*
X136496302Y-62363152D02*
X136448683Y-62458390D01*
X136448683Y-62458390D02*
X136401064Y-62506009D01*
X136401064Y-62506009D02*
X136305826Y-62553628D01*
X136305826Y-62553628D02*
X135924874Y-62553628D01*
X137353445Y-63029819D02*
X137353445Y-62506009D01*
X137353445Y-62506009D02*
X137305826Y-62410771D01*
X137305826Y-62410771D02*
X137210588Y-62363152D01*
X137210588Y-62363152D02*
X137020112Y-62363152D01*
X137020112Y-62363152D02*
X136924874Y-62410771D01*
X137353445Y-62982200D02*
X137258207Y-63029819D01*
X137258207Y-63029819D02*
X137020112Y-63029819D01*
X137020112Y-63029819D02*
X136924874Y-62982200D01*
X136924874Y-62982200D02*
X136877255Y-62886961D01*
X136877255Y-62886961D02*
X136877255Y-62791723D01*
X136877255Y-62791723D02*
X136924874Y-62696485D01*
X136924874Y-62696485D02*
X137020112Y-62648866D01*
X137020112Y-62648866D02*
X137258207Y-62648866D01*
X137258207Y-62648866D02*
X137353445Y-62601247D01*
X137829636Y-62363152D02*
X137829636Y-63363152D01*
X137829636Y-62410771D02*
X137924874Y-62363152D01*
X137924874Y-62363152D02*
X138115350Y-62363152D01*
X138115350Y-62363152D02*
X138210588Y-62410771D01*
X138210588Y-62410771D02*
X138258207Y-62458390D01*
X138258207Y-62458390D02*
X138305826Y-62553628D01*
X138305826Y-62553628D02*
X138305826Y-62839342D01*
X138305826Y-62839342D02*
X138258207Y-62934580D01*
X138258207Y-62934580D02*
X138210588Y-62982200D01*
X138210588Y-62982200D02*
X138115350Y-63029819D01*
X138115350Y-63029819D02*
X137924874Y-63029819D01*
X137924874Y-63029819D02*
X137829636Y-62982200D01*
X138734398Y-62363152D02*
X138734398Y-63363152D01*
X138734398Y-62410771D02*
X138829636Y-62363152D01*
X138829636Y-62363152D02*
X139020112Y-62363152D01*
X139020112Y-62363152D02*
X139115350Y-62410771D01*
X139115350Y-62410771D02*
X139162969Y-62458390D01*
X139162969Y-62458390D02*
X139210588Y-62553628D01*
X139210588Y-62553628D02*
X139210588Y-62839342D01*
X139210588Y-62839342D02*
X139162969Y-62934580D01*
X139162969Y-62934580D02*
X139115350Y-62982200D01*
X139115350Y-62982200D02*
X139020112Y-63029819D01*
X139020112Y-63029819D02*
X138829636Y-63029819D01*
X138829636Y-63029819D02*
X138734398Y-62982200D01*
X139686779Y-62982200D02*
X139686779Y-63029819D01*
X139686779Y-63029819D02*
X139639160Y-63125057D01*
X139639160Y-63125057D02*
X139591541Y-63172676D01*
X141448683Y-63029819D02*
X141115350Y-62553628D01*
X140877255Y-63029819D02*
X140877255Y-62029819D01*
X140877255Y-62029819D02*
X141258207Y-62029819D01*
X141258207Y-62029819D02*
X141353445Y-62077438D01*
X141353445Y-62077438D02*
X141401064Y-62125057D01*
X141401064Y-62125057D02*
X141448683Y-62220295D01*
X141448683Y-62220295D02*
X141448683Y-62363152D01*
X141448683Y-62363152D02*
X141401064Y-62458390D01*
X141401064Y-62458390D02*
X141353445Y-62506009D01*
X141353445Y-62506009D02*
X141258207Y-62553628D01*
X141258207Y-62553628D02*
X140877255Y-62553628D01*
X142258207Y-62982200D02*
X142162969Y-63029819D01*
X142162969Y-63029819D02*
X141972493Y-63029819D01*
X141972493Y-63029819D02*
X141877255Y-62982200D01*
X141877255Y-62982200D02*
X141829636Y-62886961D01*
X141829636Y-62886961D02*
X141829636Y-62506009D01*
X141829636Y-62506009D02*
X141877255Y-62410771D01*
X141877255Y-62410771D02*
X141972493Y-62363152D01*
X141972493Y-62363152D02*
X142162969Y-62363152D01*
X142162969Y-62363152D02*
X142258207Y-62410771D01*
X142258207Y-62410771D02*
X142305826Y-62506009D01*
X142305826Y-62506009D02*
X142305826Y-62601247D01*
X142305826Y-62601247D02*
X141829636Y-62696485D01*
X142591541Y-62363152D02*
X142972493Y-62363152D01*
X142734398Y-63029819D02*
X142734398Y-62172676D01*
X142734398Y-62172676D02*
X142782017Y-62077438D01*
X142782017Y-62077438D02*
X142877255Y-62029819D01*
X142877255Y-62029819D02*
X142972493Y-62029819D01*
X143448684Y-63029819D02*
X143353446Y-62982200D01*
X143353446Y-62982200D02*
X143305827Y-62886961D01*
X143305827Y-62886961D02*
X143305827Y-62029819D01*
X143972494Y-63029819D02*
X143877256Y-62982200D01*
X143877256Y-62982200D02*
X143829637Y-62934580D01*
X143829637Y-62934580D02*
X143782018Y-62839342D01*
X143782018Y-62839342D02*
X143782018Y-62553628D01*
X143782018Y-62553628D02*
X143829637Y-62458390D01*
X143829637Y-62458390D02*
X143877256Y-62410771D01*
X143877256Y-62410771D02*
X143972494Y-62363152D01*
X143972494Y-62363152D02*
X144115351Y-62363152D01*
X144115351Y-62363152D02*
X144210589Y-62410771D01*
X144210589Y-62410771D02*
X144258208Y-62458390D01*
X144258208Y-62458390D02*
X144305827Y-62553628D01*
X144305827Y-62553628D02*
X144305827Y-62839342D01*
X144305827Y-62839342D02*
X144258208Y-62934580D01*
X144258208Y-62934580D02*
X144210589Y-62982200D01*
X144210589Y-62982200D02*
X144115351Y-63029819D01*
X144115351Y-63029819D02*
X143972494Y-63029819D01*
X144639161Y-62363152D02*
X144829637Y-63029819D01*
X144829637Y-63029819D02*
X145020113Y-62553628D01*
X145020113Y-62553628D02*
X145210589Y-63029819D01*
X145210589Y-63029819D02*
X145401065Y-62363152D01*
X146972494Y-62982200D02*
X146877256Y-63029819D01*
X146877256Y-63029819D02*
X146686780Y-63029819D01*
X146686780Y-63029819D02*
X146591542Y-62982200D01*
X146591542Y-62982200D02*
X146543923Y-62934580D01*
X146543923Y-62934580D02*
X146496304Y-62839342D01*
X146496304Y-62839342D02*
X146496304Y-62553628D01*
X146496304Y-62553628D02*
X146543923Y-62458390D01*
X146543923Y-62458390D02*
X146591542Y-62410771D01*
X146591542Y-62410771D02*
X146686780Y-62363152D01*
X146686780Y-62363152D02*
X146877256Y-62363152D01*
X146877256Y-62363152D02*
X146972494Y-62410771D01*
X147543923Y-63029819D02*
X147448685Y-62982200D01*
X147448685Y-62982200D02*
X147401066Y-62934580D01*
X147401066Y-62934580D02*
X147353447Y-62839342D01*
X147353447Y-62839342D02*
X147353447Y-62553628D01*
X147353447Y-62553628D02*
X147401066Y-62458390D01*
X147401066Y-62458390D02*
X147448685Y-62410771D01*
X147448685Y-62410771D02*
X147543923Y-62363152D01*
X147543923Y-62363152D02*
X147686780Y-62363152D01*
X147686780Y-62363152D02*
X147782018Y-62410771D01*
X147782018Y-62410771D02*
X147829637Y-62458390D01*
X147829637Y-62458390D02*
X147877256Y-62553628D01*
X147877256Y-62553628D02*
X147877256Y-62839342D01*
X147877256Y-62839342D02*
X147829637Y-62934580D01*
X147829637Y-62934580D02*
X147782018Y-62982200D01*
X147782018Y-62982200D02*
X147686780Y-63029819D01*
X147686780Y-63029819D02*
X147543923Y-63029819D01*
X148305828Y-62363152D02*
X148305828Y-63029819D01*
X148305828Y-62458390D02*
X148353447Y-62410771D01*
X148353447Y-62410771D02*
X148448685Y-62363152D01*
X148448685Y-62363152D02*
X148591542Y-62363152D01*
X148591542Y-62363152D02*
X148686780Y-62410771D01*
X148686780Y-62410771D02*
X148734399Y-62506009D01*
X148734399Y-62506009D02*
X148734399Y-63029819D01*
X149067733Y-62363152D02*
X149448685Y-62363152D01*
X149210590Y-62029819D02*
X149210590Y-62886961D01*
X149210590Y-62886961D02*
X149258209Y-62982200D01*
X149258209Y-62982200D02*
X149353447Y-63029819D01*
X149353447Y-63029819D02*
X149448685Y-63029819D01*
X149782019Y-63029819D02*
X149782019Y-62363152D01*
X149782019Y-62553628D02*
X149829638Y-62458390D01*
X149829638Y-62458390D02*
X149877257Y-62410771D01*
X149877257Y-62410771D02*
X149972495Y-62363152D01*
X149972495Y-62363152D02*
X150067733Y-62363152D01*
X150543924Y-63029819D02*
X150448686Y-62982200D01*
X150448686Y-62982200D02*
X150401067Y-62934580D01*
X150401067Y-62934580D02*
X150353448Y-62839342D01*
X150353448Y-62839342D02*
X150353448Y-62553628D01*
X150353448Y-62553628D02*
X150401067Y-62458390D01*
X150401067Y-62458390D02*
X150448686Y-62410771D01*
X150448686Y-62410771D02*
X150543924Y-62363152D01*
X150543924Y-62363152D02*
X150686781Y-62363152D01*
X150686781Y-62363152D02*
X150782019Y-62410771D01*
X150782019Y-62410771D02*
X150829638Y-62458390D01*
X150829638Y-62458390D02*
X150877257Y-62553628D01*
X150877257Y-62553628D02*
X150877257Y-62839342D01*
X150877257Y-62839342D02*
X150829638Y-62934580D01*
X150829638Y-62934580D02*
X150782019Y-62982200D01*
X150782019Y-62982200D02*
X150686781Y-63029819D01*
X150686781Y-63029819D02*
X150543924Y-63029819D01*
X151448686Y-63029819D02*
X151353448Y-62982200D01*
X151353448Y-62982200D02*
X151305829Y-62886961D01*
X151305829Y-62886961D02*
X151305829Y-62029819D01*
X151972496Y-63029819D02*
X151877258Y-62982200D01*
X151877258Y-62982200D02*
X151829639Y-62886961D01*
X151829639Y-62886961D02*
X151829639Y-62029819D01*
X152734401Y-62982200D02*
X152639163Y-63029819D01*
X152639163Y-63029819D02*
X152448687Y-63029819D01*
X152448687Y-63029819D02*
X152353449Y-62982200D01*
X152353449Y-62982200D02*
X152305830Y-62886961D01*
X152305830Y-62886961D02*
X152305830Y-62506009D01*
X152305830Y-62506009D02*
X152353449Y-62410771D01*
X152353449Y-62410771D02*
X152448687Y-62363152D01*
X152448687Y-62363152D02*
X152639163Y-62363152D01*
X152639163Y-62363152D02*
X152734401Y-62410771D01*
X152734401Y-62410771D02*
X152782020Y-62506009D01*
X152782020Y-62506009D02*
X152782020Y-62601247D01*
X152782020Y-62601247D02*
X152305830Y-62696485D01*
X153210592Y-63029819D02*
X153210592Y-62363152D01*
X153210592Y-62553628D02*
X153258211Y-62458390D01*
X153258211Y-62458390D02*
X153305830Y-62410771D01*
X153305830Y-62410771D02*
X153401068Y-62363152D01*
X153401068Y-62363152D02*
X153496306Y-62363152D01*
X133639160Y-64354104D02*
X134115350Y-64354104D01*
X133543922Y-64639819D02*
X133877255Y-63639819D01*
X133877255Y-63639819D02*
X134210588Y-64639819D01*
X133686779Y-63306485D02*
X133734398Y-63354104D01*
X133734398Y-63354104D02*
X133686779Y-63401723D01*
X133686779Y-63401723D02*
X133639160Y-63354104D01*
X133639160Y-63354104D02*
X133686779Y-63306485D01*
X133686779Y-63306485D02*
X133686779Y-63401723D01*
X134067731Y-63306485D02*
X134115350Y-63354104D01*
X134115350Y-63354104D02*
X134067731Y-63401723D01*
X134067731Y-63401723D02*
X134020112Y-63354104D01*
X134020112Y-63354104D02*
X134067731Y-63306485D01*
X134067731Y-63306485D02*
X134067731Y-63401723D01*
X134496303Y-64592200D02*
X134639160Y-64639819D01*
X134639160Y-64639819D02*
X134877255Y-64639819D01*
X134877255Y-64639819D02*
X134972493Y-64592200D01*
X134972493Y-64592200D02*
X135020112Y-64544580D01*
X135020112Y-64544580D02*
X135067731Y-64449342D01*
X135067731Y-64449342D02*
X135067731Y-64354104D01*
X135067731Y-64354104D02*
X135020112Y-64258866D01*
X135020112Y-64258866D02*
X134972493Y-64211247D01*
X134972493Y-64211247D02*
X134877255Y-64163628D01*
X134877255Y-64163628D02*
X134686779Y-64116009D01*
X134686779Y-64116009D02*
X134591541Y-64068390D01*
X134591541Y-64068390D02*
X134543922Y-64020771D01*
X134543922Y-64020771D02*
X134496303Y-63925533D01*
X134496303Y-63925533D02*
X134496303Y-63830295D01*
X134496303Y-63830295D02*
X134543922Y-63735057D01*
X134543922Y-63735057D02*
X134591541Y-63687438D01*
X134591541Y-63687438D02*
X134686779Y-63639819D01*
X134686779Y-63639819D02*
X134924874Y-63639819D01*
X134924874Y-63639819D02*
X135067731Y-63687438D01*
X136782017Y-64639819D02*
X136210589Y-64639819D01*
X136496303Y-64639819D02*
X136496303Y-63639819D01*
X136496303Y-63639819D02*
X136401065Y-63782676D01*
X136401065Y-63782676D02*
X136305827Y-63877914D01*
X136305827Y-63877914D02*
X136210589Y-63925533D01*
X137210589Y-64544580D02*
X137258208Y-64592200D01*
X137258208Y-64592200D02*
X137210589Y-64639819D01*
X137210589Y-64639819D02*
X137162970Y-64592200D01*
X137162970Y-64592200D02*
X137210589Y-64544580D01*
X137210589Y-64544580D02*
X137210589Y-64639819D01*
X137877255Y-63639819D02*
X137972493Y-63639819D01*
X137972493Y-63639819D02*
X138067731Y-63687438D01*
X138067731Y-63687438D02*
X138115350Y-63735057D01*
X138115350Y-63735057D02*
X138162969Y-63830295D01*
X138162969Y-63830295D02*
X138210588Y-64020771D01*
X138210588Y-64020771D02*
X138210588Y-64258866D01*
X138210588Y-64258866D02*
X138162969Y-64449342D01*
X138162969Y-64449342D02*
X138115350Y-64544580D01*
X138115350Y-64544580D02*
X138067731Y-64592200D01*
X138067731Y-64592200D02*
X137972493Y-64639819D01*
X137972493Y-64639819D02*
X137877255Y-64639819D01*
X137877255Y-64639819D02*
X137782017Y-64592200D01*
X137782017Y-64592200D02*
X137734398Y-64544580D01*
X137734398Y-64544580D02*
X137686779Y-64449342D01*
X137686779Y-64449342D02*
X137639160Y-64258866D01*
X137639160Y-64258866D02*
X137639160Y-64020771D01*
X137639160Y-64020771D02*
X137686779Y-63830295D01*
X137686779Y-63830295D02*
X137734398Y-63735057D01*
X137734398Y-63735057D02*
X137782017Y-63687438D01*
X137782017Y-63687438D02*
X137877255Y-63639819D01*
X138639160Y-64544580D02*
X138686779Y-64592200D01*
X138686779Y-64592200D02*
X138639160Y-64639819D01*
X138639160Y-64639819D02*
X138591541Y-64592200D01*
X138591541Y-64592200D02*
X138639160Y-64544580D01*
X138639160Y-64544580D02*
X138639160Y-64639819D01*
X139305826Y-63639819D02*
X139401064Y-63639819D01*
X139401064Y-63639819D02*
X139496302Y-63687438D01*
X139496302Y-63687438D02*
X139543921Y-63735057D01*
X139543921Y-63735057D02*
X139591540Y-63830295D01*
X139591540Y-63830295D02*
X139639159Y-64020771D01*
X139639159Y-64020771D02*
X139639159Y-64258866D01*
X139639159Y-64258866D02*
X139591540Y-64449342D01*
X139591540Y-64449342D02*
X139543921Y-64544580D01*
X139543921Y-64544580D02*
X139496302Y-64592200D01*
X139496302Y-64592200D02*
X139401064Y-64639819D01*
X139401064Y-64639819D02*
X139305826Y-64639819D01*
X139305826Y-64639819D02*
X139210588Y-64592200D01*
X139210588Y-64592200D02*
X139162969Y-64544580D01*
X139162969Y-64544580D02*
X139115350Y-64449342D01*
X139115350Y-64449342D02*
X139067731Y-64258866D01*
X139067731Y-64258866D02*
X139067731Y-64020771D01*
X139067731Y-64020771D02*
X139115350Y-63830295D01*
X139115350Y-63830295D02*
X139162969Y-63735057D01*
X139162969Y-63735057D02*
X139210588Y-63687438D01*
X139210588Y-63687438D02*
X139305826Y-63639819D01*
X125479350Y-86579152D02*
X125479350Y-87388676D01*
X125479350Y-87388676D02*
X125431731Y-87483914D01*
X125431731Y-87483914D02*
X125384112Y-87531533D01*
X125384112Y-87531533D02*
X125288874Y-87579152D01*
X125288874Y-87579152D02*
X125146017Y-87579152D01*
X125146017Y-87579152D02*
X125050779Y-87531533D01*
X125479350Y-87198200D02*
X125384112Y-87245819D01*
X125384112Y-87245819D02*
X125193636Y-87245819D01*
X125193636Y-87245819D02*
X125098398Y-87198200D01*
X125098398Y-87198200D02*
X125050779Y-87150580D01*
X125050779Y-87150580D02*
X125003160Y-87055342D01*
X125003160Y-87055342D02*
X125003160Y-86769628D01*
X125003160Y-86769628D02*
X125050779Y-86674390D01*
X125050779Y-86674390D02*
X125098398Y-86626771D01*
X125098398Y-86626771D02*
X125193636Y-86579152D01*
X125193636Y-86579152D02*
X125384112Y-86579152D01*
X125384112Y-86579152D02*
X125479350Y-86626771D01*
X125955541Y-86579152D02*
X125955541Y-87245819D01*
X125955541Y-86674390D02*
X126003160Y-86626771D01*
X126003160Y-86626771D02*
X126098398Y-86579152D01*
X126098398Y-86579152D02*
X126241255Y-86579152D01*
X126241255Y-86579152D02*
X126336493Y-86626771D01*
X126336493Y-86626771D02*
X126384112Y-86722009D01*
X126384112Y-86722009D02*
X126384112Y-87245819D01*
X187312493Y-100129819D02*
X187312493Y-100844104D01*
X187312493Y-100844104D02*
X187264874Y-100986961D01*
X187264874Y-100986961D02*
X187169636Y-101082200D01*
X187169636Y-101082200D02*
X187026779Y-101129819D01*
X187026779Y-101129819D02*
X186931541Y-101129819D01*
X187693446Y-100129819D02*
X188312493Y-100129819D01*
X188312493Y-100129819D02*
X187979160Y-100510771D01*
X187979160Y-100510771D02*
X188122017Y-100510771D01*
X188122017Y-100510771D02*
X188217255Y-100558390D01*
X188217255Y-100558390D02*
X188264874Y-100606009D01*
X188264874Y-100606009D02*
X188312493Y-100701247D01*
X188312493Y-100701247D02*
X188312493Y-100939342D01*
X188312493Y-100939342D02*
X188264874Y-101034580D01*
X188264874Y-101034580D02*
X188217255Y-101082200D01*
X188217255Y-101082200D02*
X188122017Y-101129819D01*
X188122017Y-101129819D02*
X187836303Y-101129819D01*
X187836303Y-101129819D02*
X187741065Y-101082200D01*
X187741065Y-101082200D02*
X187693446Y-101034580D01*
X189455351Y-100844104D02*
X189931541Y-100844104D01*
X189360113Y-101129819D02*
X189693446Y-100129819D01*
X189693446Y-100129819D02*
X190026779Y-101129819D01*
X190360113Y-100463152D02*
X190360113Y-101129819D01*
X190360113Y-100558390D02*
X190407732Y-100510771D01*
X190407732Y-100510771D02*
X190502970Y-100463152D01*
X190502970Y-100463152D02*
X190645827Y-100463152D01*
X190645827Y-100463152D02*
X190741065Y-100510771D01*
X190741065Y-100510771D02*
X190788684Y-100606009D01*
X190788684Y-100606009D02*
X190788684Y-101129819D01*
X191217256Y-101082200D02*
X191312494Y-101129819D01*
X191312494Y-101129819D02*
X191502970Y-101129819D01*
X191502970Y-101129819D02*
X191598208Y-101082200D01*
X191598208Y-101082200D02*
X191645827Y-100986961D01*
X191645827Y-100986961D02*
X191645827Y-100939342D01*
X191645827Y-100939342D02*
X191598208Y-100844104D01*
X191598208Y-100844104D02*
X191502970Y-100796485D01*
X191502970Y-100796485D02*
X191360113Y-100796485D01*
X191360113Y-100796485D02*
X191264875Y-100748866D01*
X191264875Y-100748866D02*
X191217256Y-100653628D01*
X191217256Y-100653628D02*
X191217256Y-100606009D01*
X191217256Y-100606009D02*
X191264875Y-100510771D01*
X191264875Y-100510771D02*
X191360113Y-100463152D01*
X191360113Y-100463152D02*
X191502970Y-100463152D01*
X191502970Y-100463152D02*
X191598208Y-100510771D01*
X192502970Y-101082200D02*
X192407732Y-101129819D01*
X192407732Y-101129819D02*
X192217256Y-101129819D01*
X192217256Y-101129819D02*
X192122018Y-101082200D01*
X192122018Y-101082200D02*
X192074399Y-101034580D01*
X192074399Y-101034580D02*
X192026780Y-100939342D01*
X192026780Y-100939342D02*
X192026780Y-100653628D01*
X192026780Y-100653628D02*
X192074399Y-100558390D01*
X192074399Y-100558390D02*
X192122018Y-100510771D01*
X192122018Y-100510771D02*
X192217256Y-100463152D01*
X192217256Y-100463152D02*
X192407732Y-100463152D01*
X192407732Y-100463152D02*
X192502970Y-100510771D01*
X192931542Y-101129819D02*
X192931542Y-100129819D01*
X193360113Y-101129819D02*
X193360113Y-100606009D01*
X193360113Y-100606009D02*
X193312494Y-100510771D01*
X193312494Y-100510771D02*
X193217256Y-100463152D01*
X193217256Y-100463152D02*
X193074399Y-100463152D01*
X193074399Y-100463152D02*
X192979161Y-100510771D01*
X192979161Y-100510771D02*
X192931542Y-100558390D01*
X193979161Y-101129819D02*
X193883923Y-101082200D01*
X193883923Y-101082200D02*
X193836304Y-100986961D01*
X193836304Y-100986961D02*
X193836304Y-100129819D01*
X194788685Y-100463152D02*
X194788685Y-101129819D01*
X194360114Y-100463152D02*
X194360114Y-100986961D01*
X194360114Y-100986961D02*
X194407733Y-101082200D01*
X194407733Y-101082200D02*
X194502971Y-101129819D01*
X194502971Y-101129819D02*
X194645828Y-101129819D01*
X194645828Y-101129819D02*
X194741066Y-101082200D01*
X194741066Y-101082200D02*
X194788685Y-101034580D01*
X195217257Y-101082200D02*
X195312495Y-101129819D01*
X195312495Y-101129819D02*
X195502971Y-101129819D01*
X195502971Y-101129819D02*
X195598209Y-101082200D01*
X195598209Y-101082200D02*
X195645828Y-100986961D01*
X195645828Y-100986961D02*
X195645828Y-100939342D01*
X195645828Y-100939342D02*
X195598209Y-100844104D01*
X195598209Y-100844104D02*
X195502971Y-100796485D01*
X195502971Y-100796485D02*
X195360114Y-100796485D01*
X195360114Y-100796485D02*
X195264876Y-100748866D01*
X195264876Y-100748866D02*
X195217257Y-100653628D01*
X195217257Y-100653628D02*
X195217257Y-100606009D01*
X195217257Y-100606009D02*
X195264876Y-100510771D01*
X195264876Y-100510771D02*
X195360114Y-100463152D01*
X195360114Y-100463152D02*
X195502971Y-100463152D01*
X195502971Y-100463152D02*
X195598209Y-100510771D01*
X196026781Y-101082200D02*
X196122019Y-101129819D01*
X196122019Y-101129819D02*
X196312495Y-101129819D01*
X196312495Y-101129819D02*
X196407733Y-101082200D01*
X196407733Y-101082200D02*
X196455352Y-100986961D01*
X196455352Y-100986961D02*
X196455352Y-100939342D01*
X196455352Y-100939342D02*
X196407733Y-100844104D01*
X196407733Y-100844104D02*
X196312495Y-100796485D01*
X196312495Y-100796485D02*
X196169638Y-100796485D01*
X196169638Y-100796485D02*
X196074400Y-100748866D01*
X196074400Y-100748866D02*
X196026781Y-100653628D01*
X196026781Y-100653628D02*
X196026781Y-100606009D01*
X196026781Y-100606009D02*
X196074400Y-100510771D01*
X196074400Y-100510771D02*
X196169638Y-100463152D01*
X196169638Y-100463152D02*
X196312495Y-100463152D01*
X196312495Y-100463152D02*
X196407733Y-100510771D01*
X186979160Y-102692200D02*
X187122017Y-102739819D01*
X187122017Y-102739819D02*
X187360112Y-102739819D01*
X187360112Y-102739819D02*
X187455350Y-102692200D01*
X187455350Y-102692200D02*
X187502969Y-102644580D01*
X187502969Y-102644580D02*
X187550588Y-102549342D01*
X187550588Y-102549342D02*
X187550588Y-102454104D01*
X187550588Y-102454104D02*
X187502969Y-102358866D01*
X187502969Y-102358866D02*
X187455350Y-102311247D01*
X187455350Y-102311247D02*
X187360112Y-102263628D01*
X187360112Y-102263628D02*
X187169636Y-102216009D01*
X187169636Y-102216009D02*
X187074398Y-102168390D01*
X187074398Y-102168390D02*
X187026779Y-102120771D01*
X187026779Y-102120771D02*
X186979160Y-102025533D01*
X186979160Y-102025533D02*
X186979160Y-101930295D01*
X186979160Y-101930295D02*
X187026779Y-101835057D01*
X187026779Y-101835057D02*
X187074398Y-101787438D01*
X187074398Y-101787438D02*
X187169636Y-101739819D01*
X187169636Y-101739819D02*
X187407731Y-101739819D01*
X187407731Y-101739819D02*
X187550588Y-101787438D01*
X187836303Y-102073152D02*
X188217255Y-102073152D01*
X187979160Y-101739819D02*
X187979160Y-102596961D01*
X187979160Y-102596961D02*
X188026779Y-102692200D01*
X188026779Y-102692200D02*
X188122017Y-102739819D01*
X188122017Y-102739819D02*
X188217255Y-102739819D01*
X188931541Y-102692200D02*
X188836303Y-102739819D01*
X188836303Y-102739819D02*
X188645827Y-102739819D01*
X188645827Y-102739819D02*
X188550589Y-102692200D01*
X188550589Y-102692200D02*
X188502970Y-102596961D01*
X188502970Y-102596961D02*
X188502970Y-102216009D01*
X188502970Y-102216009D02*
X188550589Y-102120771D01*
X188550589Y-102120771D02*
X188645827Y-102073152D01*
X188645827Y-102073152D02*
X188836303Y-102073152D01*
X188836303Y-102073152D02*
X188931541Y-102120771D01*
X188931541Y-102120771D02*
X188979160Y-102216009D01*
X188979160Y-102216009D02*
X188979160Y-102311247D01*
X188979160Y-102311247D02*
X188502970Y-102406485D01*
X189836303Y-102692200D02*
X189741065Y-102739819D01*
X189741065Y-102739819D02*
X189550589Y-102739819D01*
X189550589Y-102739819D02*
X189455351Y-102692200D01*
X189455351Y-102692200D02*
X189407732Y-102644580D01*
X189407732Y-102644580D02*
X189360113Y-102549342D01*
X189360113Y-102549342D02*
X189360113Y-102263628D01*
X189360113Y-102263628D02*
X189407732Y-102168390D01*
X189407732Y-102168390D02*
X189455351Y-102120771D01*
X189455351Y-102120771D02*
X189550589Y-102073152D01*
X189550589Y-102073152D02*
X189741065Y-102073152D01*
X189741065Y-102073152D02*
X189836303Y-102120771D01*
X190264875Y-102739819D02*
X190264875Y-101739819D01*
X190360113Y-102358866D02*
X190645827Y-102739819D01*
X190645827Y-102073152D02*
X190264875Y-102454104D01*
X191502970Y-102739819D02*
X191502970Y-101739819D01*
X191502970Y-102692200D02*
X191407732Y-102739819D01*
X191407732Y-102739819D02*
X191217256Y-102739819D01*
X191217256Y-102739819D02*
X191122018Y-102692200D01*
X191122018Y-102692200D02*
X191074399Y-102644580D01*
X191074399Y-102644580D02*
X191026780Y-102549342D01*
X191026780Y-102549342D02*
X191026780Y-102263628D01*
X191026780Y-102263628D02*
X191074399Y-102168390D01*
X191074399Y-102168390D02*
X191122018Y-102120771D01*
X191122018Y-102120771D02*
X191217256Y-102073152D01*
X191217256Y-102073152D02*
X191407732Y-102073152D01*
X191407732Y-102073152D02*
X191502970Y-102120771D01*
X192122018Y-102739819D02*
X192026780Y-102692200D01*
X192026780Y-102692200D02*
X191979161Y-102644580D01*
X191979161Y-102644580D02*
X191931542Y-102549342D01*
X191931542Y-102549342D02*
X191931542Y-102263628D01*
X191931542Y-102263628D02*
X191979161Y-102168390D01*
X191979161Y-102168390D02*
X192026780Y-102120771D01*
X192026780Y-102120771D02*
X192122018Y-102073152D01*
X192122018Y-102073152D02*
X192264875Y-102073152D01*
X192264875Y-102073152D02*
X192360113Y-102120771D01*
X192360113Y-102120771D02*
X192407732Y-102168390D01*
X192407732Y-102168390D02*
X192455351Y-102263628D01*
X192455351Y-102263628D02*
X192455351Y-102549342D01*
X192455351Y-102549342D02*
X192407732Y-102644580D01*
X192407732Y-102644580D02*
X192360113Y-102692200D01*
X192360113Y-102692200D02*
X192264875Y-102739819D01*
X192264875Y-102739819D02*
X192122018Y-102739819D01*
X192836304Y-102692200D02*
X192931542Y-102739819D01*
X192931542Y-102739819D02*
X193122018Y-102739819D01*
X193122018Y-102739819D02*
X193217256Y-102692200D01*
X193217256Y-102692200D02*
X193264875Y-102596961D01*
X193264875Y-102596961D02*
X193264875Y-102549342D01*
X193264875Y-102549342D02*
X193217256Y-102454104D01*
X193217256Y-102454104D02*
X193122018Y-102406485D01*
X193122018Y-102406485D02*
X192979161Y-102406485D01*
X192979161Y-102406485D02*
X192883923Y-102358866D01*
X192883923Y-102358866D02*
X192836304Y-102263628D01*
X192836304Y-102263628D02*
X192836304Y-102216009D01*
X192836304Y-102216009D02*
X192883923Y-102120771D01*
X192883923Y-102120771D02*
X192979161Y-102073152D01*
X192979161Y-102073152D02*
X193122018Y-102073152D01*
X193122018Y-102073152D02*
X193217256Y-102120771D01*
X194074399Y-102692200D02*
X193979161Y-102739819D01*
X193979161Y-102739819D02*
X193788685Y-102739819D01*
X193788685Y-102739819D02*
X193693447Y-102692200D01*
X193693447Y-102692200D02*
X193645828Y-102596961D01*
X193645828Y-102596961D02*
X193645828Y-102216009D01*
X193645828Y-102216009D02*
X193693447Y-102120771D01*
X193693447Y-102120771D02*
X193788685Y-102073152D01*
X193788685Y-102073152D02*
X193979161Y-102073152D01*
X193979161Y-102073152D02*
X194074399Y-102120771D01*
X194074399Y-102120771D02*
X194122018Y-102216009D01*
X194122018Y-102216009D02*
X194122018Y-102311247D01*
X194122018Y-102311247D02*
X193645828Y-102406485D01*
X182232493Y-65839819D02*
X182232493Y-66554104D01*
X182232493Y-66554104D02*
X182184874Y-66696961D01*
X182184874Y-66696961D02*
X182089636Y-66792200D01*
X182089636Y-66792200D02*
X181946779Y-66839819D01*
X181946779Y-66839819D02*
X181851541Y-66839819D01*
X183137255Y-66173152D02*
X183137255Y-66839819D01*
X182899160Y-65792200D02*
X182661065Y-66506485D01*
X182661065Y-66506485D02*
X183280112Y-66506485D01*
X184375351Y-66554104D02*
X184851541Y-66554104D01*
X184280113Y-66839819D02*
X184613446Y-65839819D01*
X184613446Y-65839819D02*
X184946779Y-66839819D01*
X185280113Y-66173152D02*
X185280113Y-66839819D01*
X185280113Y-66268390D02*
X185327732Y-66220771D01*
X185327732Y-66220771D02*
X185422970Y-66173152D01*
X185422970Y-66173152D02*
X185565827Y-66173152D01*
X185565827Y-66173152D02*
X185661065Y-66220771D01*
X185661065Y-66220771D02*
X185708684Y-66316009D01*
X185708684Y-66316009D02*
X185708684Y-66839819D01*
X186137256Y-66792200D02*
X186232494Y-66839819D01*
X186232494Y-66839819D02*
X186422970Y-66839819D01*
X186422970Y-66839819D02*
X186518208Y-66792200D01*
X186518208Y-66792200D02*
X186565827Y-66696961D01*
X186565827Y-66696961D02*
X186565827Y-66649342D01*
X186565827Y-66649342D02*
X186518208Y-66554104D01*
X186518208Y-66554104D02*
X186422970Y-66506485D01*
X186422970Y-66506485D02*
X186280113Y-66506485D01*
X186280113Y-66506485D02*
X186184875Y-66458866D01*
X186184875Y-66458866D02*
X186137256Y-66363628D01*
X186137256Y-66363628D02*
X186137256Y-66316009D01*
X186137256Y-66316009D02*
X186184875Y-66220771D01*
X186184875Y-66220771D02*
X186280113Y-66173152D01*
X186280113Y-66173152D02*
X186422970Y-66173152D01*
X186422970Y-66173152D02*
X186518208Y-66220771D01*
X187422970Y-66792200D02*
X187327732Y-66839819D01*
X187327732Y-66839819D02*
X187137256Y-66839819D01*
X187137256Y-66839819D02*
X187042018Y-66792200D01*
X187042018Y-66792200D02*
X186994399Y-66744580D01*
X186994399Y-66744580D02*
X186946780Y-66649342D01*
X186946780Y-66649342D02*
X186946780Y-66363628D01*
X186946780Y-66363628D02*
X186994399Y-66268390D01*
X186994399Y-66268390D02*
X187042018Y-66220771D01*
X187042018Y-66220771D02*
X187137256Y-66173152D01*
X187137256Y-66173152D02*
X187327732Y-66173152D01*
X187327732Y-66173152D02*
X187422970Y-66220771D01*
X187851542Y-66839819D02*
X187851542Y-65839819D01*
X188280113Y-66839819D02*
X188280113Y-66316009D01*
X188280113Y-66316009D02*
X188232494Y-66220771D01*
X188232494Y-66220771D02*
X188137256Y-66173152D01*
X188137256Y-66173152D02*
X187994399Y-66173152D01*
X187994399Y-66173152D02*
X187899161Y-66220771D01*
X187899161Y-66220771D02*
X187851542Y-66268390D01*
X188899161Y-66839819D02*
X188803923Y-66792200D01*
X188803923Y-66792200D02*
X188756304Y-66696961D01*
X188756304Y-66696961D02*
X188756304Y-65839819D01*
X189708685Y-66173152D02*
X189708685Y-66839819D01*
X189280114Y-66173152D02*
X189280114Y-66696961D01*
X189280114Y-66696961D02*
X189327733Y-66792200D01*
X189327733Y-66792200D02*
X189422971Y-66839819D01*
X189422971Y-66839819D02*
X189565828Y-66839819D01*
X189565828Y-66839819D02*
X189661066Y-66792200D01*
X189661066Y-66792200D02*
X189708685Y-66744580D01*
X190137257Y-66792200D02*
X190232495Y-66839819D01*
X190232495Y-66839819D02*
X190422971Y-66839819D01*
X190422971Y-66839819D02*
X190518209Y-66792200D01*
X190518209Y-66792200D02*
X190565828Y-66696961D01*
X190565828Y-66696961D02*
X190565828Y-66649342D01*
X190565828Y-66649342D02*
X190518209Y-66554104D01*
X190518209Y-66554104D02*
X190422971Y-66506485D01*
X190422971Y-66506485D02*
X190280114Y-66506485D01*
X190280114Y-66506485D02*
X190184876Y-66458866D01*
X190184876Y-66458866D02*
X190137257Y-66363628D01*
X190137257Y-66363628D02*
X190137257Y-66316009D01*
X190137257Y-66316009D02*
X190184876Y-66220771D01*
X190184876Y-66220771D02*
X190280114Y-66173152D01*
X190280114Y-66173152D02*
X190422971Y-66173152D01*
X190422971Y-66173152D02*
X190518209Y-66220771D01*
X190946781Y-66792200D02*
X191042019Y-66839819D01*
X191042019Y-66839819D02*
X191232495Y-66839819D01*
X191232495Y-66839819D02*
X191327733Y-66792200D01*
X191327733Y-66792200D02*
X191375352Y-66696961D01*
X191375352Y-66696961D02*
X191375352Y-66649342D01*
X191375352Y-66649342D02*
X191327733Y-66554104D01*
X191327733Y-66554104D02*
X191232495Y-66506485D01*
X191232495Y-66506485D02*
X191089638Y-66506485D01*
X191089638Y-66506485D02*
X190994400Y-66458866D01*
X190994400Y-66458866D02*
X190946781Y-66363628D01*
X190946781Y-66363628D02*
X190946781Y-66316009D01*
X190946781Y-66316009D02*
X190994400Y-66220771D01*
X190994400Y-66220771D02*
X191089638Y-66173152D01*
X191089638Y-66173152D02*
X191232495Y-66173152D01*
X191232495Y-66173152D02*
X191327733Y-66220771D01*
X182137255Y-67449819D02*
X182327731Y-67449819D01*
X182327731Y-67449819D02*
X182422969Y-67497438D01*
X182422969Y-67497438D02*
X182518207Y-67592676D01*
X182518207Y-67592676D02*
X182565826Y-67783152D01*
X182565826Y-67783152D02*
X182565826Y-68116485D01*
X182565826Y-68116485D02*
X182518207Y-68306961D01*
X182518207Y-68306961D02*
X182422969Y-68402200D01*
X182422969Y-68402200D02*
X182327731Y-68449819D01*
X182327731Y-68449819D02*
X182137255Y-68449819D01*
X182137255Y-68449819D02*
X182042017Y-68402200D01*
X182042017Y-68402200D02*
X181946779Y-68306961D01*
X181946779Y-68306961D02*
X181899160Y-68116485D01*
X181899160Y-68116485D02*
X181899160Y-67783152D01*
X181899160Y-67783152D02*
X181946779Y-67592676D01*
X181946779Y-67592676D02*
X182042017Y-67497438D01*
X182042017Y-67497438D02*
X182137255Y-67449819D01*
X182851541Y-67783152D02*
X183232493Y-67783152D01*
X182994398Y-68449819D02*
X182994398Y-67592676D01*
X182994398Y-67592676D02*
X183042017Y-67497438D01*
X183042017Y-67497438D02*
X183137255Y-67449819D01*
X183137255Y-67449819D02*
X183232493Y-67449819D01*
X183946779Y-68402200D02*
X183851541Y-68449819D01*
X183851541Y-68449819D02*
X183661065Y-68449819D01*
X183661065Y-68449819D02*
X183565827Y-68402200D01*
X183565827Y-68402200D02*
X183518208Y-68306961D01*
X183518208Y-68306961D02*
X183518208Y-67926009D01*
X183518208Y-67926009D02*
X183565827Y-67830771D01*
X183565827Y-67830771D02*
X183661065Y-67783152D01*
X183661065Y-67783152D02*
X183851541Y-67783152D01*
X183851541Y-67783152D02*
X183946779Y-67830771D01*
X183946779Y-67830771D02*
X183994398Y-67926009D01*
X183994398Y-67926009D02*
X183994398Y-68021247D01*
X183994398Y-68021247D02*
X183518208Y-68116485D01*
X184422970Y-67783152D02*
X184422970Y-68449819D01*
X184422970Y-67878390D02*
X184470589Y-67830771D01*
X184470589Y-67830771D02*
X184565827Y-67783152D01*
X184565827Y-67783152D02*
X184708684Y-67783152D01*
X184708684Y-67783152D02*
X184803922Y-67830771D01*
X184803922Y-67830771D02*
X184851541Y-67926009D01*
X184851541Y-67926009D02*
X184851541Y-68449819D01*
X115652779Y-96135819D02*
X115652779Y-95135819D01*
X115652779Y-95135819D02*
X116033731Y-95135819D01*
X116033731Y-95135819D02*
X116128969Y-95183438D01*
X116128969Y-95183438D02*
X116176588Y-95231057D01*
X116176588Y-95231057D02*
X116224207Y-95326295D01*
X116224207Y-95326295D02*
X116224207Y-95469152D01*
X116224207Y-95469152D02*
X116176588Y-95564390D01*
X116176588Y-95564390D02*
X116128969Y-95612009D01*
X116128969Y-95612009D02*
X116033731Y-95659628D01*
X116033731Y-95659628D02*
X115652779Y-95659628D01*
X116652779Y-96135819D02*
X116652779Y-95135819D01*
X116652779Y-95135819D02*
X116986112Y-95850104D01*
X116986112Y-95850104D02*
X117319445Y-95135819D01*
X117319445Y-95135819D02*
X117319445Y-96135819D01*
X117700398Y-95135819D02*
X117938493Y-96135819D01*
X117938493Y-96135819D02*
X118128969Y-95421533D01*
X118128969Y-95421533D02*
X118319445Y-96135819D01*
X118319445Y-96135819D02*
X118557541Y-95135819D01*
X120128969Y-95469152D02*
X120128969Y-96135819D01*
X119700398Y-95469152D02*
X119700398Y-95992961D01*
X119700398Y-95992961D02*
X119748017Y-96088200D01*
X119748017Y-96088200D02*
X119843255Y-96135819D01*
X119843255Y-96135819D02*
X119986112Y-96135819D01*
X119986112Y-96135819D02*
X120081350Y-96088200D01*
X120081350Y-96088200D02*
X120128969Y-96040580D01*
X121176588Y-96040580D02*
X121128969Y-96088200D01*
X121128969Y-96088200D02*
X120986112Y-96135819D01*
X120986112Y-96135819D02*
X120890874Y-96135819D01*
X120890874Y-96135819D02*
X120748017Y-96088200D01*
X120748017Y-96088200D02*
X120652779Y-95992961D01*
X120652779Y-95992961D02*
X120605160Y-95897723D01*
X120605160Y-95897723D02*
X120557541Y-95707247D01*
X120557541Y-95707247D02*
X120557541Y-95564390D01*
X120557541Y-95564390D02*
X120605160Y-95373914D01*
X120605160Y-95373914D02*
X120652779Y-95278676D01*
X120652779Y-95278676D02*
X120748017Y-95183438D01*
X120748017Y-95183438D02*
X120890874Y-95135819D01*
X120890874Y-95135819D02*
X120986112Y-95135819D01*
X120986112Y-95135819D02*
X121128969Y-95183438D01*
X121128969Y-95183438D02*
X121176588Y-95231057D01*
X166278112Y-117456009D02*
X165944779Y-117456009D01*
X165944779Y-117979819D02*
X165944779Y-116979819D01*
X165944779Y-116979819D02*
X166420969Y-116979819D01*
X167230493Y-117313152D02*
X167230493Y-117979819D01*
X166801922Y-117313152D02*
X166801922Y-117836961D01*
X166801922Y-117836961D02*
X166849541Y-117932200D01*
X166849541Y-117932200D02*
X166944779Y-117979819D01*
X166944779Y-117979819D02*
X167087636Y-117979819D01*
X167087636Y-117979819D02*
X167182874Y-117932200D01*
X167182874Y-117932200D02*
X167230493Y-117884580D01*
X167659065Y-117932200D02*
X167754303Y-117979819D01*
X167754303Y-117979819D02*
X167944779Y-117979819D01*
X167944779Y-117979819D02*
X168040017Y-117932200D01*
X168040017Y-117932200D02*
X168087636Y-117836961D01*
X168087636Y-117836961D02*
X168087636Y-117789342D01*
X168087636Y-117789342D02*
X168040017Y-117694104D01*
X168040017Y-117694104D02*
X167944779Y-117646485D01*
X167944779Y-117646485D02*
X167801922Y-117646485D01*
X167801922Y-117646485D02*
X167706684Y-117598866D01*
X167706684Y-117598866D02*
X167659065Y-117503628D01*
X167659065Y-117503628D02*
X167659065Y-117456009D01*
X167659065Y-117456009D02*
X167706684Y-117360771D01*
X167706684Y-117360771D02*
X167801922Y-117313152D01*
X167801922Y-117313152D02*
X167944779Y-117313152D01*
X167944779Y-117313152D02*
X168040017Y-117360771D01*
X168897160Y-117932200D02*
X168801922Y-117979819D01*
X168801922Y-117979819D02*
X168611446Y-117979819D01*
X168611446Y-117979819D02*
X168516208Y-117932200D01*
X168516208Y-117932200D02*
X168468589Y-117836961D01*
X168468589Y-117836961D02*
X168468589Y-117456009D01*
X168468589Y-117456009D02*
X168516208Y-117360771D01*
X168516208Y-117360771D02*
X168611446Y-117313152D01*
X168611446Y-117313152D02*
X168801922Y-117313152D01*
X168801922Y-117313152D02*
X168897160Y-117360771D01*
X168897160Y-117360771D02*
X168944779Y-117456009D01*
X168944779Y-117456009D02*
X168944779Y-117551247D01*
X168944779Y-117551247D02*
X168468589Y-117646485D01*
X162198207Y-67179819D02*
X161864874Y-66703628D01*
X161626779Y-67179819D02*
X161626779Y-66179819D01*
X161626779Y-66179819D02*
X162007731Y-66179819D01*
X162007731Y-66179819D02*
X162102969Y-66227438D01*
X162102969Y-66227438D02*
X162150588Y-66275057D01*
X162150588Y-66275057D02*
X162198207Y-66370295D01*
X162198207Y-66370295D02*
X162198207Y-66513152D01*
X162198207Y-66513152D02*
X162150588Y-66608390D01*
X162150588Y-66608390D02*
X162102969Y-66656009D01*
X162102969Y-66656009D02*
X162007731Y-66703628D01*
X162007731Y-66703628D02*
X161626779Y-66703628D01*
X163007731Y-67132200D02*
X162912493Y-67179819D01*
X162912493Y-67179819D02*
X162722017Y-67179819D01*
X162722017Y-67179819D02*
X162626779Y-67132200D01*
X162626779Y-67132200D02*
X162579160Y-67036961D01*
X162579160Y-67036961D02*
X162579160Y-66656009D01*
X162579160Y-66656009D02*
X162626779Y-66560771D01*
X162626779Y-66560771D02*
X162722017Y-66513152D01*
X162722017Y-66513152D02*
X162912493Y-66513152D01*
X162912493Y-66513152D02*
X163007731Y-66560771D01*
X163007731Y-66560771D02*
X163055350Y-66656009D01*
X163055350Y-66656009D02*
X163055350Y-66751247D01*
X163055350Y-66751247D02*
X162579160Y-66846485D01*
X163626779Y-67179819D02*
X163531541Y-67132200D01*
X163531541Y-67132200D02*
X163483922Y-67036961D01*
X163483922Y-67036961D02*
X163483922Y-66179819D01*
X164436303Y-67179819D02*
X164436303Y-66656009D01*
X164436303Y-66656009D02*
X164388684Y-66560771D01*
X164388684Y-66560771D02*
X164293446Y-66513152D01*
X164293446Y-66513152D02*
X164102970Y-66513152D01*
X164102970Y-66513152D02*
X164007732Y-66560771D01*
X164436303Y-67132200D02*
X164341065Y-67179819D01*
X164341065Y-67179819D02*
X164102970Y-67179819D01*
X164102970Y-67179819D02*
X164007732Y-67132200D01*
X164007732Y-67132200D02*
X163960113Y-67036961D01*
X163960113Y-67036961D02*
X163960113Y-66941723D01*
X163960113Y-66941723D02*
X164007732Y-66846485D01*
X164007732Y-66846485D02*
X164102970Y-66798866D01*
X164102970Y-66798866D02*
X164341065Y-66798866D01*
X164341065Y-66798866D02*
X164436303Y-66751247D01*
X164912494Y-67179819D02*
X164912494Y-66513152D01*
X164912494Y-66179819D02*
X164864875Y-66227438D01*
X164864875Y-66227438D02*
X164912494Y-66275057D01*
X164912494Y-66275057D02*
X164960113Y-66227438D01*
X164960113Y-66227438D02*
X164912494Y-66179819D01*
X164912494Y-66179819D02*
X164912494Y-66275057D01*
X165341065Y-67132200D02*
X165436303Y-67179819D01*
X165436303Y-67179819D02*
X165626779Y-67179819D01*
X165626779Y-67179819D02*
X165722017Y-67132200D01*
X165722017Y-67132200D02*
X165769636Y-67036961D01*
X165769636Y-67036961D02*
X165769636Y-66989342D01*
X165769636Y-66989342D02*
X165722017Y-66894104D01*
X165722017Y-66894104D02*
X165626779Y-66846485D01*
X165626779Y-66846485D02*
X165483922Y-66846485D01*
X165483922Y-66846485D02*
X165388684Y-66798866D01*
X165388684Y-66798866D02*
X165341065Y-66703628D01*
X165341065Y-66703628D02*
X165341065Y-66656009D01*
X165341065Y-66656009D02*
X165388684Y-66560771D01*
X165388684Y-66560771D02*
X165483922Y-66513152D01*
X165483922Y-66513152D02*
X165626779Y-66513152D01*
X165626779Y-66513152D02*
X165722017Y-66560771D01*
X197989819Y-98723220D02*
X196989819Y-98723220D01*
X196989819Y-98723220D02*
X197989819Y-98151792D01*
X197989819Y-98151792D02*
X196989819Y-98151792D01*
X197942200Y-97294649D02*
X197989819Y-97389887D01*
X197989819Y-97389887D02*
X197989819Y-97580363D01*
X197989819Y-97580363D02*
X197942200Y-97675601D01*
X197942200Y-97675601D02*
X197846961Y-97723220D01*
X197846961Y-97723220D02*
X197466009Y-97723220D01*
X197466009Y-97723220D02*
X197370771Y-97675601D01*
X197370771Y-97675601D02*
X197323152Y-97580363D01*
X197323152Y-97580363D02*
X197323152Y-97389887D01*
X197323152Y-97389887D02*
X197370771Y-97294649D01*
X197370771Y-97294649D02*
X197466009Y-97247030D01*
X197466009Y-97247030D02*
X197561247Y-97247030D01*
X197561247Y-97247030D02*
X197656485Y-97723220D01*
X197323152Y-96389887D02*
X197989819Y-96389887D01*
X197323152Y-96818458D02*
X197846961Y-96818458D01*
X197846961Y-96818458D02*
X197942200Y-96770839D01*
X197942200Y-96770839D02*
X197989819Y-96675601D01*
X197989819Y-96675601D02*
X197989819Y-96532744D01*
X197989819Y-96532744D02*
X197942200Y-96437506D01*
X197942200Y-96437506D02*
X197894580Y-96389887D01*
X197323152Y-96056553D02*
X197323152Y-95675601D01*
X196989819Y-95913696D02*
X197846961Y-95913696D01*
X197846961Y-95913696D02*
X197942200Y-95866077D01*
X197942200Y-95866077D02*
X197989819Y-95770839D01*
X197989819Y-95770839D02*
X197989819Y-95675601D01*
X197989819Y-95342267D02*
X197323152Y-95342267D01*
X197513628Y-95342267D02*
X197418390Y-95294648D01*
X197418390Y-95294648D02*
X197370771Y-95247029D01*
X197370771Y-95247029D02*
X197323152Y-95151791D01*
X197323152Y-95151791D02*
X197323152Y-95056553D01*
X197989819Y-94294648D02*
X197466009Y-94294648D01*
X197466009Y-94294648D02*
X197370771Y-94342267D01*
X197370771Y-94342267D02*
X197323152Y-94437505D01*
X197323152Y-94437505D02*
X197323152Y-94627981D01*
X197323152Y-94627981D02*
X197370771Y-94723219D01*
X197942200Y-94294648D02*
X197989819Y-94389886D01*
X197989819Y-94389886D02*
X197989819Y-94627981D01*
X197989819Y-94627981D02*
X197942200Y-94723219D01*
X197942200Y-94723219D02*
X197846961Y-94770838D01*
X197846961Y-94770838D02*
X197751723Y-94770838D01*
X197751723Y-94770838D02*
X197656485Y-94723219D01*
X197656485Y-94723219D02*
X197608866Y-94627981D01*
X197608866Y-94627981D02*
X197608866Y-94389886D01*
X197608866Y-94389886D02*
X197561247Y-94294648D01*
X197989819Y-93675600D02*
X197942200Y-93770838D01*
X197942200Y-93770838D02*
X197846961Y-93818457D01*
X197846961Y-93818457D02*
X196989819Y-93818457D01*
X124002969Y-109339819D02*
X123526779Y-109339819D01*
X123526779Y-109339819D02*
X123526779Y-108339819D01*
X124336303Y-108816009D02*
X124669636Y-108816009D01*
X124812493Y-109339819D02*
X124336303Y-109339819D01*
X124336303Y-109339819D02*
X124336303Y-108339819D01*
X124336303Y-108339819D02*
X124812493Y-108339819D01*
X125241065Y-109339819D02*
X125241065Y-108339819D01*
X125241065Y-108339819D02*
X125479160Y-108339819D01*
X125479160Y-108339819D02*
X125622017Y-108387438D01*
X125622017Y-108387438D02*
X125717255Y-108482676D01*
X125717255Y-108482676D02*
X125764874Y-108577914D01*
X125764874Y-108577914D02*
X125812493Y-108768390D01*
X125812493Y-108768390D02*
X125812493Y-108911247D01*
X125812493Y-108911247D02*
X125764874Y-109101723D01*
X125764874Y-109101723D02*
X125717255Y-109196961D01*
X125717255Y-109196961D02*
X125622017Y-109292200D01*
X125622017Y-109292200D02*
X125479160Y-109339819D01*
X125479160Y-109339819D02*
X125241065Y-109339819D01*
X126193446Y-109292200D02*
X126288684Y-109339819D01*
X126288684Y-109339819D02*
X126479160Y-109339819D01*
X126479160Y-109339819D02*
X126574398Y-109292200D01*
X126574398Y-109292200D02*
X126622017Y-109196961D01*
X126622017Y-109196961D02*
X126622017Y-109149342D01*
X126622017Y-109149342D02*
X126574398Y-109054104D01*
X126574398Y-109054104D02*
X126479160Y-109006485D01*
X126479160Y-109006485D02*
X126336303Y-109006485D01*
X126336303Y-109006485D02*
X126241065Y-108958866D01*
X126241065Y-108958866D02*
X126193446Y-108863628D01*
X126193446Y-108863628D02*
X126193446Y-108816009D01*
X126193446Y-108816009D02*
X126241065Y-108720771D01*
X126241065Y-108720771D02*
X126336303Y-108673152D01*
X126336303Y-108673152D02*
X126479160Y-108673152D01*
X126479160Y-108673152D02*
X126574398Y-108720771D01*
X127050589Y-109244580D02*
X127098208Y-109292200D01*
X127098208Y-109292200D02*
X127050589Y-109339819D01*
X127050589Y-109339819D02*
X127002970Y-109292200D01*
X127002970Y-109292200D02*
X127050589Y-109244580D01*
X127050589Y-109244580D02*
X127050589Y-109339819D01*
X127050589Y-108720771D02*
X127098208Y-108768390D01*
X127098208Y-108768390D02*
X127050589Y-108816009D01*
X127050589Y-108816009D02*
X127002970Y-108768390D01*
X127002970Y-108768390D02*
X127050589Y-108720771D01*
X127050589Y-108720771D02*
X127050589Y-108816009D01*
X123955350Y-110283152D02*
X123955350Y-111092676D01*
X123955350Y-111092676D02*
X123907731Y-111187914D01*
X123907731Y-111187914D02*
X123860112Y-111235533D01*
X123860112Y-111235533D02*
X123764874Y-111283152D01*
X123764874Y-111283152D02*
X123622017Y-111283152D01*
X123622017Y-111283152D02*
X123526779Y-111235533D01*
X123955350Y-110902200D02*
X123860112Y-110949819D01*
X123860112Y-110949819D02*
X123669636Y-110949819D01*
X123669636Y-110949819D02*
X123574398Y-110902200D01*
X123574398Y-110902200D02*
X123526779Y-110854580D01*
X123526779Y-110854580D02*
X123479160Y-110759342D01*
X123479160Y-110759342D02*
X123479160Y-110473628D01*
X123479160Y-110473628D02*
X123526779Y-110378390D01*
X123526779Y-110378390D02*
X123574398Y-110330771D01*
X123574398Y-110330771D02*
X123669636Y-110283152D01*
X123669636Y-110283152D02*
X123860112Y-110283152D01*
X123860112Y-110283152D02*
X123955350Y-110330771D01*
X124431541Y-110949819D02*
X124431541Y-110283152D01*
X124431541Y-110473628D02*
X124479160Y-110378390D01*
X124479160Y-110378390D02*
X124526779Y-110330771D01*
X124526779Y-110330771D02*
X124622017Y-110283152D01*
X124622017Y-110283152D02*
X124717255Y-110283152D01*
X125479160Y-110283152D02*
X125479160Y-110949819D01*
X125050589Y-110283152D02*
X125050589Y-110806961D01*
X125050589Y-110806961D02*
X125098208Y-110902200D01*
X125098208Y-110902200D02*
X125193446Y-110949819D01*
X125193446Y-110949819D02*
X125336303Y-110949819D01*
X125336303Y-110949819D02*
X125431541Y-110902200D01*
X125431541Y-110902200D02*
X125479160Y-110854580D01*
X126336303Y-110902200D02*
X126241065Y-110949819D01*
X126241065Y-110949819D02*
X126050589Y-110949819D01*
X126050589Y-110949819D02*
X125955351Y-110902200D01*
X125955351Y-110902200D02*
X125907732Y-110806961D01*
X125907732Y-110806961D02*
X125907732Y-110426009D01*
X125907732Y-110426009D02*
X125955351Y-110330771D01*
X125955351Y-110330771D02*
X126050589Y-110283152D01*
X126050589Y-110283152D02*
X126241065Y-110283152D01*
X126241065Y-110283152D02*
X126336303Y-110330771D01*
X126336303Y-110330771D02*
X126383922Y-110426009D01*
X126383922Y-110426009D02*
X126383922Y-110521247D01*
X126383922Y-110521247D02*
X125907732Y-110616485D01*
X126812494Y-110283152D02*
X126812494Y-110949819D01*
X126812494Y-110378390D02*
X126860113Y-110330771D01*
X126860113Y-110330771D02*
X126955351Y-110283152D01*
X126955351Y-110283152D02*
X127098208Y-110283152D01*
X127098208Y-110283152D02*
X127193446Y-110330771D01*
X127193446Y-110330771D02*
X127241065Y-110426009D01*
X127241065Y-110426009D02*
X127241065Y-110949819D01*
X127717256Y-110854580D02*
X127764875Y-110902200D01*
X127764875Y-110902200D02*
X127717256Y-110949819D01*
X127717256Y-110949819D02*
X127669637Y-110902200D01*
X127669637Y-110902200D02*
X127717256Y-110854580D01*
X127717256Y-110854580D02*
X127717256Y-110949819D01*
X127717256Y-110330771D02*
X127764875Y-110378390D01*
X127764875Y-110378390D02*
X127717256Y-110426009D01*
X127717256Y-110426009D02*
X127669637Y-110378390D01*
X127669637Y-110378390D02*
X127717256Y-110330771D01*
X127717256Y-110330771D02*
X127717256Y-110426009D01*
X128955351Y-110568866D02*
X129717256Y-110568866D01*
X129336303Y-110949819D02*
X129336303Y-110187914D01*
X130669636Y-109949819D02*
X130193446Y-109949819D01*
X130193446Y-109949819D02*
X130145827Y-110426009D01*
X130145827Y-110426009D02*
X130193446Y-110378390D01*
X130193446Y-110378390D02*
X130288684Y-110330771D01*
X130288684Y-110330771D02*
X130526779Y-110330771D01*
X130526779Y-110330771D02*
X130622017Y-110378390D01*
X130622017Y-110378390D02*
X130669636Y-110426009D01*
X130669636Y-110426009D02*
X130717255Y-110521247D01*
X130717255Y-110521247D02*
X130717255Y-110759342D01*
X130717255Y-110759342D02*
X130669636Y-110854580D01*
X130669636Y-110854580D02*
X130622017Y-110902200D01*
X130622017Y-110902200D02*
X130526779Y-110949819D01*
X130526779Y-110949819D02*
X130288684Y-110949819D01*
X130288684Y-110949819D02*
X130193446Y-110902200D01*
X130193446Y-110902200D02*
X130145827Y-110854580D01*
X131002970Y-109949819D02*
X131336303Y-110949819D01*
X131336303Y-110949819D02*
X131669636Y-109949819D01*
X123955350Y-111893152D02*
X123955350Y-112702676D01*
X123955350Y-112702676D02*
X123907731Y-112797914D01*
X123907731Y-112797914D02*
X123860112Y-112845533D01*
X123860112Y-112845533D02*
X123764874Y-112893152D01*
X123764874Y-112893152D02*
X123622017Y-112893152D01*
X123622017Y-112893152D02*
X123526779Y-112845533D01*
X123955350Y-112512200D02*
X123860112Y-112559819D01*
X123860112Y-112559819D02*
X123669636Y-112559819D01*
X123669636Y-112559819D02*
X123574398Y-112512200D01*
X123574398Y-112512200D02*
X123526779Y-112464580D01*
X123526779Y-112464580D02*
X123479160Y-112369342D01*
X123479160Y-112369342D02*
X123479160Y-112083628D01*
X123479160Y-112083628D02*
X123526779Y-111988390D01*
X123526779Y-111988390D02*
X123574398Y-111940771D01*
X123574398Y-111940771D02*
X123669636Y-111893152D01*
X123669636Y-111893152D02*
X123860112Y-111893152D01*
X123860112Y-111893152D02*
X123955350Y-111940771D01*
X124812493Y-112512200D02*
X124717255Y-112559819D01*
X124717255Y-112559819D02*
X124526779Y-112559819D01*
X124526779Y-112559819D02*
X124431541Y-112512200D01*
X124431541Y-112512200D02*
X124383922Y-112416961D01*
X124383922Y-112416961D02*
X124383922Y-112036009D01*
X124383922Y-112036009D02*
X124431541Y-111940771D01*
X124431541Y-111940771D02*
X124526779Y-111893152D01*
X124526779Y-111893152D02*
X124717255Y-111893152D01*
X124717255Y-111893152D02*
X124812493Y-111940771D01*
X124812493Y-111940771D02*
X124860112Y-112036009D01*
X124860112Y-112036009D02*
X124860112Y-112131247D01*
X124860112Y-112131247D02*
X124383922Y-112226485D01*
X125431541Y-112559819D02*
X125336303Y-112512200D01*
X125336303Y-112512200D02*
X125288684Y-112416961D01*
X125288684Y-112416961D02*
X125288684Y-111559819D01*
X125812494Y-112559819D02*
X125812494Y-111559819D01*
X125812494Y-111940771D02*
X125907732Y-111893152D01*
X125907732Y-111893152D02*
X126098208Y-111893152D01*
X126098208Y-111893152D02*
X126193446Y-111940771D01*
X126193446Y-111940771D02*
X126241065Y-111988390D01*
X126241065Y-111988390D02*
X126288684Y-112083628D01*
X126288684Y-112083628D02*
X126288684Y-112369342D01*
X126288684Y-112369342D02*
X126241065Y-112464580D01*
X126241065Y-112464580D02*
X126193446Y-112512200D01*
X126193446Y-112512200D02*
X126098208Y-112559819D01*
X126098208Y-112559819D02*
X125907732Y-112559819D01*
X125907732Y-112559819D02*
X125812494Y-112512200D01*
X126717256Y-112464580D02*
X126764875Y-112512200D01*
X126764875Y-112512200D02*
X126717256Y-112559819D01*
X126717256Y-112559819D02*
X126669637Y-112512200D01*
X126669637Y-112512200D02*
X126717256Y-112464580D01*
X126717256Y-112464580D02*
X126717256Y-112559819D01*
X126717256Y-111940771D02*
X126764875Y-111988390D01*
X126764875Y-111988390D02*
X126717256Y-112036009D01*
X126717256Y-112036009D02*
X126669637Y-111988390D01*
X126669637Y-111988390D02*
X126717256Y-111940771D01*
X126717256Y-111940771D02*
X126717256Y-112036009D01*
X127955351Y-112559819D02*
X127955351Y-111559819D01*
X127955351Y-111559819D02*
X128336303Y-111559819D01*
X128336303Y-111559819D02*
X128431541Y-111607438D01*
X128431541Y-111607438D02*
X128479160Y-111655057D01*
X128479160Y-111655057D02*
X128526779Y-111750295D01*
X128526779Y-111750295D02*
X128526779Y-111893152D01*
X128526779Y-111893152D02*
X128479160Y-111988390D01*
X128479160Y-111988390D02*
X128431541Y-112036009D01*
X128431541Y-112036009D02*
X128336303Y-112083628D01*
X128336303Y-112083628D02*
X127955351Y-112083628D01*
X128860113Y-111559819D02*
X129098208Y-112559819D01*
X129098208Y-112559819D02*
X129288684Y-111845533D01*
X129288684Y-111845533D02*
X129479160Y-112559819D01*
X129479160Y-112559819D02*
X129717256Y-111559819D01*
X130098208Y-112559819D02*
X130098208Y-111559819D01*
X130098208Y-111559819D02*
X130431541Y-112274104D01*
X130431541Y-112274104D02*
X130764874Y-111559819D01*
X130764874Y-111559819D02*
X130764874Y-112559819D01*
X132431541Y-111893152D02*
X132431541Y-112559819D01*
X132002970Y-111893152D02*
X132002970Y-112416961D01*
X132002970Y-112416961D02*
X132050589Y-112512200D01*
X132050589Y-112512200D02*
X132145827Y-112559819D01*
X132145827Y-112559819D02*
X132288684Y-112559819D01*
X132288684Y-112559819D02*
X132383922Y-112512200D01*
X132383922Y-112512200D02*
X132431541Y-112464580D01*
X133479160Y-112464580D02*
X133431541Y-112512200D01*
X133431541Y-112512200D02*
X133288684Y-112559819D01*
X133288684Y-112559819D02*
X133193446Y-112559819D01*
X133193446Y-112559819D02*
X133050589Y-112512200D01*
X133050589Y-112512200D02*
X132955351Y-112416961D01*
X132955351Y-112416961D02*
X132907732Y-112321723D01*
X132907732Y-112321723D02*
X132860113Y-112131247D01*
X132860113Y-112131247D02*
X132860113Y-111988390D01*
X132860113Y-111988390D02*
X132907732Y-111797914D01*
X132907732Y-111797914D02*
X132955351Y-111702676D01*
X132955351Y-111702676D02*
X133050589Y-111607438D01*
X133050589Y-111607438D02*
X133193446Y-111559819D01*
X133193446Y-111559819D02*
X133288684Y-111559819D01*
X133288684Y-111559819D02*
X133431541Y-111607438D01*
X133431541Y-111607438D02*
X133479160Y-111655057D01*
X123526779Y-114169819D02*
X123526779Y-113503152D01*
X123526779Y-113693628D02*
X123574398Y-113598390D01*
X123574398Y-113598390D02*
X123622017Y-113550771D01*
X123622017Y-113550771D02*
X123717255Y-113503152D01*
X123717255Y-113503152D02*
X123812493Y-113503152D01*
X124288684Y-114169819D02*
X124193446Y-114122200D01*
X124193446Y-114122200D02*
X124145827Y-114074580D01*
X124145827Y-114074580D02*
X124098208Y-113979342D01*
X124098208Y-113979342D02*
X124098208Y-113693628D01*
X124098208Y-113693628D02*
X124145827Y-113598390D01*
X124145827Y-113598390D02*
X124193446Y-113550771D01*
X124193446Y-113550771D02*
X124288684Y-113503152D01*
X124288684Y-113503152D02*
X124431541Y-113503152D01*
X124431541Y-113503152D02*
X124526779Y-113550771D01*
X124526779Y-113550771D02*
X124574398Y-113598390D01*
X124574398Y-113598390D02*
X124622017Y-113693628D01*
X124622017Y-113693628D02*
X124622017Y-113979342D01*
X124622017Y-113979342D02*
X124574398Y-114074580D01*
X124574398Y-114074580D02*
X124526779Y-114122200D01*
X124526779Y-114122200D02*
X124431541Y-114169819D01*
X124431541Y-114169819D02*
X124288684Y-114169819D01*
X124907732Y-113503152D02*
X125288684Y-113503152D01*
X125050589Y-113169819D02*
X125050589Y-114026961D01*
X125050589Y-114026961D02*
X125098208Y-114122200D01*
X125098208Y-114122200D02*
X125193446Y-114169819D01*
X125193446Y-114169819D02*
X125288684Y-114169819D01*
X125622018Y-114074580D02*
X125669637Y-114122200D01*
X125669637Y-114122200D02*
X125622018Y-114169819D01*
X125622018Y-114169819D02*
X125574399Y-114122200D01*
X125574399Y-114122200D02*
X125622018Y-114074580D01*
X125622018Y-114074580D02*
X125622018Y-114169819D01*
X125622018Y-113550771D02*
X125669637Y-113598390D01*
X125669637Y-113598390D02*
X125622018Y-113646009D01*
X125622018Y-113646009D02*
X125574399Y-113598390D01*
X125574399Y-113598390D02*
X125622018Y-113550771D01*
X125622018Y-113550771D02*
X125622018Y-113646009D01*
X126860113Y-114169819D02*
X126860113Y-113169819D01*
X126860113Y-113169819D02*
X127241065Y-113169819D01*
X127241065Y-113169819D02*
X127336303Y-113217438D01*
X127336303Y-113217438D02*
X127383922Y-113265057D01*
X127383922Y-113265057D02*
X127431541Y-113360295D01*
X127431541Y-113360295D02*
X127431541Y-113503152D01*
X127431541Y-113503152D02*
X127383922Y-113598390D01*
X127383922Y-113598390D02*
X127336303Y-113646009D01*
X127336303Y-113646009D02*
X127241065Y-113693628D01*
X127241065Y-113693628D02*
X126860113Y-113693628D01*
X127764875Y-113169819D02*
X128002970Y-114169819D01*
X128002970Y-114169819D02*
X128193446Y-113455533D01*
X128193446Y-113455533D02*
X128383922Y-114169819D01*
X128383922Y-114169819D02*
X128622018Y-113169819D01*
X129002970Y-114169819D02*
X129002970Y-113169819D01*
X129002970Y-113169819D02*
X129336303Y-113884104D01*
X129336303Y-113884104D02*
X129669636Y-113169819D01*
X129669636Y-113169819D02*
X129669636Y-114169819D01*
X131479160Y-114169819D02*
X131145827Y-113693628D01*
X130907732Y-114169819D02*
X130907732Y-113169819D01*
X130907732Y-113169819D02*
X131288684Y-113169819D01*
X131288684Y-113169819D02*
X131383922Y-113217438D01*
X131383922Y-113217438D02*
X131431541Y-113265057D01*
X131431541Y-113265057D02*
X131479160Y-113360295D01*
X131479160Y-113360295D02*
X131479160Y-113503152D01*
X131479160Y-113503152D02*
X131431541Y-113598390D01*
X131431541Y-113598390D02*
X131383922Y-113646009D01*
X131383922Y-113646009D02*
X131288684Y-113693628D01*
X131288684Y-113693628D02*
X130907732Y-113693628D01*
X132288684Y-114122200D02*
X132193446Y-114169819D01*
X132193446Y-114169819D02*
X132002970Y-114169819D01*
X132002970Y-114169819D02*
X131907732Y-114122200D01*
X131907732Y-114122200D02*
X131860113Y-114026961D01*
X131860113Y-114026961D02*
X131860113Y-113646009D01*
X131860113Y-113646009D02*
X131907732Y-113550771D01*
X131907732Y-113550771D02*
X132002970Y-113503152D01*
X132002970Y-113503152D02*
X132193446Y-113503152D01*
X132193446Y-113503152D02*
X132288684Y-113550771D01*
X132288684Y-113550771D02*
X132336303Y-113646009D01*
X132336303Y-113646009D02*
X132336303Y-113741247D01*
X132336303Y-113741247D02*
X131860113Y-113836485D01*
X132907732Y-114169819D02*
X132812494Y-114122200D01*
X132812494Y-114122200D02*
X132764875Y-114026961D01*
X132764875Y-114026961D02*
X132764875Y-113169819D01*
X133717256Y-114169819D02*
X133717256Y-113646009D01*
X133717256Y-113646009D02*
X133669637Y-113550771D01*
X133669637Y-113550771D02*
X133574399Y-113503152D01*
X133574399Y-113503152D02*
X133383923Y-113503152D01*
X133383923Y-113503152D02*
X133288685Y-113550771D01*
X133717256Y-114122200D02*
X133622018Y-114169819D01*
X133622018Y-114169819D02*
X133383923Y-114169819D01*
X133383923Y-114169819D02*
X133288685Y-114122200D01*
X133288685Y-114122200D02*
X133241066Y-114026961D01*
X133241066Y-114026961D02*
X133241066Y-113931723D01*
X133241066Y-113931723D02*
X133288685Y-113836485D01*
X133288685Y-113836485D02*
X133383923Y-113788866D01*
X133383923Y-113788866D02*
X133622018Y-113788866D01*
X133622018Y-113788866D02*
X133717256Y-113741247D01*
X134193447Y-114169819D02*
X134193447Y-113503152D01*
X134193447Y-113169819D02*
X134145828Y-113217438D01*
X134145828Y-113217438D02*
X134193447Y-113265057D01*
X134193447Y-113265057D02*
X134241066Y-113217438D01*
X134241066Y-113217438D02*
X134193447Y-113169819D01*
X134193447Y-113169819D02*
X134193447Y-113265057D01*
X134622018Y-114122200D02*
X134717256Y-114169819D01*
X134717256Y-114169819D02*
X134907732Y-114169819D01*
X134907732Y-114169819D02*
X135002970Y-114122200D01*
X135002970Y-114122200D02*
X135050589Y-114026961D01*
X135050589Y-114026961D02*
X135050589Y-113979342D01*
X135050589Y-113979342D02*
X135002970Y-113884104D01*
X135002970Y-113884104D02*
X134907732Y-113836485D01*
X134907732Y-113836485D02*
X134764875Y-113836485D01*
X134764875Y-113836485D02*
X134669637Y-113788866D01*
X134669637Y-113788866D02*
X134622018Y-113693628D01*
X134622018Y-113693628D02*
X134622018Y-113646009D01*
X134622018Y-113646009D02*
X134669637Y-113550771D01*
X134669637Y-113550771D02*
X134764875Y-113503152D01*
X134764875Y-113503152D02*
X134907732Y-113503152D01*
X134907732Y-113503152D02*
X135002970Y-113550771D01*
X129876779Y-70608866D02*
X130638684Y-70608866D01*
X130257731Y-70989819D02*
X130257731Y-70227914D01*
X131591064Y-69989819D02*
X131114874Y-69989819D01*
X131114874Y-69989819D02*
X131067255Y-70466009D01*
X131067255Y-70466009D02*
X131114874Y-70418390D01*
X131114874Y-70418390D02*
X131210112Y-70370771D01*
X131210112Y-70370771D02*
X131448207Y-70370771D01*
X131448207Y-70370771D02*
X131543445Y-70418390D01*
X131543445Y-70418390D02*
X131591064Y-70466009D01*
X131591064Y-70466009D02*
X131638683Y-70561247D01*
X131638683Y-70561247D02*
X131638683Y-70799342D01*
X131638683Y-70799342D02*
X131591064Y-70894580D01*
X131591064Y-70894580D02*
X131543445Y-70942200D01*
X131543445Y-70942200D02*
X131448207Y-70989819D01*
X131448207Y-70989819D02*
X131210112Y-70989819D01*
X131210112Y-70989819D02*
X131114874Y-70942200D01*
X131114874Y-70942200D02*
X131067255Y-70894580D01*
X131924398Y-69989819D02*
X132257731Y-70989819D01*
X132257731Y-70989819D02*
X132591064Y-69989819D01*
X196989819Y-75164744D02*
X196989819Y-74974268D01*
X196989819Y-74974268D02*
X197037438Y-74879030D01*
X197037438Y-74879030D02*
X197132676Y-74783792D01*
X197132676Y-74783792D02*
X197323152Y-74736173D01*
X197323152Y-74736173D02*
X197656485Y-74736173D01*
X197656485Y-74736173D02*
X197846961Y-74783792D01*
X197846961Y-74783792D02*
X197942200Y-74879030D01*
X197942200Y-74879030D02*
X197989819Y-74974268D01*
X197989819Y-74974268D02*
X197989819Y-75164744D01*
X197989819Y-75164744D02*
X197942200Y-75259982D01*
X197942200Y-75259982D02*
X197846961Y-75355220D01*
X197846961Y-75355220D02*
X197656485Y-75402839D01*
X197656485Y-75402839D02*
X197323152Y-75402839D01*
X197323152Y-75402839D02*
X197132676Y-75355220D01*
X197132676Y-75355220D02*
X197037438Y-75259982D01*
X197037438Y-75259982D02*
X196989819Y-75164744D01*
X197323152Y-74402839D02*
X197989819Y-74164744D01*
X197989819Y-74164744D02*
X197323152Y-73926649D01*
X197942200Y-73164744D02*
X197989819Y-73259982D01*
X197989819Y-73259982D02*
X197989819Y-73450458D01*
X197989819Y-73450458D02*
X197942200Y-73545696D01*
X197942200Y-73545696D02*
X197846961Y-73593315D01*
X197846961Y-73593315D02*
X197466009Y-73593315D01*
X197466009Y-73593315D02*
X197370771Y-73545696D01*
X197370771Y-73545696D02*
X197323152Y-73450458D01*
X197323152Y-73450458D02*
X197323152Y-73259982D01*
X197323152Y-73259982D02*
X197370771Y-73164744D01*
X197370771Y-73164744D02*
X197466009Y-73117125D01*
X197466009Y-73117125D02*
X197561247Y-73117125D01*
X197561247Y-73117125D02*
X197656485Y-73593315D01*
X197323152Y-72688553D02*
X197989819Y-72688553D01*
X197418390Y-72688553D02*
X197370771Y-72640934D01*
X197370771Y-72640934D02*
X197323152Y-72545696D01*
X197323152Y-72545696D02*
X197323152Y-72402839D01*
X197323152Y-72402839D02*
X197370771Y-72307601D01*
X197370771Y-72307601D02*
X197466009Y-72259982D01*
X197466009Y-72259982D02*
X197989819Y-72259982D01*
X197989819Y-80943220D02*
X196989819Y-80943220D01*
X196989819Y-80943220D02*
X196989819Y-80562268D01*
X196989819Y-80562268D02*
X197037438Y-80467030D01*
X197037438Y-80467030D02*
X197085057Y-80419411D01*
X197085057Y-80419411D02*
X197180295Y-80371792D01*
X197180295Y-80371792D02*
X197323152Y-80371792D01*
X197323152Y-80371792D02*
X197418390Y-80419411D01*
X197418390Y-80419411D02*
X197466009Y-80467030D01*
X197466009Y-80467030D02*
X197513628Y-80562268D01*
X197513628Y-80562268D02*
X197513628Y-80943220D01*
X197989819Y-79943220D02*
X196989819Y-79943220D01*
X197989819Y-79514649D02*
X197466009Y-79514649D01*
X197466009Y-79514649D02*
X197370771Y-79562268D01*
X197370771Y-79562268D02*
X197323152Y-79657506D01*
X197323152Y-79657506D02*
X197323152Y-79800363D01*
X197323152Y-79800363D02*
X197370771Y-79895601D01*
X197370771Y-79895601D02*
X197418390Y-79943220D01*
X197989819Y-78609887D02*
X197466009Y-78609887D01*
X197466009Y-78609887D02*
X197370771Y-78657506D01*
X197370771Y-78657506D02*
X197323152Y-78752744D01*
X197323152Y-78752744D02*
X197323152Y-78943220D01*
X197323152Y-78943220D02*
X197370771Y-79038458D01*
X197942200Y-78609887D02*
X197989819Y-78705125D01*
X197989819Y-78705125D02*
X197989819Y-78943220D01*
X197989819Y-78943220D02*
X197942200Y-79038458D01*
X197942200Y-79038458D02*
X197846961Y-79086077D01*
X197846961Y-79086077D02*
X197751723Y-79086077D01*
X197751723Y-79086077D02*
X197656485Y-79038458D01*
X197656485Y-79038458D02*
X197608866Y-78943220D01*
X197608866Y-78943220D02*
X197608866Y-78705125D01*
X197608866Y-78705125D02*
X197561247Y-78609887D01*
X197942200Y-78181315D02*
X197989819Y-78086077D01*
X197989819Y-78086077D02*
X197989819Y-77895601D01*
X197989819Y-77895601D02*
X197942200Y-77800363D01*
X197942200Y-77800363D02*
X197846961Y-77752744D01*
X197846961Y-77752744D02*
X197799342Y-77752744D01*
X197799342Y-77752744D02*
X197704104Y-77800363D01*
X197704104Y-77800363D02*
X197656485Y-77895601D01*
X197656485Y-77895601D02*
X197656485Y-78038458D01*
X197656485Y-78038458D02*
X197608866Y-78133696D01*
X197608866Y-78133696D02*
X197513628Y-78181315D01*
X197513628Y-78181315D02*
X197466009Y-78181315D01*
X197466009Y-78181315D02*
X197370771Y-78133696D01*
X197370771Y-78133696D02*
X197323152Y-78038458D01*
X197323152Y-78038458D02*
X197323152Y-77895601D01*
X197323152Y-77895601D02*
X197370771Y-77800363D01*
X197942200Y-76943220D02*
X197989819Y-77038458D01*
X197989819Y-77038458D02*
X197989819Y-77228934D01*
X197989819Y-77228934D02*
X197942200Y-77324172D01*
X197942200Y-77324172D02*
X197846961Y-77371791D01*
X197846961Y-77371791D02*
X197466009Y-77371791D01*
X197466009Y-77371791D02*
X197370771Y-77324172D01*
X197370771Y-77324172D02*
X197323152Y-77228934D01*
X197323152Y-77228934D02*
X197323152Y-77038458D01*
X197323152Y-77038458D02*
X197370771Y-76943220D01*
X197370771Y-76943220D02*
X197466009Y-76895601D01*
X197466009Y-76895601D02*
X197561247Y-76895601D01*
X197561247Y-76895601D02*
X197656485Y-77371791D01*
X118970588Y-100517438D02*
X118875350Y-100469819D01*
X118875350Y-100469819D02*
X118732493Y-100469819D01*
X118732493Y-100469819D02*
X118589636Y-100517438D01*
X118589636Y-100517438D02*
X118494398Y-100612676D01*
X118494398Y-100612676D02*
X118446779Y-100707914D01*
X118446779Y-100707914D02*
X118399160Y-100898390D01*
X118399160Y-100898390D02*
X118399160Y-101041247D01*
X118399160Y-101041247D02*
X118446779Y-101231723D01*
X118446779Y-101231723D02*
X118494398Y-101326961D01*
X118494398Y-101326961D02*
X118589636Y-101422200D01*
X118589636Y-101422200D02*
X118732493Y-101469819D01*
X118732493Y-101469819D02*
X118827731Y-101469819D01*
X118827731Y-101469819D02*
X118970588Y-101422200D01*
X118970588Y-101422200D02*
X119018207Y-101374580D01*
X119018207Y-101374580D02*
X119018207Y-101041247D01*
X119018207Y-101041247D02*
X118827731Y-101041247D01*
X119446779Y-101469819D02*
X119446779Y-100469819D01*
X119446779Y-100469819D02*
X120018207Y-101469819D01*
X120018207Y-101469819D02*
X120018207Y-100469819D01*
X120494398Y-101469819D02*
X120494398Y-100469819D01*
X120494398Y-100469819D02*
X120732493Y-100469819D01*
X120732493Y-100469819D02*
X120875350Y-100517438D01*
X120875350Y-100517438D02*
X120970588Y-100612676D01*
X120970588Y-100612676D02*
X121018207Y-100707914D01*
X121018207Y-100707914D02*
X121065826Y-100898390D01*
X121065826Y-100898390D02*
X121065826Y-101041247D01*
X121065826Y-101041247D02*
X121018207Y-101231723D01*
X121018207Y-101231723D02*
X120970588Y-101326961D01*
X120970588Y-101326961D02*
X120875350Y-101422200D01*
X120875350Y-101422200D02*
X120732493Y-101469819D01*
X120732493Y-101469819D02*
X120494398Y-101469819D01*
X197989819Y-91103220D02*
X196989819Y-91103220D01*
X196989819Y-91103220D02*
X196989819Y-90722268D01*
X196989819Y-90722268D02*
X197037438Y-90627030D01*
X197037438Y-90627030D02*
X197085057Y-90579411D01*
X197085057Y-90579411D02*
X197180295Y-90531792D01*
X197180295Y-90531792D02*
X197323152Y-90531792D01*
X197323152Y-90531792D02*
X197418390Y-90579411D01*
X197418390Y-90579411D02*
X197466009Y-90627030D01*
X197466009Y-90627030D02*
X197513628Y-90722268D01*
X197513628Y-90722268D02*
X197513628Y-91103220D01*
X197989819Y-90103220D02*
X196989819Y-90103220D01*
X197989819Y-89674649D02*
X197466009Y-89674649D01*
X197466009Y-89674649D02*
X197370771Y-89722268D01*
X197370771Y-89722268D02*
X197323152Y-89817506D01*
X197323152Y-89817506D02*
X197323152Y-89960363D01*
X197323152Y-89960363D02*
X197370771Y-90055601D01*
X197370771Y-90055601D02*
X197418390Y-90103220D01*
X197989819Y-88769887D02*
X197466009Y-88769887D01*
X197466009Y-88769887D02*
X197370771Y-88817506D01*
X197370771Y-88817506D02*
X197323152Y-88912744D01*
X197323152Y-88912744D02*
X197323152Y-89103220D01*
X197323152Y-89103220D02*
X197370771Y-89198458D01*
X197942200Y-88769887D02*
X197989819Y-88865125D01*
X197989819Y-88865125D02*
X197989819Y-89103220D01*
X197989819Y-89103220D02*
X197942200Y-89198458D01*
X197942200Y-89198458D02*
X197846961Y-89246077D01*
X197846961Y-89246077D02*
X197751723Y-89246077D01*
X197751723Y-89246077D02*
X197656485Y-89198458D01*
X197656485Y-89198458D02*
X197608866Y-89103220D01*
X197608866Y-89103220D02*
X197608866Y-88865125D01*
X197608866Y-88865125D02*
X197561247Y-88769887D01*
X197942200Y-88341315D02*
X197989819Y-88246077D01*
X197989819Y-88246077D02*
X197989819Y-88055601D01*
X197989819Y-88055601D02*
X197942200Y-87960363D01*
X197942200Y-87960363D02*
X197846961Y-87912744D01*
X197846961Y-87912744D02*
X197799342Y-87912744D01*
X197799342Y-87912744D02*
X197704104Y-87960363D01*
X197704104Y-87960363D02*
X197656485Y-88055601D01*
X197656485Y-88055601D02*
X197656485Y-88198458D01*
X197656485Y-88198458D02*
X197608866Y-88293696D01*
X197608866Y-88293696D02*
X197513628Y-88341315D01*
X197513628Y-88341315D02*
X197466009Y-88341315D01*
X197466009Y-88341315D02*
X197370771Y-88293696D01*
X197370771Y-88293696D02*
X197323152Y-88198458D01*
X197323152Y-88198458D02*
X197323152Y-88055601D01*
X197323152Y-88055601D02*
X197370771Y-87960363D01*
X197942200Y-87103220D02*
X197989819Y-87198458D01*
X197989819Y-87198458D02*
X197989819Y-87388934D01*
X197989819Y-87388934D02*
X197942200Y-87484172D01*
X197942200Y-87484172D02*
X197846961Y-87531791D01*
X197846961Y-87531791D02*
X197466009Y-87531791D01*
X197466009Y-87531791D02*
X197370771Y-87484172D01*
X197370771Y-87484172D02*
X197323152Y-87388934D01*
X197323152Y-87388934D02*
X197323152Y-87198458D01*
X197323152Y-87198458D02*
X197370771Y-87103220D01*
X197370771Y-87103220D02*
X197466009Y-87055601D01*
X197466009Y-87055601D02*
X197561247Y-87055601D01*
X197561247Y-87055601D02*
X197656485Y-87531791D01*
X183216779Y-112559819D02*
X183216779Y-111559819D01*
X183216779Y-111559819D02*
X183454874Y-111559819D01*
X183454874Y-111559819D02*
X183597731Y-111607438D01*
X183597731Y-111607438D02*
X183692969Y-111702676D01*
X183692969Y-111702676D02*
X183740588Y-111797914D01*
X183740588Y-111797914D02*
X183788207Y-111988390D01*
X183788207Y-111988390D02*
X183788207Y-112131247D01*
X183788207Y-112131247D02*
X183740588Y-112321723D01*
X183740588Y-112321723D02*
X183692969Y-112416961D01*
X183692969Y-112416961D02*
X183597731Y-112512200D01*
X183597731Y-112512200D02*
X183454874Y-112559819D01*
X183454874Y-112559819D02*
X183216779Y-112559819D01*
X184597731Y-112512200D02*
X184502493Y-112559819D01*
X184502493Y-112559819D02*
X184312017Y-112559819D01*
X184312017Y-112559819D02*
X184216779Y-112512200D01*
X184216779Y-112512200D02*
X184169160Y-112416961D01*
X184169160Y-112416961D02*
X184169160Y-112036009D01*
X184169160Y-112036009D02*
X184216779Y-111940771D01*
X184216779Y-111940771D02*
X184312017Y-111893152D01*
X184312017Y-111893152D02*
X184502493Y-111893152D01*
X184502493Y-111893152D02*
X184597731Y-111940771D01*
X184597731Y-111940771D02*
X184645350Y-112036009D01*
X184645350Y-112036009D02*
X184645350Y-112131247D01*
X184645350Y-112131247D02*
X184169160Y-112226485D01*
X185073922Y-112559819D02*
X185073922Y-111559819D01*
X185073922Y-111940771D02*
X185169160Y-111893152D01*
X185169160Y-111893152D02*
X185359636Y-111893152D01*
X185359636Y-111893152D02*
X185454874Y-111940771D01*
X185454874Y-111940771D02*
X185502493Y-111988390D01*
X185502493Y-111988390D02*
X185550112Y-112083628D01*
X185550112Y-112083628D02*
X185550112Y-112369342D01*
X185550112Y-112369342D02*
X185502493Y-112464580D01*
X185502493Y-112464580D02*
X185454874Y-112512200D01*
X185454874Y-112512200D02*
X185359636Y-112559819D01*
X185359636Y-112559819D02*
X185169160Y-112559819D01*
X185169160Y-112559819D02*
X185073922Y-112512200D01*
X186407255Y-111893152D02*
X186407255Y-112559819D01*
X185978684Y-111893152D02*
X185978684Y-112416961D01*
X185978684Y-112416961D02*
X186026303Y-112512200D01*
X186026303Y-112512200D02*
X186121541Y-112559819D01*
X186121541Y-112559819D02*
X186264398Y-112559819D01*
X186264398Y-112559819D02*
X186359636Y-112512200D01*
X186359636Y-112512200D02*
X186407255Y-112464580D01*
X187312017Y-111893152D02*
X187312017Y-112702676D01*
X187312017Y-112702676D02*
X187264398Y-112797914D01*
X187264398Y-112797914D02*
X187216779Y-112845533D01*
X187216779Y-112845533D02*
X187121541Y-112893152D01*
X187121541Y-112893152D02*
X186978684Y-112893152D01*
X186978684Y-112893152D02*
X186883446Y-112845533D01*
X187312017Y-112512200D02*
X187216779Y-112559819D01*
X187216779Y-112559819D02*
X187026303Y-112559819D01*
X187026303Y-112559819D02*
X186931065Y-112512200D01*
X186931065Y-112512200D02*
X186883446Y-112464580D01*
X186883446Y-112464580D02*
X186835827Y-112369342D01*
X186835827Y-112369342D02*
X186835827Y-112083628D01*
X186835827Y-112083628D02*
X186883446Y-111988390D01*
X186883446Y-111988390D02*
X186931065Y-111940771D01*
X186931065Y-111940771D02*
X187026303Y-111893152D01*
X187026303Y-111893152D02*
X187216779Y-111893152D01*
X187216779Y-111893152D02*
X187312017Y-111940771D01*
X183169160Y-113884104D02*
X183645350Y-113884104D01*
X183073922Y-114169819D02*
X183407255Y-113169819D01*
X183407255Y-113169819D02*
X183740588Y-114169819D01*
X184073922Y-113503152D02*
X184073922Y-114169819D01*
X184073922Y-113598390D02*
X184121541Y-113550771D01*
X184121541Y-113550771D02*
X184216779Y-113503152D01*
X184216779Y-113503152D02*
X184359636Y-113503152D01*
X184359636Y-113503152D02*
X184454874Y-113550771D01*
X184454874Y-113550771D02*
X184502493Y-113646009D01*
X184502493Y-113646009D02*
X184502493Y-114169819D01*
X184931065Y-114122200D02*
X185026303Y-114169819D01*
X185026303Y-114169819D02*
X185216779Y-114169819D01*
X185216779Y-114169819D02*
X185312017Y-114122200D01*
X185312017Y-114122200D02*
X185359636Y-114026961D01*
X185359636Y-114026961D02*
X185359636Y-113979342D01*
X185359636Y-113979342D02*
X185312017Y-113884104D01*
X185312017Y-113884104D02*
X185216779Y-113836485D01*
X185216779Y-113836485D02*
X185073922Y-113836485D01*
X185073922Y-113836485D02*
X184978684Y-113788866D01*
X184978684Y-113788866D02*
X184931065Y-113693628D01*
X184931065Y-113693628D02*
X184931065Y-113646009D01*
X184931065Y-113646009D02*
X184978684Y-113550771D01*
X184978684Y-113550771D02*
X185073922Y-113503152D01*
X185073922Y-113503152D02*
X185216779Y-113503152D01*
X185216779Y-113503152D02*
X185312017Y-113550771D01*
X186216779Y-114122200D02*
X186121541Y-114169819D01*
X186121541Y-114169819D02*
X185931065Y-114169819D01*
X185931065Y-114169819D02*
X185835827Y-114122200D01*
X185835827Y-114122200D02*
X185788208Y-114074580D01*
X185788208Y-114074580D02*
X185740589Y-113979342D01*
X185740589Y-113979342D02*
X185740589Y-113693628D01*
X185740589Y-113693628D02*
X185788208Y-113598390D01*
X185788208Y-113598390D02*
X185835827Y-113550771D01*
X185835827Y-113550771D02*
X185931065Y-113503152D01*
X185931065Y-113503152D02*
X186121541Y-113503152D01*
X186121541Y-113503152D02*
X186216779Y-113550771D01*
X186645351Y-114169819D02*
X186645351Y-113169819D01*
X187073922Y-114169819D02*
X187073922Y-113646009D01*
X187073922Y-113646009D02*
X187026303Y-113550771D01*
X187026303Y-113550771D02*
X186931065Y-113503152D01*
X186931065Y-113503152D02*
X186788208Y-113503152D01*
X186788208Y-113503152D02*
X186692970Y-113550771D01*
X186692970Y-113550771D02*
X186645351Y-113598390D01*
X187692970Y-114169819D02*
X187597732Y-114122200D01*
X187597732Y-114122200D02*
X187550113Y-114026961D01*
X187550113Y-114026961D02*
X187550113Y-113169819D01*
X188502494Y-113503152D02*
X188502494Y-114169819D01*
X188073923Y-113503152D02*
X188073923Y-114026961D01*
X188073923Y-114026961D02*
X188121542Y-114122200D01*
X188121542Y-114122200D02*
X188216780Y-114169819D01*
X188216780Y-114169819D02*
X188359637Y-114169819D01*
X188359637Y-114169819D02*
X188454875Y-114122200D01*
X188454875Y-114122200D02*
X188502494Y-114074580D01*
X188931066Y-114122200D02*
X189026304Y-114169819D01*
X189026304Y-114169819D02*
X189216780Y-114169819D01*
X189216780Y-114169819D02*
X189312018Y-114122200D01*
X189312018Y-114122200D02*
X189359637Y-114026961D01*
X189359637Y-114026961D02*
X189359637Y-113979342D01*
X189359637Y-113979342D02*
X189312018Y-113884104D01*
X189312018Y-113884104D02*
X189216780Y-113836485D01*
X189216780Y-113836485D02*
X189073923Y-113836485D01*
X189073923Y-113836485D02*
X188978685Y-113788866D01*
X188978685Y-113788866D02*
X188931066Y-113693628D01*
X188931066Y-113693628D02*
X188931066Y-113646009D01*
X188931066Y-113646009D02*
X188978685Y-113550771D01*
X188978685Y-113550771D02*
X189073923Y-113503152D01*
X189073923Y-113503152D02*
X189216780Y-113503152D01*
X189216780Y-113503152D02*
X189312018Y-113550771D01*
X189740590Y-114122200D02*
X189835828Y-114169819D01*
X189835828Y-114169819D02*
X190026304Y-114169819D01*
X190026304Y-114169819D02*
X190121542Y-114122200D01*
X190121542Y-114122200D02*
X190169161Y-114026961D01*
X190169161Y-114026961D02*
X190169161Y-113979342D01*
X190169161Y-113979342D02*
X190121542Y-113884104D01*
X190121542Y-113884104D02*
X190026304Y-113836485D01*
X190026304Y-113836485D02*
X189883447Y-113836485D01*
X189883447Y-113836485D02*
X189788209Y-113788866D01*
X189788209Y-113788866D02*
X189740590Y-113693628D01*
X189740590Y-113693628D02*
X189740590Y-113646009D01*
X189740590Y-113646009D02*
X189788209Y-113550771D01*
X189788209Y-113550771D02*
X189883447Y-113503152D01*
X189883447Y-113503152D02*
X190026304Y-113503152D01*
X190026304Y-113503152D02*
X190121542Y-113550771D01*
X130892779Y-87245819D02*
X130892779Y-86579152D01*
X130892779Y-86769628D02*
X130940398Y-86674390D01*
X130940398Y-86674390D02*
X130988017Y-86626771D01*
X130988017Y-86626771D02*
X131083255Y-86579152D01*
X131083255Y-86579152D02*
X131178493Y-86579152D01*
X131940398Y-87245819D02*
X131940398Y-86245819D01*
X131940398Y-87198200D02*
X131845160Y-87245819D01*
X131845160Y-87245819D02*
X131654684Y-87245819D01*
X131654684Y-87245819D02*
X131559446Y-87198200D01*
X131559446Y-87198200D02*
X131511827Y-87150580D01*
X131511827Y-87150580D02*
X131464208Y-87055342D01*
X131464208Y-87055342D02*
X131464208Y-86769628D01*
X131464208Y-86769628D02*
X131511827Y-86674390D01*
X131511827Y-86674390D02*
X131559446Y-86626771D01*
X131559446Y-86626771D02*
X131654684Y-86579152D01*
X131654684Y-86579152D02*
X131845160Y-86579152D01*
X131845160Y-86579152D02*
X131940398Y-86626771D01*
X128511541Y-103597152D02*
X128749636Y-104263819D01*
X128987731Y-103597152D02*
X128749636Y-104263819D01*
X128749636Y-104263819D02*
X128654398Y-104501914D01*
X128654398Y-104501914D02*
X128606779Y-104549533D01*
X128606779Y-104549533D02*
X128511541Y-104597152D01*
X129749636Y-104216200D02*
X129654398Y-104263819D01*
X129654398Y-104263819D02*
X129463922Y-104263819D01*
X129463922Y-104263819D02*
X129368684Y-104216200D01*
X129368684Y-104216200D02*
X129321065Y-104120961D01*
X129321065Y-104120961D02*
X129321065Y-103740009D01*
X129321065Y-103740009D02*
X129368684Y-103644771D01*
X129368684Y-103644771D02*
X129463922Y-103597152D01*
X129463922Y-103597152D02*
X129654398Y-103597152D01*
X129654398Y-103597152D02*
X129749636Y-103644771D01*
X129749636Y-103644771D02*
X129797255Y-103740009D01*
X129797255Y-103740009D02*
X129797255Y-103835247D01*
X129797255Y-103835247D02*
X129321065Y-103930485D01*
%TO.C,D1*%
X128547905Y-87322819D02*
X128547905Y-86322819D01*
X128547905Y-86322819D02*
X128786000Y-86322819D01*
X128786000Y-86322819D02*
X128928857Y-86370438D01*
X128928857Y-86370438D02*
X129024095Y-86465676D01*
X129024095Y-86465676D02*
X129071714Y-86560914D01*
X129071714Y-86560914D02*
X129119333Y-86751390D01*
X129119333Y-86751390D02*
X129119333Y-86894247D01*
X129119333Y-86894247D02*
X129071714Y-87084723D01*
X129071714Y-87084723D02*
X129024095Y-87179961D01*
X129024095Y-87179961D02*
X128928857Y-87275200D01*
X128928857Y-87275200D02*
X128786000Y-87322819D01*
X128786000Y-87322819D02*
X128547905Y-87322819D01*
X130071714Y-87322819D02*
X129500286Y-87322819D01*
X129786000Y-87322819D02*
X129786000Y-86322819D01*
X129786000Y-86322819D02*
X129690762Y-86465676D01*
X129690762Y-86465676D02*
X129595524Y-86560914D01*
X129595524Y-86560914D02*
X129500286Y-86608533D01*
%TO.C,TP2*%
X115578095Y-93434819D02*
X116149523Y-93434819D01*
X115863809Y-94434819D02*
X115863809Y-93434819D01*
X116482857Y-94434819D02*
X116482857Y-93434819D01*
X116482857Y-93434819D02*
X116863809Y-93434819D01*
X116863809Y-93434819D02*
X116959047Y-93482438D01*
X116959047Y-93482438D02*
X117006666Y-93530057D01*
X117006666Y-93530057D02*
X117054285Y-93625295D01*
X117054285Y-93625295D02*
X117054285Y-93768152D01*
X117054285Y-93768152D02*
X117006666Y-93863390D01*
X117006666Y-93863390D02*
X116959047Y-93911009D01*
X116959047Y-93911009D02*
X116863809Y-93958628D01*
X116863809Y-93958628D02*
X116482857Y-93958628D01*
X117435238Y-93530057D02*
X117482857Y-93482438D01*
X117482857Y-93482438D02*
X117578095Y-93434819D01*
X117578095Y-93434819D02*
X117816190Y-93434819D01*
X117816190Y-93434819D02*
X117911428Y-93482438D01*
X117911428Y-93482438D02*
X117959047Y-93530057D01*
X117959047Y-93530057D02*
X118006666Y-93625295D01*
X118006666Y-93625295D02*
X118006666Y-93720533D01*
X118006666Y-93720533D02*
X117959047Y-93863390D01*
X117959047Y-93863390D02*
X117387619Y-94434819D01*
X117387619Y-94434819D02*
X118006666Y-94434819D01*
%TO.C,D3*%
X122705905Y-87322819D02*
X122705905Y-86322819D01*
X122705905Y-86322819D02*
X122944000Y-86322819D01*
X122944000Y-86322819D02*
X123086857Y-86370438D01*
X123086857Y-86370438D02*
X123182095Y-86465676D01*
X123182095Y-86465676D02*
X123229714Y-86560914D01*
X123229714Y-86560914D02*
X123277333Y-86751390D01*
X123277333Y-86751390D02*
X123277333Y-86894247D01*
X123277333Y-86894247D02*
X123229714Y-87084723D01*
X123229714Y-87084723D02*
X123182095Y-87179961D01*
X123182095Y-87179961D02*
X123086857Y-87275200D01*
X123086857Y-87275200D02*
X122944000Y-87322819D01*
X122944000Y-87322819D02*
X122705905Y-87322819D01*
X123610667Y-86322819D02*
X124229714Y-86322819D01*
X124229714Y-86322819D02*
X123896381Y-86703771D01*
X123896381Y-86703771D02*
X124039238Y-86703771D01*
X124039238Y-86703771D02*
X124134476Y-86751390D01*
X124134476Y-86751390D02*
X124182095Y-86799009D01*
X124182095Y-86799009D02*
X124229714Y-86894247D01*
X124229714Y-86894247D02*
X124229714Y-87132342D01*
X124229714Y-87132342D02*
X124182095Y-87227580D01*
X124182095Y-87227580D02*
X124134476Y-87275200D01*
X124134476Y-87275200D02*
X124039238Y-87322819D01*
X124039238Y-87322819D02*
X123753524Y-87322819D01*
X123753524Y-87322819D02*
X123658286Y-87275200D01*
X123658286Y-87275200D02*
X123610667Y-87227580D01*
%TO.C,D2*%
X125753905Y-104340819D02*
X125753905Y-103340819D01*
X125753905Y-103340819D02*
X125992000Y-103340819D01*
X125992000Y-103340819D02*
X126134857Y-103388438D01*
X126134857Y-103388438D02*
X126230095Y-103483676D01*
X126230095Y-103483676D02*
X126277714Y-103578914D01*
X126277714Y-103578914D02*
X126325333Y-103769390D01*
X126325333Y-103769390D02*
X126325333Y-103912247D01*
X126325333Y-103912247D02*
X126277714Y-104102723D01*
X126277714Y-104102723D02*
X126230095Y-104197961D01*
X126230095Y-104197961D02*
X126134857Y-104293200D01*
X126134857Y-104293200D02*
X125992000Y-104340819D01*
X125992000Y-104340819D02*
X125753905Y-104340819D01*
X126706286Y-103436057D02*
X126753905Y-103388438D01*
X126753905Y-103388438D02*
X126849143Y-103340819D01*
X126849143Y-103340819D02*
X127087238Y-103340819D01*
X127087238Y-103340819D02*
X127182476Y-103388438D01*
X127182476Y-103388438D02*
X127230095Y-103436057D01*
X127230095Y-103436057D02*
X127277714Y-103531295D01*
X127277714Y-103531295D02*
X127277714Y-103626533D01*
X127277714Y-103626533D02*
X127230095Y-103769390D01*
X127230095Y-103769390D02*
X126658667Y-104340819D01*
X126658667Y-104340819D02*
X127277714Y-104340819D01*
D11*
%TO.C,RY1*%
X156774761Y-68177419D02*
X156441428Y-67701228D01*
X156203333Y-68177419D02*
X156203333Y-67177419D01*
X156203333Y-67177419D02*
X156584285Y-67177419D01*
X156584285Y-67177419D02*
X156679523Y-67225038D01*
X156679523Y-67225038D02*
X156727142Y-67272657D01*
X156727142Y-67272657D02*
X156774761Y-67367895D01*
X156774761Y-67367895D02*
X156774761Y-67510752D01*
X156774761Y-67510752D02*
X156727142Y-67605990D01*
X156727142Y-67605990D02*
X156679523Y-67653609D01*
X156679523Y-67653609D02*
X156584285Y-67701228D01*
X156584285Y-67701228D02*
X156203333Y-67701228D01*
X157393809Y-67701228D02*
X157393809Y-68177419D01*
X157060476Y-67177419D02*
X157393809Y-67701228D01*
X157393809Y-67701228D02*
X157727142Y-67177419D01*
X158584285Y-68177419D02*
X158012857Y-68177419D01*
X158298571Y-68177419D02*
X158298571Y-67177419D01*
X158298571Y-67177419D02*
X158203333Y-67320276D01*
X158203333Y-67320276D02*
X158108095Y-67415514D01*
X158108095Y-67415514D02*
X158012857Y-67463133D01*
D10*
%TO.C,R3*%
X120483333Y-71744819D02*
X120150000Y-71268628D01*
X119911905Y-71744819D02*
X119911905Y-70744819D01*
X119911905Y-70744819D02*
X120292857Y-70744819D01*
X120292857Y-70744819D02*
X120388095Y-70792438D01*
X120388095Y-70792438D02*
X120435714Y-70840057D01*
X120435714Y-70840057D02*
X120483333Y-70935295D01*
X120483333Y-70935295D02*
X120483333Y-71078152D01*
X120483333Y-71078152D02*
X120435714Y-71173390D01*
X120435714Y-71173390D02*
X120388095Y-71221009D01*
X120388095Y-71221009D02*
X120292857Y-71268628D01*
X120292857Y-71268628D02*
X119911905Y-71268628D01*
X120816667Y-70744819D02*
X121435714Y-70744819D01*
X121435714Y-70744819D02*
X121102381Y-71125771D01*
X121102381Y-71125771D02*
X121245238Y-71125771D01*
X121245238Y-71125771D02*
X121340476Y-71173390D01*
X121340476Y-71173390D02*
X121388095Y-71221009D01*
X121388095Y-71221009D02*
X121435714Y-71316247D01*
X121435714Y-71316247D02*
X121435714Y-71554342D01*
X121435714Y-71554342D02*
X121388095Y-71649580D01*
X121388095Y-71649580D02*
X121340476Y-71697200D01*
X121340476Y-71697200D02*
X121245238Y-71744819D01*
X121245238Y-71744819D02*
X120959524Y-71744819D01*
X120959524Y-71744819D02*
X120864286Y-71697200D01*
X120864286Y-71697200D02*
X120816667Y-71649580D01*
D11*
%TO.C,J4*%
X179797419Y-76533333D02*
X180511704Y-76533333D01*
X180511704Y-76533333D02*
X180654561Y-76580952D01*
X180654561Y-76580952D02*
X180749800Y-76676190D01*
X180749800Y-76676190D02*
X180797419Y-76819047D01*
X180797419Y-76819047D02*
X180797419Y-76914285D01*
X180130752Y-75628571D02*
X180797419Y-75628571D01*
X179749800Y-75866666D02*
X180464085Y-76104761D01*
X180464085Y-76104761D02*
X180464085Y-75485714D01*
D10*
%TO.C,R2*%
X142694819Y-76112666D02*
X142218628Y-76445999D01*
X142694819Y-76684094D02*
X141694819Y-76684094D01*
X141694819Y-76684094D02*
X141694819Y-76303142D01*
X141694819Y-76303142D02*
X141742438Y-76207904D01*
X141742438Y-76207904D02*
X141790057Y-76160285D01*
X141790057Y-76160285D02*
X141885295Y-76112666D01*
X141885295Y-76112666D02*
X142028152Y-76112666D01*
X142028152Y-76112666D02*
X142123390Y-76160285D01*
X142123390Y-76160285D02*
X142171009Y-76207904D01*
X142171009Y-76207904D02*
X142218628Y-76303142D01*
X142218628Y-76303142D02*
X142218628Y-76684094D01*
X141790057Y-75731713D02*
X141742438Y-75684094D01*
X141742438Y-75684094D02*
X141694819Y-75588856D01*
X141694819Y-75588856D02*
X141694819Y-75350761D01*
X141694819Y-75350761D02*
X141742438Y-75255523D01*
X141742438Y-75255523D02*
X141790057Y-75207904D01*
X141790057Y-75207904D02*
X141885295Y-75160285D01*
X141885295Y-75160285D02*
X141980533Y-75160285D01*
X141980533Y-75160285D02*
X142123390Y-75207904D01*
X142123390Y-75207904D02*
X142694819Y-75779332D01*
X142694819Y-75779332D02*
X142694819Y-75160285D01*
%TO.C,TP5*%
X132850095Y-88100819D02*
X133421523Y-88100819D01*
X133135809Y-89100819D02*
X133135809Y-88100819D01*
X133754857Y-89100819D02*
X133754857Y-88100819D01*
X133754857Y-88100819D02*
X134135809Y-88100819D01*
X134135809Y-88100819D02*
X134231047Y-88148438D01*
X134231047Y-88148438D02*
X134278666Y-88196057D01*
X134278666Y-88196057D02*
X134326285Y-88291295D01*
X134326285Y-88291295D02*
X134326285Y-88434152D01*
X134326285Y-88434152D02*
X134278666Y-88529390D01*
X134278666Y-88529390D02*
X134231047Y-88577009D01*
X134231047Y-88577009D02*
X134135809Y-88624628D01*
X134135809Y-88624628D02*
X133754857Y-88624628D01*
X135231047Y-88100819D02*
X134754857Y-88100819D01*
X134754857Y-88100819D02*
X134707238Y-88577009D01*
X134707238Y-88577009D02*
X134754857Y-88529390D01*
X134754857Y-88529390D02*
X134850095Y-88481771D01*
X134850095Y-88481771D02*
X135088190Y-88481771D01*
X135088190Y-88481771D02*
X135183428Y-88529390D01*
X135183428Y-88529390D02*
X135231047Y-88577009D01*
X135231047Y-88577009D02*
X135278666Y-88672247D01*
X135278666Y-88672247D02*
X135278666Y-88910342D01*
X135278666Y-88910342D02*
X135231047Y-89005580D01*
X135231047Y-89005580D02*
X135183428Y-89053200D01*
X135183428Y-89053200D02*
X135088190Y-89100819D01*
X135088190Y-89100819D02*
X134850095Y-89100819D01*
X134850095Y-89100819D02*
X134754857Y-89053200D01*
X134754857Y-89053200D02*
X134707238Y-89005580D01*
D11*
%TO.C,CB1*%
X169513333Y-82912180D02*
X169465714Y-82959800D01*
X169465714Y-82959800D02*
X169322857Y-83007419D01*
X169322857Y-83007419D02*
X169227619Y-83007419D01*
X169227619Y-83007419D02*
X169084762Y-82959800D01*
X169084762Y-82959800D02*
X168989524Y-82864561D01*
X168989524Y-82864561D02*
X168941905Y-82769323D01*
X168941905Y-82769323D02*
X168894286Y-82578847D01*
X168894286Y-82578847D02*
X168894286Y-82435990D01*
X168894286Y-82435990D02*
X168941905Y-82245514D01*
X168941905Y-82245514D02*
X168989524Y-82150276D01*
X168989524Y-82150276D02*
X169084762Y-82055038D01*
X169084762Y-82055038D02*
X169227619Y-82007419D01*
X169227619Y-82007419D02*
X169322857Y-82007419D01*
X169322857Y-82007419D02*
X169465714Y-82055038D01*
X169465714Y-82055038D02*
X169513333Y-82102657D01*
X170275238Y-82483609D02*
X170418095Y-82531228D01*
X170418095Y-82531228D02*
X170465714Y-82578847D01*
X170465714Y-82578847D02*
X170513333Y-82674085D01*
X170513333Y-82674085D02*
X170513333Y-82816942D01*
X170513333Y-82816942D02*
X170465714Y-82912180D01*
X170465714Y-82912180D02*
X170418095Y-82959800D01*
X170418095Y-82959800D02*
X170322857Y-83007419D01*
X170322857Y-83007419D02*
X169941905Y-83007419D01*
X169941905Y-83007419D02*
X169941905Y-82007419D01*
X169941905Y-82007419D02*
X170275238Y-82007419D01*
X170275238Y-82007419D02*
X170370476Y-82055038D01*
X170370476Y-82055038D02*
X170418095Y-82102657D01*
X170418095Y-82102657D02*
X170465714Y-82197895D01*
X170465714Y-82197895D02*
X170465714Y-82293133D01*
X170465714Y-82293133D02*
X170418095Y-82388371D01*
X170418095Y-82388371D02*
X170370476Y-82435990D01*
X170370476Y-82435990D02*
X170275238Y-82483609D01*
X170275238Y-82483609D02*
X169941905Y-82483609D01*
X171465714Y-83007419D02*
X170894286Y-83007419D01*
X171180000Y-83007419D02*
X171180000Y-82007419D01*
X171180000Y-82007419D02*
X171084762Y-82150276D01*
X171084762Y-82150276D02*
X170989524Y-82245514D01*
X170989524Y-82245514D02*
X170894286Y-82293133D01*
D10*
%TO.C,TP1*%
X118372095Y-98768819D02*
X118943523Y-98768819D01*
X118657809Y-99768819D02*
X118657809Y-98768819D01*
X119276857Y-99768819D02*
X119276857Y-98768819D01*
X119276857Y-98768819D02*
X119657809Y-98768819D01*
X119657809Y-98768819D02*
X119753047Y-98816438D01*
X119753047Y-98816438D02*
X119800666Y-98864057D01*
X119800666Y-98864057D02*
X119848285Y-98959295D01*
X119848285Y-98959295D02*
X119848285Y-99102152D01*
X119848285Y-99102152D02*
X119800666Y-99197390D01*
X119800666Y-99197390D02*
X119753047Y-99245009D01*
X119753047Y-99245009D02*
X119657809Y-99292628D01*
X119657809Y-99292628D02*
X119276857Y-99292628D01*
X120800666Y-99768819D02*
X120229238Y-99768819D01*
X120514952Y-99768819D02*
X120514952Y-98768819D01*
X120514952Y-98768819D02*
X120419714Y-98911676D01*
X120419714Y-98911676D02*
X120324476Y-99006914D01*
X120324476Y-99006914D02*
X120229238Y-99054533D01*
%TO.C,TP4*%
X144026095Y-88100819D02*
X144597523Y-88100819D01*
X144311809Y-89100819D02*
X144311809Y-88100819D01*
X144930857Y-89100819D02*
X144930857Y-88100819D01*
X144930857Y-88100819D02*
X145311809Y-88100819D01*
X145311809Y-88100819D02*
X145407047Y-88148438D01*
X145407047Y-88148438D02*
X145454666Y-88196057D01*
X145454666Y-88196057D02*
X145502285Y-88291295D01*
X145502285Y-88291295D02*
X145502285Y-88434152D01*
X145502285Y-88434152D02*
X145454666Y-88529390D01*
X145454666Y-88529390D02*
X145407047Y-88577009D01*
X145407047Y-88577009D02*
X145311809Y-88624628D01*
X145311809Y-88624628D02*
X144930857Y-88624628D01*
X146359428Y-88434152D02*
X146359428Y-89100819D01*
X146121333Y-88053200D02*
X145883238Y-88767485D01*
X145883238Y-88767485D02*
X146502285Y-88767485D01*
%TO.C,TP3*%
X130056095Y-68288819D02*
X130627523Y-68288819D01*
X130341809Y-69288819D02*
X130341809Y-68288819D01*
X130960857Y-69288819D02*
X130960857Y-68288819D01*
X130960857Y-68288819D02*
X131341809Y-68288819D01*
X131341809Y-68288819D02*
X131437047Y-68336438D01*
X131437047Y-68336438D02*
X131484666Y-68384057D01*
X131484666Y-68384057D02*
X131532285Y-68479295D01*
X131532285Y-68479295D02*
X131532285Y-68622152D01*
X131532285Y-68622152D02*
X131484666Y-68717390D01*
X131484666Y-68717390D02*
X131437047Y-68765009D01*
X131437047Y-68765009D02*
X131341809Y-68812628D01*
X131341809Y-68812628D02*
X130960857Y-68812628D01*
X131865619Y-68288819D02*
X132484666Y-68288819D01*
X132484666Y-68288819D02*
X132151333Y-68669771D01*
X132151333Y-68669771D02*
X132294190Y-68669771D01*
X132294190Y-68669771D02*
X132389428Y-68717390D01*
X132389428Y-68717390D02*
X132437047Y-68765009D01*
X132437047Y-68765009D02*
X132484666Y-68860247D01*
X132484666Y-68860247D02*
X132484666Y-69098342D01*
X132484666Y-69098342D02*
X132437047Y-69193580D01*
X132437047Y-69193580D02*
X132389428Y-69241200D01*
X132389428Y-69241200D02*
X132294190Y-69288819D01*
X132294190Y-69288819D02*
X132008476Y-69288819D01*
X132008476Y-69288819D02*
X131913238Y-69241200D01*
X131913238Y-69241200D02*
X131865619Y-69193580D01*
%TO.C,R1*%
X134453333Y-95704819D02*
X134120000Y-95228628D01*
X133881905Y-95704819D02*
X133881905Y-94704819D01*
X133881905Y-94704819D02*
X134262857Y-94704819D01*
X134262857Y-94704819D02*
X134358095Y-94752438D01*
X134358095Y-94752438D02*
X134405714Y-94800057D01*
X134405714Y-94800057D02*
X134453333Y-94895295D01*
X134453333Y-94895295D02*
X134453333Y-95038152D01*
X134453333Y-95038152D02*
X134405714Y-95133390D01*
X134405714Y-95133390D02*
X134358095Y-95181009D01*
X134358095Y-95181009D02*
X134262857Y-95228628D01*
X134262857Y-95228628D02*
X133881905Y-95228628D01*
X135405714Y-95704819D02*
X134834286Y-95704819D01*
X135120000Y-95704819D02*
X135120000Y-94704819D01*
X135120000Y-94704819D02*
X135024762Y-94847676D01*
X135024762Y-94847676D02*
X134929524Y-94942914D01*
X134929524Y-94942914D02*
X134834286Y-94990533D01*
%TO.C,C3*%
X130135333Y-74019580D02*
X130087714Y-74067200D01*
X130087714Y-74067200D02*
X129944857Y-74114819D01*
X129944857Y-74114819D02*
X129849619Y-74114819D01*
X129849619Y-74114819D02*
X129706762Y-74067200D01*
X129706762Y-74067200D02*
X129611524Y-73971961D01*
X129611524Y-73971961D02*
X129563905Y-73876723D01*
X129563905Y-73876723D02*
X129516286Y-73686247D01*
X129516286Y-73686247D02*
X129516286Y-73543390D01*
X129516286Y-73543390D02*
X129563905Y-73352914D01*
X129563905Y-73352914D02*
X129611524Y-73257676D01*
X129611524Y-73257676D02*
X129706762Y-73162438D01*
X129706762Y-73162438D02*
X129849619Y-73114819D01*
X129849619Y-73114819D02*
X129944857Y-73114819D01*
X129944857Y-73114819D02*
X130087714Y-73162438D01*
X130087714Y-73162438D02*
X130135333Y-73210057D01*
X130468667Y-73114819D02*
X131087714Y-73114819D01*
X131087714Y-73114819D02*
X130754381Y-73495771D01*
X130754381Y-73495771D02*
X130897238Y-73495771D01*
X130897238Y-73495771D02*
X130992476Y-73543390D01*
X130992476Y-73543390D02*
X131040095Y-73591009D01*
X131040095Y-73591009D02*
X131087714Y-73686247D01*
X131087714Y-73686247D02*
X131087714Y-73924342D01*
X131087714Y-73924342D02*
X131040095Y-74019580D01*
X131040095Y-74019580D02*
X130992476Y-74067200D01*
X130992476Y-74067200D02*
X130897238Y-74114819D01*
X130897238Y-74114819D02*
X130611524Y-74114819D01*
X130611524Y-74114819D02*
X130516286Y-74067200D01*
X130516286Y-74067200D02*
X130468667Y-74019580D01*
D11*
%TO.C,J5*%
X169846666Y-97287419D02*
X169846666Y-98001704D01*
X169846666Y-98001704D02*
X169799047Y-98144561D01*
X169799047Y-98144561D02*
X169703809Y-98239800D01*
X169703809Y-98239800D02*
X169560952Y-98287419D01*
X169560952Y-98287419D02*
X169465714Y-98287419D01*
X170799047Y-97287419D02*
X170322857Y-97287419D01*
X170322857Y-97287419D02*
X170275238Y-97763609D01*
X170275238Y-97763609D02*
X170322857Y-97715990D01*
X170322857Y-97715990D02*
X170418095Y-97668371D01*
X170418095Y-97668371D02*
X170656190Y-97668371D01*
X170656190Y-97668371D02*
X170751428Y-97715990D01*
X170751428Y-97715990D02*
X170799047Y-97763609D01*
X170799047Y-97763609D02*
X170846666Y-97858847D01*
X170846666Y-97858847D02*
X170846666Y-98096942D01*
X170846666Y-98096942D02*
X170799047Y-98192180D01*
X170799047Y-98192180D02*
X170751428Y-98239800D01*
X170751428Y-98239800D02*
X170656190Y-98287419D01*
X170656190Y-98287419D02*
X170418095Y-98287419D01*
X170418095Y-98287419D02*
X170322857Y-98239800D01*
X170322857Y-98239800D02*
X170275238Y-98192180D01*
D10*
%TO.C,C1*%
X140041333Y-106023580D02*
X139993714Y-106071200D01*
X139993714Y-106071200D02*
X139850857Y-106118819D01*
X139850857Y-106118819D02*
X139755619Y-106118819D01*
X139755619Y-106118819D02*
X139612762Y-106071200D01*
X139612762Y-106071200D02*
X139517524Y-105975961D01*
X139517524Y-105975961D02*
X139469905Y-105880723D01*
X139469905Y-105880723D02*
X139422286Y-105690247D01*
X139422286Y-105690247D02*
X139422286Y-105547390D01*
X139422286Y-105547390D02*
X139469905Y-105356914D01*
X139469905Y-105356914D02*
X139517524Y-105261676D01*
X139517524Y-105261676D02*
X139612762Y-105166438D01*
X139612762Y-105166438D02*
X139755619Y-105118819D01*
X139755619Y-105118819D02*
X139850857Y-105118819D01*
X139850857Y-105118819D02*
X139993714Y-105166438D01*
X139993714Y-105166438D02*
X140041333Y-105214057D01*
X140993714Y-106118819D02*
X140422286Y-106118819D01*
X140708000Y-106118819D02*
X140708000Y-105118819D01*
X140708000Y-105118819D02*
X140612762Y-105261676D01*
X140612762Y-105261676D02*
X140517524Y-105356914D01*
X140517524Y-105356914D02*
X140422286Y-105404533D01*
D11*
%TO.C,Q1*%
X150018761Y-92754657D02*
X149923523Y-92707038D01*
X149923523Y-92707038D02*
X149828285Y-92611800D01*
X149828285Y-92611800D02*
X149685428Y-92468942D01*
X149685428Y-92468942D02*
X149590190Y-92421323D01*
X149590190Y-92421323D02*
X149494952Y-92421323D01*
X149542571Y-92659419D02*
X149447333Y-92611800D01*
X149447333Y-92611800D02*
X149352095Y-92516561D01*
X149352095Y-92516561D02*
X149304476Y-92326085D01*
X149304476Y-92326085D02*
X149304476Y-91992752D01*
X149304476Y-91992752D02*
X149352095Y-91802276D01*
X149352095Y-91802276D02*
X149447333Y-91707038D01*
X149447333Y-91707038D02*
X149542571Y-91659419D01*
X149542571Y-91659419D02*
X149733047Y-91659419D01*
X149733047Y-91659419D02*
X149828285Y-91707038D01*
X149828285Y-91707038D02*
X149923523Y-91802276D01*
X149923523Y-91802276D02*
X149971142Y-91992752D01*
X149971142Y-91992752D02*
X149971142Y-92326085D01*
X149971142Y-92326085D02*
X149923523Y-92516561D01*
X149923523Y-92516561D02*
X149828285Y-92611800D01*
X149828285Y-92611800D02*
X149733047Y-92659419D01*
X149733047Y-92659419D02*
X149542571Y-92659419D01*
X150923523Y-92659419D02*
X150352095Y-92659419D01*
X150637809Y-92659419D02*
X150637809Y-91659419D01*
X150637809Y-91659419D02*
X150542571Y-91802276D01*
X150542571Y-91802276D02*
X150447333Y-91897514D01*
X150447333Y-91897514D02*
X150352095Y-91945133D01*
%TO.C,J3*%
X179837419Y-93043333D02*
X180551704Y-93043333D01*
X180551704Y-93043333D02*
X180694561Y-93090952D01*
X180694561Y-93090952D02*
X180789800Y-93186190D01*
X180789800Y-93186190D02*
X180837419Y-93329047D01*
X180837419Y-93329047D02*
X180837419Y-93424285D01*
X179837419Y-92662380D02*
X179837419Y-92043333D01*
X179837419Y-92043333D02*
X180218371Y-92376666D01*
X180218371Y-92376666D02*
X180218371Y-92233809D01*
X180218371Y-92233809D02*
X180265990Y-92138571D01*
X180265990Y-92138571D02*
X180313609Y-92090952D01*
X180313609Y-92090952D02*
X180408847Y-92043333D01*
X180408847Y-92043333D02*
X180646942Y-92043333D01*
X180646942Y-92043333D02*
X180742180Y-92090952D01*
X180742180Y-92090952D02*
X180789800Y-92138571D01*
X180789800Y-92138571D02*
X180837419Y-92233809D01*
X180837419Y-92233809D02*
X180837419Y-92519523D01*
X180837419Y-92519523D02*
X180789800Y-92614761D01*
X180789800Y-92614761D02*
X180742180Y-92662380D01*
D10*
%TO.C,J2*%
X114982666Y-89092819D02*
X114982666Y-89807104D01*
X114982666Y-89807104D02*
X114935047Y-89949961D01*
X114935047Y-89949961D02*
X114839809Y-90045200D01*
X114839809Y-90045200D02*
X114696952Y-90092819D01*
X114696952Y-90092819D02*
X114601714Y-90092819D01*
X115411238Y-89188057D02*
X115458857Y-89140438D01*
X115458857Y-89140438D02*
X115554095Y-89092819D01*
X115554095Y-89092819D02*
X115792190Y-89092819D01*
X115792190Y-89092819D02*
X115887428Y-89140438D01*
X115887428Y-89140438D02*
X115935047Y-89188057D01*
X115935047Y-89188057D02*
X115982666Y-89283295D01*
X115982666Y-89283295D02*
X115982666Y-89378533D01*
X115982666Y-89378533D02*
X115935047Y-89521390D01*
X115935047Y-89521390D02*
X115363619Y-90092819D01*
X115363619Y-90092819D02*
X115982666Y-90092819D01*
D12*
%TO.C,D1*%
X131805000Y-85110000D02*
X134895000Y-85110000D01*
X134894830Y-85110000D02*
G75*
G03*
X133349538Y-79560000I-1544830J2560000D01*
G01*
X133350462Y-79560001D02*
G75*
G03*
X131805170Y-85109999I-462J-2989999D01*
G01*
X135850000Y-82550000D02*
G75*
G03*
X135850000Y-82550000I-2500000J0D01*
G01*
%TO.C,TP2*%
X121850000Y-93910000D02*
X119450000Y-93910000D01*
X119450000Y-93910000D02*
X119450000Y-91510000D01*
X119450000Y-91510000D02*
X121850000Y-91510000D01*
X121850000Y-91510000D02*
X121850000Y-93910000D01*
%TO.C,D3*%
X122915000Y-85110000D02*
X126005000Y-85110000D01*
X126004830Y-85110000D02*
G75*
G03*
X124459538Y-79560000I-1544830J2560000D01*
G01*
X124460462Y-79560001D02*
G75*
G03*
X122915170Y-85109999I-462J-2989999D01*
G01*
X126960000Y-82550000D02*
G75*
G03*
X126960000Y-82550000I-2500000J0D01*
G01*
%TO.C,D2*%
X130830000Y-100605000D02*
X130830000Y-97515000D01*
X130830000Y-97515170D02*
G75*
G03*
X125280000Y-99060462I-2560000J-1544830D01*
G01*
X125280001Y-99059538D02*
G75*
G03*
X130829999Y-100604830I2989999J-462D01*
G01*
X130770000Y-99060000D02*
G75*
G03*
X130770000Y-99060000I-2500000J0D01*
G01*
D11*
%TO.C,RY1*%
X144460000Y-68310000D02*
X175180000Y-68310000D01*
X175180000Y-68310000D02*
X175180000Y-79130000D01*
X175180000Y-79130000D02*
X144460000Y-79130000D01*
X144460000Y-79130000D02*
X144460000Y-68310000D01*
D12*
%TO.C,R3*%
X124690000Y-73660000D02*
X123920000Y-73660000D01*
X116610000Y-73660000D02*
X117380000Y-73660000D01*
X117380000Y-72290000D02*
X117380000Y-75030000D01*
X123920000Y-75030000D02*
X123920000Y-72290000D01*
X117380000Y-75030000D02*
X123920000Y-75030000D01*
X123920000Y-72290000D02*
X117380000Y-72290000D01*
D11*
%TO.C,J4*%
X194730000Y-82540000D02*
X194730000Y-69860000D01*
X181620000Y-82540000D02*
X195840000Y-82540000D01*
X195840000Y-82540000D02*
X195840000Y-69860000D01*
X195840000Y-69860000D02*
X181620000Y-69860000D01*
X181620000Y-69860000D02*
X181620000Y-82540000D01*
X188230000Y-69860000D02*
X190230000Y-69860000D01*
X190230000Y-69860000D02*
X190230000Y-69596000D01*
X190230000Y-69596000D02*
X188230000Y-69596000D01*
X188230000Y-69596000D02*
X188230000Y-69860000D01*
G36*
X188230000Y-69860000D02*
G01*
X190230000Y-69860000D01*
X190230000Y-69596000D01*
X188230000Y-69596000D01*
X188230000Y-69860000D01*
G37*
D12*
%TO.C,R2*%
X139700000Y-72160000D02*
X139700000Y-72930000D01*
X139700000Y-80240000D02*
X139700000Y-79470000D01*
X138330000Y-79470000D02*
X141070000Y-79470000D01*
X141070000Y-72930000D02*
X138330000Y-72930000D01*
X141070000Y-79470000D02*
X141070000Y-72930000D01*
X138330000Y-72930000D02*
X138330000Y-79470000D01*
%TO.C,TP5*%
X138360000Y-88830000D02*
X135960000Y-88830000D01*
X135960000Y-88830000D02*
X135960000Y-86430000D01*
X135960000Y-86430000D02*
X138360000Y-86430000D01*
X138360000Y-86430000D02*
X138360000Y-88830000D01*
D11*
%TO.C,CB1*%
X163820000Y-83820000D02*
X176530000Y-83820000D01*
X176530000Y-83820000D02*
X176530000Y-96530000D01*
X176530000Y-96530000D02*
X163820000Y-96530000D01*
X163820000Y-96530000D02*
X163820000Y-83820000D01*
D12*
%TO.C,TP1*%
X117270000Y-100330000D02*
G75*
G03*
X117270000Y-100330000I-1700000J0D01*
G01*
%TO.C,TP4*%
X143440000Y-88830000D02*
X141040000Y-88830000D01*
X141040000Y-88830000D02*
X141040000Y-86430000D01*
X141040000Y-86430000D02*
X143440000Y-86430000D01*
X143440000Y-86430000D02*
X143440000Y-88830000D01*
%TO.C,TP3*%
X135820000Y-71050000D02*
X133420000Y-71050000D01*
X133420000Y-71050000D02*
X133420000Y-68650000D01*
X133420000Y-68650000D02*
X135820000Y-68650000D01*
X135820000Y-68650000D02*
X135820000Y-71050000D01*
%TO.C,R1*%
X138660000Y-92710000D02*
X137890000Y-92710000D01*
X130580000Y-92710000D02*
X131350000Y-92710000D01*
X131350000Y-91340000D02*
X131350000Y-94080000D01*
X137890000Y-94080000D02*
X137890000Y-91340000D01*
X131350000Y-94080000D02*
X137890000Y-94080000D01*
X137890000Y-91340000D02*
X131350000Y-91340000D01*
%TO.C,C3*%
X134680000Y-77570000D02*
X134680000Y-74830000D01*
X134680000Y-77570000D02*
X129440000Y-77570000D01*
X129440000Y-77570000D02*
X129440000Y-74830000D01*
X134680000Y-74830000D02*
X129440000Y-74830000D01*
D11*
%TO.C,J5*%
X158760000Y-114760000D02*
X181600000Y-114760000D01*
X158760000Y-101650000D02*
X181600000Y-101650000D01*
X181600000Y-101650000D02*
X181600000Y-115870000D01*
X181600000Y-115870000D02*
X158760000Y-115870000D01*
X158760000Y-115870000D02*
X158760000Y-101650000D01*
X181600000Y-108260000D02*
X181864000Y-108260000D01*
X181864000Y-108260000D02*
X181864000Y-110260000D01*
X181864000Y-110260000D02*
X181600000Y-110260000D01*
X181600000Y-110260000D02*
X181600000Y-108260000D01*
G36*
X181600000Y-108260000D02*
G01*
X181864000Y-108260000D01*
X181864000Y-110260000D01*
X181600000Y-110260000D01*
X181600000Y-108260000D01*
G37*
D12*
%TO.C,C1*%
X138645000Y-102990000D02*
X138330000Y-102990000D01*
X141070000Y-97750000D02*
X141070000Y-102990000D01*
X138330000Y-97750000D02*
X138330000Y-102990000D01*
X141070000Y-102990000D02*
X140755000Y-102990000D01*
X138645000Y-97750000D02*
X138330000Y-97750000D01*
X141070000Y-97750000D02*
X140755000Y-97750000D01*
%TO.C,Q1*%
X144825501Y-100004448D02*
X145737669Y-99092281D01*
X143835552Y-99014499D02*
X144825501Y-100004448D01*
X144747719Y-98102331D02*
X143835552Y-99014499D01*
X145737456Y-99092150D02*
G75*
G03*
X144747719Y-98102331I1582544J2572150D01*
G01*
D11*
%TO.C,J3*%
X194770000Y-99050000D02*
X194770000Y-86370000D01*
X181660000Y-99050000D02*
X195880000Y-99050000D01*
X195880000Y-99050000D02*
X195880000Y-86370000D01*
X195880000Y-86370000D02*
X181660000Y-86370000D01*
X181660000Y-86370000D02*
X181660000Y-99050000D01*
X188270000Y-86370000D02*
X190270000Y-86370000D01*
X190270000Y-86370000D02*
X190270000Y-86106000D01*
X190270000Y-86106000D02*
X188270000Y-86106000D01*
X188270000Y-86106000D02*
X188270000Y-86370000D01*
G36*
X188270000Y-86370000D02*
G01*
X190270000Y-86370000D01*
X190270000Y-86106000D01*
X188270000Y-86106000D01*
X188270000Y-86370000D01*
G37*
D12*
%TO.C,J2*%
X115316000Y-88198000D02*
X113986000Y-88198000D01*
X113986000Y-85598000D02*
X113986000Y-80458000D01*
X116646000Y-85598000D02*
X116646000Y-80458000D01*
X116646000Y-85598000D02*
X113986000Y-85598000D01*
X113986000Y-88198000D02*
X113986000Y-86868000D01*
X116646000Y-80458000D02*
X113986000Y-80458000D01*
%TD*%
M02*
