%TF.GenerationSoftware,KiCad,Pcbnew,7.0.5-0*%
%TF.CreationDate,2024-01-28T18:46:13+01:00*%
%TF.ProjectId,controller,636f6e74-726f-46c6-9c65-722e6b696361,1.0.0*%
%TF.SameCoordinates,Original*%
%TF.FileFunction,Copper,L2,Bot*%
%TF.FilePolarity,Positive*%
%FSLAX46Y46*%
G04 Gerber Fmt 4.6, Leading zero omitted, Abs format (unit mm)*
G04 Created by KiCad (PCBNEW 7.0.5-0) date 2024-01-28 18:46:13*
%MOMM*%
%LPD*%
G01*
G04 APERTURE LIST*
%TA.AperFunction,ComponentPad*%
%ADD10R,1.800000X1.800000*%
%TD*%
%TA.AperFunction,ComponentPad*%
%ADD11C,1.800000*%
%TD*%
%TA.AperFunction,ComponentPad*%
%ADD12O,3.200000X2.800000*%
%TD*%
%TA.AperFunction,ComponentPad*%
%ADD13R,2.800000X2.800000*%
%TD*%
%TA.AperFunction,ComponentPad*%
%ADD14O,3.600000X3.000000*%
%TD*%
%TA.AperFunction,ComponentPad*%
%ADD15R,3.000000X3.000000*%
%TD*%
%TA.AperFunction,ComponentPad*%
%ADD16C,1.600000*%
%TD*%
%TA.AperFunction,ComponentPad*%
%ADD17O,1.600000X1.600000*%
%TD*%
%TA.AperFunction,ComponentPad*%
%ADD18C,3.000000*%
%TD*%
%TA.AperFunction,ComponentPad*%
%ADD19O,3.000000X3.600000*%
%TD*%
%TA.AperFunction,ComponentPad*%
%ADD20O,1.500000X1.700000*%
%TD*%
%TA.AperFunction,ComponentPad*%
%ADD21O,1.500000X1.500000*%
%TD*%
%TA.AperFunction,ComponentPad*%
%ADD22R,1.700000X1.700000*%
%TD*%
%TA.AperFunction,ComponentPad*%
%ADD23O,1.700000X1.700000*%
%TD*%
%TA.AperFunction,Conductor*%
%ADD24C,0.400000*%
%TD*%
%TA.AperFunction,Conductor*%
%ADD25C,4.000000*%
%TD*%
G04 APERTURE END LIST*
D10*
%TO.P,D1,1,K*%
%TO.N,Net-(D1-K)*%
X133350000Y-83820000D03*
D11*
%TO.P,D1,2,A*%
%TO.N,+5V*%
X133350000Y-81280000D03*
%TD*%
D10*
%TO.P,D3,1,K*%
%TO.N,GND*%
X124460000Y-83820000D03*
D11*
%TO.P,D3,2,A*%
%TO.N,Net-(D3-A)*%
X124460000Y-81280000D03*
%TD*%
D10*
%TO.P,D2,1,K*%
%TO.N,Net-(D2-K)*%
X129540000Y-99060000D03*
D11*
%TO.P,D2,2,A*%
%TO.N,Net-(D2-A)*%
X127000000Y-99060000D03*
%TD*%
D12*
%TO.P,RY1,1,A1*%
%TO.N,Net-(RY1-A1)*%
X147370000Y-69970000D03*
D13*
%TO.P,RY1,2,A2*%
%TO.N,Net-(Q1-C)*%
X147370000Y-77470000D03*
D14*
%TO.P,RY1,3,11*%
%TO.N,/Fuse*%
X169570000Y-77470000D03*
%TO.P,RY1,4,12*%
%TO.N,unconnected-(RY1-12-Pad4)*%
X166370000Y-69970000D03*
D15*
%TO.P,RY1,5,14*%
%TO.N,/Oven*%
X172770000Y-69970000D03*
%TD*%
D16*
%TO.P,R3,1*%
%TO.N,+5V*%
X115570000Y-73660000D03*
D17*
%TO.P,R3,2*%
%TO.N,Net-(D3-A)*%
X125730000Y-73660000D03*
%TD*%
D14*
%TO.P,J4,1,A*%
%TO.N,AC*%
X191730000Y-78740000D03*
%TO.P,J4,2,B*%
X186730000Y-78740000D03*
%TO.P,J4,3,C*%
%TO.N,/Oven*%
X191730000Y-73660000D03*
%TO.P,J4,4,D*%
X186730000Y-73660000D03*
%TD*%
D16*
%TO.P,R2,1*%
%TO.N,Net-(D1-K)*%
X139700000Y-81280000D03*
D17*
%TO.P,R2,2*%
%TO.N,Net-(RY1-A1)*%
X139700000Y-71120000D03*
%TD*%
D14*
%TO.P,CB1,1,A*%
%TO.N,/Fuse*%
X166370000Y-87630000D03*
%TO.P,CB1,2,B*%
X166370000Y-92710000D03*
%TO.P,CB1,3,C*%
%TO.N,Earth*%
X173990000Y-87630000D03*
%TO.P,CB1,4,D*%
X173990000Y-92710000D03*
%TD*%
D18*
%TO.P,TP1,1,1*%
%TO.N,GND*%
X115570000Y-100330000D03*
%TD*%
D16*
%TO.P,R1,1*%
%TO.N,Net-(D2-K)*%
X129540000Y-92710000D03*
D17*
%TO.P,R1,2*%
%TO.N,Net-(Q1-B)*%
X139700000Y-92710000D03*
%TD*%
D16*
%TO.P,C3,1*%
%TO.N,+5V*%
X133310000Y-76200000D03*
%TO.P,C3,2*%
%TO.N,GND*%
X130810000Y-76200000D03*
%TD*%
D19*
%TO.P,J5,1,A*%
%TO.N,/Oven*%
X162560000Y-111760000D03*
%TO.P,J5,2,B*%
X162560000Y-106760000D03*
%TO.P,J5,3,C*%
%TO.N,/Fuse*%
X167640000Y-111760000D03*
%TO.P,J5,4,D*%
X167640000Y-106760000D03*
%TO.P,J5,5,E*%
%TO.N,Earth*%
X172720000Y-111760000D03*
%TO.P,J5,6,F*%
X172720000Y-106760000D03*
%TO.P,J5,7,G*%
%TO.N,AC*%
X177800000Y-111760000D03*
%TO.P,J5,8,H*%
X177800000Y-106760000D03*
%TD*%
D16*
%TO.P,C1,1*%
%TO.N,Net-(Q1-B)*%
X139700000Y-97870000D03*
%TO.P,C1,2*%
%TO.N,GND*%
X139700000Y-102870000D03*
%TD*%
D20*
%TO.P,Q1,1,E*%
%TO.N,GND*%
X147320000Y-97790000D03*
D21*
%TO.P,Q1,2,B*%
%TO.N,Net-(Q1-B)*%
X148590000Y-96520000D03*
%TO.P,Q1,3,C*%
%TO.N,Net-(Q1-C)*%
X147320000Y-95250000D03*
%TD*%
D14*
%TO.P,J3,1,A*%
%TO.N,Earth*%
X191770000Y-95250000D03*
%TO.P,J3,2,B*%
X186770000Y-95250000D03*
%TO.P,J3,3,C*%
%TO.N,AC*%
X191770000Y-90170000D03*
%TO.P,J3,4,D*%
X186770000Y-90170000D03*
%TD*%
D22*
%TO.P,J2,1,Pin_1*%
%TO.N,GND*%
X115316000Y-86868000D03*
D23*
%TO.P,J2,2,Pin_2*%
%TO.N,Net-(D2-A)*%
X115316000Y-84328000D03*
%TO.P,J2,3,Pin_3*%
%TO.N,+5V*%
X115316000Y-81788000D03*
%TD*%
D24*
%TO.N,Net-(Q1-B)*%
X139700000Y-99060000D02*
X139700000Y-97870000D01*
X139700000Y-92710000D02*
X139700000Y-97870000D01*
X152400000Y-97790000D02*
X152400000Y-99060000D01*
X151130000Y-96520000D02*
X152400000Y-97790000D01*
X142240000Y-101600000D02*
X139700000Y-99060000D01*
X148590000Y-96520000D02*
X151130000Y-96520000D01*
X152400000Y-99060000D02*
X149860000Y-101600000D01*
X149860000Y-101600000D02*
X142240000Y-101600000D01*
%TO.N,+5V*%
X115316000Y-73914000D02*
X115570000Y-73660000D01*
X115570000Y-72390000D02*
X116840000Y-71120000D01*
X116840000Y-71120000D02*
X129540000Y-71120000D01*
X133310000Y-74890000D02*
X129540000Y-71120000D01*
X133350000Y-81280000D02*
X133350000Y-76240000D01*
X133350000Y-76240000D02*
X133310000Y-76200000D01*
X115570000Y-73660000D02*
X115570000Y-72390000D01*
X115316000Y-81788000D02*
X115316000Y-73914000D01*
X133310000Y-76200000D02*
X133310000Y-74890000D01*
%TO.N,/Fuse*%
X166370000Y-105490000D02*
X166370000Y-92710000D01*
X167640000Y-111760000D02*
X167640000Y-106760000D01*
D25*
X166370000Y-80670000D02*
X169570000Y-77470000D01*
X166370000Y-92710000D02*
X166370000Y-87630000D01*
D24*
X167640000Y-106760000D02*
X166370000Y-105490000D01*
D25*
X166370000Y-87630000D02*
X166370000Y-80670000D01*
D24*
%TO.N,Earth*%
X172720000Y-93980000D02*
X173990000Y-92710000D01*
D25*
X186770000Y-95250000D02*
X176530000Y-95250000D01*
X191770000Y-95250000D02*
X186770000Y-95250000D01*
X173990000Y-92710000D02*
X173990000Y-87630000D01*
X176530000Y-95250000D02*
X173990000Y-92710000D01*
D24*
X172720000Y-106760000D02*
X172720000Y-93980000D01*
X172720000Y-111760000D02*
X172720000Y-106760000D01*
%TO.N,Net-(D1-K)*%
X137160000Y-83820000D02*
X139700000Y-81280000D01*
X133350000Y-83820000D02*
X137160000Y-83820000D01*
%TO.N,Net-(D2-K)*%
X129540000Y-99060000D02*
X129540000Y-92710000D01*
%TO.N,Net-(Q1-C)*%
X147370000Y-95200000D02*
X147320000Y-95250000D01*
X147370000Y-77470000D02*
X147370000Y-95200000D01*
%TO.N,Net-(RY1-A1)*%
X139700000Y-71120000D02*
X140850000Y-69970000D01*
X140850000Y-69970000D02*
X147370000Y-69970000D01*
%TO.N,Net-(D3-A)*%
X125730000Y-80010000D02*
X124460000Y-81280000D01*
X125730000Y-73660000D02*
X125730000Y-80010000D01*
%TO.N,AC*%
X196850000Y-91440000D02*
X195580000Y-90170000D01*
X177800000Y-105410000D02*
X179070000Y-104140000D01*
X179070000Y-104140000D02*
X194310000Y-104140000D01*
X177800000Y-111760000D02*
X177800000Y-106760000D01*
D25*
X186770000Y-90170000D02*
X191770000Y-90170000D01*
X186730000Y-90130000D02*
X186770000Y-90170000D01*
D24*
X177800000Y-106760000D02*
X177800000Y-105410000D01*
D25*
X186730000Y-78740000D02*
X186730000Y-90130000D01*
D24*
X195580000Y-90170000D02*
X191770000Y-90170000D01*
D25*
X191730000Y-78740000D02*
X186730000Y-78740000D01*
D24*
X194310000Y-104140000D02*
X196850000Y-101600000D01*
X196850000Y-101600000D02*
X196850000Y-91440000D01*
%TO.N,/Oven*%
X162640000Y-106760000D02*
X161290000Y-105410000D01*
D25*
X183040000Y-69970000D02*
X172770000Y-69970000D01*
D24*
X170060000Y-69970000D02*
X172770000Y-69970000D01*
X162560000Y-106760000D02*
X161290000Y-105490000D01*
D25*
X191730000Y-73660000D02*
X186730000Y-73660000D01*
D24*
X161290000Y-105490000D02*
X161290000Y-78740000D01*
X161290000Y-78740000D02*
X170060000Y-69970000D01*
X162560000Y-111760000D02*
X162560000Y-106760000D01*
D25*
X186730000Y-73660000D02*
X183040000Y-69970000D01*
%TD*%
%TA.AperFunction,Conductor*%
%TO.N,GND*%
G36*
X156153039Y-60020185D02*
G01*
X156198794Y-60072989D01*
X156210000Y-60124500D01*
X156210000Y-119875500D01*
X156190315Y-119942539D01*
X156137511Y-119988294D01*
X156086000Y-119999500D01*
X110124500Y-119999500D01*
X110057461Y-119979815D01*
X110011706Y-119927011D01*
X110000500Y-119875500D01*
X110000500Y-116000001D01*
X112094645Y-116000001D01*
X112101146Y-116090903D01*
X112099290Y-116099431D01*
X112103751Y-116129740D01*
X112104254Y-116134345D01*
X112104911Y-116143531D01*
X112105069Y-116147957D01*
X112105069Y-116173615D01*
X112107764Y-116183436D01*
X112114039Y-116271160D01*
X112114040Y-116271170D01*
X112134092Y-116363348D01*
X112133398Y-116373039D01*
X112142820Y-116404356D01*
X112144033Y-116409043D01*
X112146128Y-116418675D01*
X112146883Y-116422823D01*
X112150276Y-116445882D01*
X112153804Y-116453963D01*
X112171824Y-116536797D01*
X112205921Y-116628216D01*
X112206683Y-116638880D01*
X112221345Y-116670157D01*
X112223297Y-116674804D01*
X112225297Y-116680166D01*
X112227183Y-116685222D01*
X112228461Y-116689017D01*
X112234388Y-116708720D01*
X112238302Y-116715031D01*
X112266830Y-116791519D01*
X112266833Y-116791525D01*
X112315132Y-116879978D01*
X112317605Y-116891349D01*
X112337548Y-116921493D01*
X112340256Y-116925988D01*
X112346543Y-116937501D01*
X112348266Y-116940901D01*
X112355642Y-116956636D01*
X112359493Y-116961218D01*
X112397109Y-117030107D01*
X112397110Y-117030108D01*
X112397113Y-117030113D01*
X112459456Y-117113393D01*
X112463850Y-117125173D01*
X112488925Y-117153159D01*
X112492384Y-117157379D01*
X112501846Y-117170019D01*
X112503920Y-117172965D01*
X112511469Y-117184375D01*
X112514849Y-117187389D01*
X112560029Y-117247742D01*
X112560033Y-117247746D01*
X112560038Y-117247752D01*
X112635888Y-117323602D01*
X112642349Y-117335434D01*
X112672188Y-117360267D01*
X112676371Y-117364085D01*
X112690008Y-117377722D01*
X112692344Y-117380189D01*
X112698595Y-117387165D01*
X112701122Y-117388836D01*
X112752247Y-117439961D01*
X112752265Y-117439977D01*
X112799011Y-117474970D01*
X112840747Y-117506213D01*
X112849363Y-117517722D01*
X112883438Y-117538518D01*
X112888298Y-117541810D01*
X112907274Y-117556015D01*
X112909778Y-117557992D01*
X112913062Y-117560725D01*
X112914421Y-117561365D01*
X112969887Y-117602887D01*
X113069761Y-117657422D01*
X113080546Y-117668207D01*
X113118180Y-117684199D01*
X113123639Y-117686841D01*
X113143996Y-117697957D01*
X113149284Y-117700845D01*
X113150196Y-117701372D01*
X113150317Y-117701409D01*
X113208481Y-117733169D01*
X113208485Y-117733171D01*
X113208487Y-117733172D01*
X113318173Y-117774083D01*
X113331071Y-117783738D01*
X113371459Y-117794296D01*
X113377435Y-117796186D01*
X113463199Y-117828175D01*
X113506587Y-117837613D01*
X113580788Y-117853755D01*
X113595663Y-117861877D01*
X113637893Y-117866523D01*
X113644278Y-117867565D01*
X113728840Y-117885961D01*
X113852141Y-117894779D01*
X113868791Y-117900990D01*
X113911894Y-117899414D01*
X113918565Y-117899530D01*
X114000000Y-117905355D01*
X114126580Y-117896301D01*
X114144735Y-117900250D01*
X114187702Y-117892314D01*
X114194535Y-117891441D01*
X114271160Y-117885961D01*
X114398380Y-117858286D01*
X114417700Y-117859667D01*
X114459507Y-117845405D01*
X114466353Y-117843500D01*
X114536797Y-117828176D01*
X114536797Y-117828175D01*
X114536801Y-117828175D01*
X114661877Y-117781523D01*
X114681971Y-117780086D01*
X114721625Y-117759698D01*
X114728290Y-117756753D01*
X114791513Y-117733172D01*
X114911570Y-117667615D01*
X114931991Y-117663173D01*
X114968531Y-117637031D01*
X114974894Y-117633038D01*
X115030113Y-117602887D01*
X115142264Y-117518931D01*
X115162544Y-117511366D01*
X115195105Y-117479975D01*
X115200980Y-117474976D01*
X115247742Y-117439971D01*
X115349139Y-117338573D01*
X115368779Y-117327849D01*
X115396569Y-117291860D01*
X115401807Y-117285906D01*
X115439962Y-117247751D01*
X115439971Y-117247742D01*
X115527889Y-117130297D01*
X115546375Y-117116458D01*
X115568724Y-117076637D01*
X115573158Y-117069825D01*
X115602887Y-117030113D01*
X115674782Y-116898445D01*
X115691608Y-116881619D01*
X115707973Y-116838831D01*
X115711465Y-116831264D01*
X115733172Y-116791513D01*
X115786750Y-116647862D01*
X115801425Y-116628259D01*
X115811413Y-116583424D01*
X115813838Y-116575237D01*
X115828175Y-116536801D01*
X115885961Y-116271160D01*
X115905355Y-116000000D01*
X115885961Y-115728840D01*
X115828175Y-115463199D01*
X115813840Y-115424766D01*
X115811414Y-115416577D01*
X115803229Y-115379835D01*
X115786753Y-115352145D01*
X115733172Y-115208487D01*
X115733170Y-115208484D01*
X115733169Y-115208480D01*
X115733166Y-115208475D01*
X115711472Y-115168745D01*
X115707975Y-115161171D01*
X115694485Y-115125902D01*
X115674784Y-115101556D01*
X115602890Y-114969892D01*
X115602885Y-114969884D01*
X115573164Y-114930182D01*
X115568726Y-114923363D01*
X115550202Y-114890358D01*
X115527891Y-114869705D01*
X115507608Y-114842610D01*
X115439971Y-114752258D01*
X115439966Y-114752253D01*
X115439962Y-114752248D01*
X115401808Y-114714095D01*
X115396571Y-114708141D01*
X115373406Y-114678141D01*
X115349140Y-114661426D01*
X115247752Y-114560038D01*
X115247732Y-114560020D01*
X115200994Y-114525033D01*
X115195112Y-114520029D01*
X115167822Y-114493718D01*
X115142264Y-114481069D01*
X115140493Y-114479743D01*
X115030113Y-114397113D01*
X115030108Y-114397110D01*
X115030108Y-114397109D01*
X114974903Y-114366966D01*
X114968536Y-114362970D01*
X114937739Y-114340937D01*
X114911573Y-114332384D01*
X114791525Y-114266833D01*
X114791507Y-114266825D01*
X114728321Y-114243258D01*
X114721633Y-114240304D01*
X114688032Y-114223028D01*
X114661877Y-114218476D01*
X114536796Y-114171823D01*
X114466357Y-114156501D01*
X114459512Y-114154596D01*
X114423896Y-114142445D01*
X114398380Y-114141713D01*
X114271167Y-114114040D01*
X114271161Y-114114039D01*
X114194551Y-114108559D01*
X114187709Y-114107685D01*
X114150912Y-114100888D01*
X114126582Y-114103698D01*
X114000001Y-114094645D01*
X113999999Y-114094645D01*
X113918597Y-114100467D01*
X113911905Y-114100583D01*
X113874797Y-114099227D01*
X113852141Y-114105220D01*
X113728839Y-114114039D01*
X113728832Y-114114040D01*
X113644305Y-114132428D01*
X113637903Y-114133473D01*
X113601356Y-114137494D01*
X113580790Y-114146244D01*
X113463202Y-114171824D01*
X113377454Y-114203806D01*
X113371465Y-114205701D01*
X113336334Y-114214885D01*
X113318175Y-114225915D01*
X113208493Y-114266825D01*
X113208485Y-114266828D01*
X113150316Y-114298591D01*
X113150221Y-114298611D01*
X113149249Y-114299173D01*
X113123658Y-114313146D01*
X113118191Y-114315792D01*
X113085288Y-114329774D01*
X113069762Y-114342576D01*
X112969892Y-114397109D01*
X112914423Y-114438633D01*
X112913348Y-114439033D01*
X112909748Y-114442029D01*
X112907249Y-114444002D01*
X112888308Y-114458181D01*
X112883449Y-114461472D01*
X112853510Y-114479743D01*
X112840749Y-114493785D01*
X112752259Y-114560028D01*
X112752247Y-114560038D01*
X112701121Y-114611164D01*
X112699104Y-114612265D01*
X112692342Y-114619812D01*
X112690008Y-114622278D01*
X112676383Y-114635902D01*
X112672201Y-114639719D01*
X112645849Y-114661649D01*
X112635890Y-114676396D01*
X112560032Y-114752254D01*
X112560020Y-114752268D01*
X112514849Y-114812609D01*
X112512102Y-114814664D01*
X112503905Y-114827054D01*
X112501834Y-114829995D01*
X112492391Y-114842610D01*
X112488930Y-114846834D01*
X112466679Y-114871666D01*
X112459457Y-114886604D01*
X112397114Y-114969884D01*
X112397106Y-114969897D01*
X112359492Y-115038781D01*
X112356286Y-115041986D01*
X112348256Y-115059116D01*
X112346534Y-115062514D01*
X112340261Y-115074001D01*
X112337553Y-115078498D01*
X112319773Y-115105372D01*
X112315133Y-115120021D01*
X112266828Y-115208485D01*
X112266825Y-115208493D01*
X112238301Y-115284968D01*
X112234933Y-115289466D01*
X112228459Y-115310984D01*
X112227178Y-115314789D01*
X112223302Y-115325183D01*
X112221349Y-115329831D01*
X112208214Y-115357850D01*
X112205922Y-115371782D01*
X112171824Y-115463202D01*
X112153804Y-115546036D01*
X112150604Y-115551896D01*
X112146883Y-115577179D01*
X112146126Y-115581333D01*
X112144032Y-115590957D01*
X112142821Y-115595637D01*
X112134343Y-115623817D01*
X112134093Y-115636649D01*
X112114039Y-115728840D01*
X112107764Y-115816563D01*
X112105069Y-115823788D01*
X112105069Y-115852043D01*
X112104911Y-115856455D01*
X112104578Y-115861115D01*
X112104253Y-115865656D01*
X112103751Y-115870256D01*
X112099718Y-115897654D01*
X112101146Y-115909094D01*
X112094645Y-115999997D01*
X112094645Y-116000001D01*
X110000500Y-116000001D01*
X110000500Y-102870002D01*
X138395034Y-102870002D01*
X138414858Y-103096599D01*
X138414860Y-103096610D01*
X138473730Y-103316317D01*
X138473734Y-103316326D01*
X138569865Y-103522481D01*
X138569866Y-103522483D01*
X138620973Y-103595471D01*
X138620974Y-103595472D01*
X139302046Y-102914399D01*
X139314835Y-102995148D01*
X139372359Y-103108045D01*
X139461955Y-103197641D01*
X139574852Y-103255165D01*
X139655599Y-103267953D01*
X138974526Y-103949025D01*
X138974526Y-103949026D01*
X139047512Y-104000131D01*
X139047516Y-104000133D01*
X139253673Y-104096265D01*
X139253682Y-104096269D01*
X139473389Y-104155139D01*
X139473400Y-104155141D01*
X139699998Y-104174966D01*
X139700002Y-104174966D01*
X139926599Y-104155141D01*
X139926610Y-104155139D01*
X140146317Y-104096269D01*
X140146331Y-104096264D01*
X140352478Y-104000136D01*
X140425472Y-103949025D01*
X139744401Y-103267953D01*
X139825148Y-103255165D01*
X139938045Y-103197641D01*
X140027641Y-103108045D01*
X140085165Y-102995148D01*
X140097953Y-102914400D01*
X140779025Y-103595472D01*
X140830136Y-103522478D01*
X140926264Y-103316331D01*
X140926269Y-103316317D01*
X140985139Y-103096610D01*
X140985141Y-103096599D01*
X141004966Y-102870002D01*
X141004966Y-102869997D01*
X140985141Y-102643400D01*
X140985139Y-102643389D01*
X140926269Y-102423682D01*
X140926265Y-102423673D01*
X140830133Y-102217516D01*
X140830131Y-102217512D01*
X140779026Y-102144526D01*
X140779025Y-102144526D01*
X140097953Y-102825597D01*
X140085165Y-102744852D01*
X140027641Y-102631955D01*
X139938045Y-102542359D01*
X139825148Y-102484835D01*
X139744400Y-102472046D01*
X140425472Y-101790974D01*
X140425471Y-101790973D01*
X140352483Y-101739866D01*
X140352481Y-101739865D01*
X140146326Y-101643734D01*
X140146317Y-101643730D01*
X139926610Y-101584860D01*
X139926599Y-101584858D01*
X139700002Y-101565034D01*
X139699998Y-101565034D01*
X139473400Y-101584858D01*
X139473389Y-101584860D01*
X139253682Y-101643730D01*
X139253673Y-101643734D01*
X139047513Y-101739868D01*
X138974527Y-101790972D01*
X138974526Y-101790973D01*
X139655600Y-102472046D01*
X139574852Y-102484835D01*
X139461955Y-102542359D01*
X139372359Y-102631955D01*
X139314835Y-102744852D01*
X139302046Y-102825598D01*
X138620973Y-102144526D01*
X138620972Y-102144527D01*
X138569868Y-102217513D01*
X138473734Y-102423673D01*
X138473730Y-102423682D01*
X138414860Y-102643389D01*
X138414858Y-102643400D01*
X138395034Y-102869997D01*
X138395034Y-102870002D01*
X110000500Y-102870002D01*
X110000500Y-100330001D01*
X113564891Y-100330001D01*
X113585300Y-100615362D01*
X113646109Y-100894895D01*
X113746091Y-101162958D01*
X113883191Y-101414038D01*
X113883196Y-101414046D01*
X113989882Y-101556561D01*
X113989883Y-101556562D01*
X114708348Y-100838096D01*
X114775146Y-100945263D01*
X114915268Y-101092671D01*
X115060085Y-101193467D01*
X114343436Y-101910115D01*
X114485960Y-102016807D01*
X114485961Y-102016808D01*
X114737042Y-102153908D01*
X114737041Y-102153908D01*
X115005104Y-102253890D01*
X115284637Y-102314699D01*
X115569999Y-102335109D01*
X115570001Y-102335109D01*
X115855362Y-102314699D01*
X116134895Y-102253890D01*
X116402958Y-102153908D01*
X116654047Y-102016803D01*
X116796561Y-101910116D01*
X116796562Y-101910115D01*
X116078125Y-101191678D01*
X116144214Y-101154996D01*
X116298531Y-101022520D01*
X116423021Y-100861692D01*
X116433625Y-100840072D01*
X117150115Y-101556562D01*
X117150116Y-101556561D01*
X117256803Y-101414047D01*
X117393908Y-101162958D01*
X117493890Y-100894895D01*
X117554699Y-100615362D01*
X117575108Y-100330001D01*
X117575108Y-100329998D01*
X117554699Y-100044637D01*
X117493890Y-99765104D01*
X117393908Y-99497041D01*
X117256808Y-99245961D01*
X117256807Y-99245960D01*
X117150115Y-99103436D01*
X116431650Y-99821901D01*
X116364854Y-99714737D01*
X116224732Y-99567329D01*
X116079913Y-99466532D01*
X116486439Y-99060006D01*
X125594700Y-99060006D01*
X125613864Y-99291297D01*
X125613866Y-99291308D01*
X125670842Y-99516300D01*
X125764075Y-99728848D01*
X125891016Y-99923147D01*
X125891019Y-99923151D01*
X125891021Y-99923153D01*
X126048216Y-100093913D01*
X126048219Y-100093915D01*
X126048222Y-100093918D01*
X126231365Y-100236464D01*
X126231371Y-100236468D01*
X126231374Y-100236470D01*
X126435497Y-100346936D01*
X126534460Y-100380910D01*
X126655015Y-100422297D01*
X126655017Y-100422297D01*
X126655019Y-100422298D01*
X126883951Y-100460500D01*
X126883952Y-100460500D01*
X127116048Y-100460500D01*
X127116049Y-100460500D01*
X127344981Y-100422298D01*
X127564503Y-100346936D01*
X127768626Y-100236470D01*
X127951784Y-100093913D01*
X127960130Y-100084846D01*
X128020010Y-100048854D01*
X128089849Y-100050949D01*
X128147468Y-100090469D01*
X128167544Y-100125491D01*
X128196203Y-100202330D01*
X128196206Y-100202335D01*
X128282452Y-100317544D01*
X128282455Y-100317547D01*
X128397664Y-100403793D01*
X128397671Y-100403797D01*
X128532517Y-100454091D01*
X128532516Y-100454091D01*
X128539444Y-100454835D01*
X128592127Y-100460500D01*
X130487872Y-100460499D01*
X130547483Y-100454091D01*
X130682331Y-100403796D01*
X130797546Y-100317546D01*
X130883796Y-100202331D01*
X130934091Y-100067483D01*
X130940500Y-100007873D01*
X130940499Y-98112128D01*
X130934091Y-98052517D01*
X130929422Y-98040000D01*
X130883797Y-97917671D01*
X130883793Y-97917664D01*
X130848112Y-97870001D01*
X138394532Y-97870001D01*
X138414364Y-98096686D01*
X138414366Y-98096697D01*
X138473258Y-98316488D01*
X138473261Y-98316497D01*
X138569431Y-98522732D01*
X138569432Y-98522734D01*
X138699954Y-98709141D01*
X138860857Y-98870044D01*
X138860860Y-98870046D01*
X138860861Y-98870047D01*
X138946623Y-98930097D01*
X138990248Y-98984673D01*
X138999500Y-99031672D01*
X138999500Y-99036951D01*
X138999387Y-99040696D01*
X138995642Y-99102603D01*
X138995642Y-99102605D01*
X139006821Y-99163612D01*
X139007384Y-99167313D01*
X139014859Y-99228870D01*
X139014860Y-99228874D01*
X139018451Y-99238343D01*
X139024474Y-99259946D01*
X139026304Y-99269930D01*
X139051759Y-99326490D01*
X139053189Y-99329941D01*
X139075182Y-99387930D01*
X139079826Y-99394657D01*
X139080936Y-99396266D01*
X139091961Y-99415813D01*
X139096120Y-99425055D01*
X139096124Y-99425060D01*
X139134371Y-99473878D01*
X139136591Y-99476896D01*
X139171812Y-99527924D01*
X139171816Y-99527928D01*
X139171817Y-99527929D01*
X139218250Y-99569064D01*
X139220941Y-99571598D01*
X141728399Y-102079056D01*
X141730935Y-102081750D01*
X141772071Y-102128183D01*
X141803431Y-102149829D01*
X141823110Y-102163413D01*
X141826127Y-102165633D01*
X141874938Y-102203874D01*
X141874943Y-102203877D01*
X141884174Y-102208031D01*
X141903727Y-102219059D01*
X141912070Y-102224818D01*
X141970044Y-102246804D01*
X141970057Y-102246809D01*
X141973508Y-102248238D01*
X142003093Y-102261553D01*
X142030063Y-102273692D01*
X142030064Y-102273692D01*
X142030068Y-102273694D01*
X142040030Y-102275519D01*
X142061651Y-102281546D01*
X142061667Y-102281552D01*
X142071128Y-102285140D01*
X142087871Y-102287173D01*
X142132689Y-102292615D01*
X142136386Y-102293177D01*
X142197394Y-102304357D01*
X142197395Y-102304356D01*
X142197396Y-102304357D01*
X142259292Y-102300613D01*
X142263036Y-102300500D01*
X149836952Y-102300500D01*
X149840697Y-102300613D01*
X149848042Y-102301057D01*
X149902606Y-102304358D01*
X149940314Y-102297447D01*
X149963621Y-102293177D01*
X149967325Y-102292613D01*
X149985170Y-102290446D01*
X150028872Y-102285140D01*
X150038335Y-102281550D01*
X150059961Y-102275522D01*
X150060893Y-102275351D01*
X150069932Y-102273695D01*
X150126512Y-102248229D01*
X150129942Y-102246809D01*
X150187930Y-102224818D01*
X150196266Y-102219062D01*
X150215821Y-102208034D01*
X150225057Y-102203878D01*
X150273896Y-102165613D01*
X150276876Y-102163421D01*
X150327929Y-102128183D01*
X150369065Y-102081748D01*
X150371599Y-102079056D01*
X152879056Y-99571599D01*
X152881748Y-99569065D01*
X152928183Y-99527929D01*
X152928187Y-99527924D01*
X152936889Y-99515314D01*
X152963427Y-99476866D01*
X152965617Y-99473890D01*
X153003877Y-99425057D01*
X153008029Y-99415828D01*
X153019062Y-99396268D01*
X153019419Y-99395750D01*
X153024818Y-99387930D01*
X153046812Y-99329933D01*
X153048238Y-99326490D01*
X153073694Y-99269932D01*
X153075520Y-99259965D01*
X153081548Y-99238340D01*
X153085140Y-99228872D01*
X153090434Y-99185266D01*
X153092615Y-99167309D01*
X153093179Y-99163605D01*
X153104357Y-99102605D01*
X153104357Y-99102603D01*
X153100613Y-99040707D01*
X153100500Y-99036963D01*
X153100500Y-97813035D01*
X153100613Y-97809290D01*
X153104357Y-97747394D01*
X153093177Y-97686386D01*
X153092615Y-97682689D01*
X153085140Y-97621129D01*
X153085139Y-97621125D01*
X153081546Y-97611651D01*
X153075519Y-97590029D01*
X153073694Y-97580070D01*
X153073694Y-97580068D01*
X153048241Y-97523514D01*
X153046807Y-97520052D01*
X153024818Y-97462071D01*
X153024818Y-97462070D01*
X153019058Y-97453726D01*
X153008035Y-97434180D01*
X153003878Y-97424943D01*
X152965617Y-97376107D01*
X152963417Y-97373117D01*
X152946786Y-97349021D01*
X152928185Y-97322073D01*
X152928183Y-97322071D01*
X152881750Y-97280935D01*
X152879056Y-97278399D01*
X151641598Y-96040941D01*
X151639064Y-96038250D01*
X151597929Y-95991817D01*
X151597928Y-95991816D01*
X151597924Y-95991812D01*
X151546896Y-95956591D01*
X151543887Y-95954377D01*
X151495060Y-95916124D01*
X151495055Y-95916120D01*
X151485813Y-95911961D01*
X151466266Y-95900936D01*
X151457931Y-95895183D01*
X151457932Y-95895183D01*
X151457930Y-95895182D01*
X151399941Y-95873189D01*
X151396490Y-95871759D01*
X151339930Y-95846304D01*
X151329946Y-95844474D01*
X151308343Y-95838451D01*
X151298874Y-95834860D01*
X151298870Y-95834859D01*
X151237313Y-95827384D01*
X151233612Y-95826821D01*
X151172608Y-95815642D01*
X151172603Y-95815642D01*
X151110697Y-95819387D01*
X151106952Y-95819500D01*
X149690634Y-95819500D01*
X149623595Y-95799815D01*
X149589059Y-95766623D01*
X149551601Y-95713127D01*
X149551596Y-95713121D01*
X149396881Y-95558406D01*
X149396877Y-95558402D01*
X149217639Y-95432898D01*
X149217640Y-95432898D01*
X149217638Y-95432897D01*
X149118484Y-95386661D01*
X149019330Y-95340425D01*
X149019326Y-95340424D01*
X149019322Y-95340422D01*
X148807977Y-95283793D01*
X148680113Y-95272606D01*
X148615045Y-95247153D01*
X148574066Y-95190562D01*
X148567393Y-95159885D01*
X148556207Y-95032023D01*
X148499575Y-94820670D01*
X148407102Y-94622362D01*
X148407100Y-94622359D01*
X148407099Y-94622357D01*
X148281599Y-94443124D01*
X148281596Y-94443121D01*
X148126877Y-94288402D01*
X148123374Y-94285949D01*
X148079751Y-94231372D01*
X148070500Y-94184376D01*
X148070500Y-79494499D01*
X148090185Y-79427460D01*
X148142989Y-79381705D01*
X148194500Y-79370499D01*
X148817871Y-79370499D01*
X148817872Y-79370499D01*
X148877483Y-79364091D01*
X149012331Y-79313796D01*
X149127546Y-79227546D01*
X149213796Y-79112331D01*
X149264091Y-78977483D01*
X149270500Y-78917873D01*
X149270499Y-76022128D01*
X149264091Y-75962517D01*
X149263881Y-75961955D01*
X149213797Y-75827671D01*
X149213793Y-75827664D01*
X149127547Y-75712455D01*
X149127544Y-75712452D01*
X149012335Y-75626206D01*
X149012328Y-75626202D01*
X148877482Y-75575908D01*
X148877483Y-75575908D01*
X148817883Y-75569501D01*
X148817881Y-75569500D01*
X148817873Y-75569500D01*
X148817864Y-75569500D01*
X145922129Y-75569500D01*
X145922123Y-75569501D01*
X145862516Y-75575908D01*
X145727671Y-75626202D01*
X145727664Y-75626206D01*
X145612455Y-75712452D01*
X145612452Y-75712455D01*
X145526206Y-75827664D01*
X145526202Y-75827671D01*
X145475908Y-75962517D01*
X145469501Y-76022116D01*
X145469501Y-76022123D01*
X145469500Y-76022135D01*
X145469500Y-78917870D01*
X145469501Y-78917876D01*
X145475908Y-78977483D01*
X145526202Y-79112328D01*
X145526206Y-79112335D01*
X145612452Y-79227544D01*
X145612455Y-79227547D01*
X145727664Y-79313793D01*
X145727671Y-79313797D01*
X145772618Y-79330561D01*
X145862517Y-79364091D01*
X145922127Y-79370500D01*
X146545500Y-79370499D01*
X146612539Y-79390183D01*
X146658294Y-79442987D01*
X146669500Y-79494499D01*
X146669500Y-94114355D01*
X146649815Y-94181394D01*
X146616624Y-94215930D01*
X146513118Y-94288405D01*
X146358402Y-94443121D01*
X146232900Y-94622357D01*
X146232898Y-94622361D01*
X146140426Y-94820668D01*
X146140422Y-94820677D01*
X146083793Y-95032020D01*
X146083793Y-95032024D01*
X146064723Y-95249997D01*
X146064723Y-95250002D01*
X146083793Y-95467975D01*
X146083793Y-95467979D01*
X146140422Y-95679322D01*
X146140424Y-95679326D01*
X146140425Y-95679330D01*
X146156182Y-95713121D01*
X146232897Y-95877638D01*
X146232898Y-95877639D01*
X146358402Y-96056877D01*
X146513123Y-96211598D01*
X146692361Y-96337102D01*
X146738315Y-96358530D01*
X146790751Y-96404700D01*
X146809904Y-96471894D01*
X146789689Y-96538775D01*
X146744668Y-96580104D01*
X146628606Y-96642560D01*
X146628595Y-96642567D01*
X146452679Y-96782854D01*
X146304647Y-96952292D01*
X146304640Y-96952300D01*
X146189240Y-97145446D01*
X146189238Y-97145451D01*
X146110175Y-97356110D01*
X146076805Y-97539999D01*
X146076806Y-97540000D01*
X147074419Y-97540000D01*
X147022940Y-97595921D01*
X146976018Y-97702892D01*
X146966372Y-97819302D01*
X146995047Y-97932538D01*
X147058936Y-98030327D01*
X147151115Y-98102072D01*
X147261595Y-98140000D01*
X147349005Y-98140000D01*
X147435216Y-98125614D01*
X147537947Y-98070019D01*
X147570000Y-98035200D01*
X147570000Y-99117549D01*
X147599267Y-99113586D01*
X147599273Y-99113585D01*
X147813268Y-99044054D01*
X148011401Y-98937434D01*
X148011404Y-98937432D01*
X148187320Y-98797145D01*
X148335352Y-98627707D01*
X148335359Y-98627699D01*
X148450759Y-98434553D01*
X148450761Y-98434548D01*
X148529824Y-98223889D01*
X148529824Y-98223888D01*
X148570000Y-98002505D01*
X148570000Y-97890651D01*
X148589685Y-97823612D01*
X148642489Y-97777857D01*
X148683189Y-97767124D01*
X148807977Y-97756207D01*
X149019330Y-97699575D01*
X149217639Y-97607102D01*
X149396877Y-97481598D01*
X149551598Y-97326877D01*
X149589059Y-97273376D01*
X149643635Y-97229752D01*
X149690634Y-97220500D01*
X150788481Y-97220500D01*
X150855520Y-97240185D01*
X150876162Y-97256819D01*
X151663182Y-98043839D01*
X151696666Y-98105160D01*
X151699500Y-98131518D01*
X151699500Y-98718480D01*
X151679815Y-98785519D01*
X151663181Y-98806161D01*
X149606162Y-100863181D01*
X149544839Y-100896666D01*
X149518481Y-100899500D01*
X142581519Y-100899500D01*
X142514480Y-100879815D01*
X142493838Y-100863181D01*
X140607603Y-98976945D01*
X140574118Y-98915622D01*
X140579102Y-98845930D01*
X140607601Y-98801584D01*
X140700047Y-98709139D01*
X140830568Y-98522734D01*
X140926739Y-98316496D01*
X140985635Y-98096692D01*
X140990595Y-98040000D01*
X146078448Y-98040000D01*
X146085116Y-98114096D01*
X146085117Y-98114102D01*
X146144973Y-98330984D01*
X146144978Y-98330997D01*
X146242598Y-98533708D01*
X146242602Y-98533716D01*
X146374851Y-98715741D01*
X146374857Y-98715749D01*
X146537486Y-98871237D01*
X146725266Y-98995191D01*
X146932169Y-99083624D01*
X146932178Y-99083627D01*
X147069999Y-99115084D01*
X147070000Y-99115083D01*
X147070000Y-98040000D01*
X146078448Y-98040000D01*
X140990595Y-98040000D01*
X141005468Y-97870000D01*
X141001032Y-97819302D01*
X140999558Y-97802452D01*
X140985635Y-97643308D01*
X140926739Y-97423504D01*
X140830568Y-97217266D01*
X140700047Y-97030861D01*
X140539139Y-96869953D01*
X140453376Y-96809901D01*
X140409751Y-96755324D01*
X140400500Y-96708326D01*
X140400500Y-93871672D01*
X140420185Y-93804633D01*
X140453375Y-93770098D01*
X140539139Y-93710047D01*
X140700047Y-93549139D01*
X140830568Y-93362734D01*
X140926739Y-93156496D01*
X140985635Y-92936692D01*
X141005468Y-92710000D01*
X140985635Y-92483308D01*
X140926739Y-92263504D01*
X140830568Y-92057266D01*
X140700047Y-91870861D01*
X140700045Y-91870858D01*
X140539141Y-91709954D01*
X140352734Y-91579432D01*
X140352732Y-91579431D01*
X140146497Y-91483261D01*
X140146488Y-91483258D01*
X139926697Y-91424366D01*
X139926693Y-91424365D01*
X139926692Y-91424365D01*
X139926691Y-91424364D01*
X139926686Y-91424364D01*
X139700002Y-91404532D01*
X139699998Y-91404532D01*
X139473313Y-91424364D01*
X139473302Y-91424366D01*
X139253511Y-91483258D01*
X139253502Y-91483261D01*
X139047267Y-91579431D01*
X139047265Y-91579432D01*
X138860858Y-91709954D01*
X138699954Y-91870858D01*
X138569432Y-92057265D01*
X138569431Y-92057267D01*
X138473261Y-92263502D01*
X138473258Y-92263511D01*
X138414366Y-92483302D01*
X138414364Y-92483313D01*
X138394532Y-92709998D01*
X138394532Y-92710001D01*
X138414364Y-92936686D01*
X138414366Y-92936697D01*
X138473258Y-93156488D01*
X138473261Y-93156497D01*
X138569431Y-93362732D01*
X138569432Y-93362734D01*
X138699954Y-93549141D01*
X138860857Y-93710044D01*
X138860860Y-93710046D01*
X138860861Y-93710047D01*
X138946623Y-93770097D01*
X138990248Y-93824673D01*
X138999500Y-93871672D01*
X138999500Y-96708326D01*
X138979815Y-96775365D01*
X138946624Y-96809901D01*
X138860863Y-96869951D01*
X138699951Y-97030862D01*
X138569432Y-97217265D01*
X138569431Y-97217267D01*
X138473261Y-97423502D01*
X138473258Y-97423511D01*
X138414366Y-97643302D01*
X138414364Y-97643313D01*
X138394532Y-97869998D01*
X138394532Y-97870001D01*
X130848112Y-97870001D01*
X130797547Y-97802455D01*
X130797544Y-97802452D01*
X130682335Y-97716206D01*
X130682328Y-97716202D01*
X130547482Y-97665908D01*
X130547483Y-97665908D01*
X130487883Y-97659501D01*
X130487881Y-97659500D01*
X130487873Y-97659500D01*
X130487865Y-97659500D01*
X130364500Y-97659500D01*
X130297461Y-97639815D01*
X130251706Y-97587011D01*
X130240500Y-97535500D01*
X130240499Y-93871672D01*
X130260184Y-93804633D01*
X130293373Y-93770099D01*
X130379139Y-93710047D01*
X130540047Y-93549139D01*
X130670568Y-93362734D01*
X130766739Y-93156496D01*
X130825635Y-92936692D01*
X130845468Y-92710000D01*
X130825635Y-92483308D01*
X130766739Y-92263504D01*
X130670568Y-92057266D01*
X130540047Y-91870861D01*
X130540045Y-91870858D01*
X130379141Y-91709954D01*
X130192734Y-91579432D01*
X130192732Y-91579431D01*
X129986497Y-91483261D01*
X129986488Y-91483258D01*
X129766697Y-91424366D01*
X129766693Y-91424365D01*
X129766692Y-91424365D01*
X129766691Y-91424364D01*
X129766686Y-91424364D01*
X129540002Y-91404532D01*
X129539998Y-91404532D01*
X129313313Y-91424364D01*
X129313302Y-91424366D01*
X129093511Y-91483258D01*
X129093502Y-91483261D01*
X128887267Y-91579431D01*
X128887265Y-91579432D01*
X128700858Y-91709954D01*
X128539954Y-91870858D01*
X128409432Y-92057265D01*
X128409431Y-92057267D01*
X128313261Y-92263502D01*
X128313258Y-92263511D01*
X128254366Y-92483302D01*
X128254364Y-92483313D01*
X128234532Y-92709998D01*
X128234532Y-92710001D01*
X128254364Y-92936686D01*
X128254366Y-92936697D01*
X128313258Y-93156488D01*
X128313261Y-93156497D01*
X128409431Y-93362732D01*
X128409432Y-93362734D01*
X128539954Y-93549141D01*
X128700858Y-93710045D01*
X128786622Y-93770097D01*
X128830247Y-93824673D01*
X128839499Y-93871672D01*
X128839499Y-97535500D01*
X128819814Y-97602539D01*
X128767010Y-97648294D01*
X128715500Y-97659500D01*
X128592130Y-97659500D01*
X128592123Y-97659501D01*
X128532516Y-97665908D01*
X128397671Y-97716202D01*
X128397664Y-97716206D01*
X128282455Y-97802452D01*
X128282452Y-97802455D01*
X128196206Y-97917664D01*
X128196203Y-97917670D01*
X128167544Y-97994508D01*
X128125672Y-98050441D01*
X128060208Y-98074858D01*
X127991935Y-98060006D01*
X127960135Y-98035158D01*
X127951784Y-98026087D01*
X127951778Y-98026082D01*
X127951777Y-98026081D01*
X127768634Y-97883535D01*
X127768628Y-97883531D01*
X127564504Y-97773064D01*
X127564495Y-97773061D01*
X127344984Y-97697702D01*
X127154450Y-97665908D01*
X127116049Y-97659500D01*
X126883951Y-97659500D01*
X126856984Y-97664000D01*
X126655015Y-97697702D01*
X126435504Y-97773061D01*
X126435495Y-97773064D01*
X126231371Y-97883531D01*
X126231365Y-97883535D01*
X126048222Y-98026081D01*
X126048219Y-98026084D01*
X126048216Y-98026086D01*
X126048216Y-98026087D01*
X126007774Y-98070019D01*
X125891016Y-98196852D01*
X125764075Y-98391151D01*
X125670842Y-98603699D01*
X125613866Y-98828691D01*
X125613864Y-98828702D01*
X125594700Y-99059993D01*
X125594700Y-99060006D01*
X116486439Y-99060006D01*
X116796562Y-98749883D01*
X116796561Y-98749882D01*
X116654046Y-98643196D01*
X116654038Y-98643191D01*
X116402957Y-98506091D01*
X116402958Y-98506091D01*
X116134895Y-98406109D01*
X115855362Y-98345300D01*
X115570001Y-98324891D01*
X115569999Y-98324891D01*
X115284637Y-98345300D01*
X115005104Y-98406109D01*
X114737041Y-98506091D01*
X114485961Y-98643191D01*
X114485953Y-98643196D01*
X114343437Y-98749882D01*
X114343436Y-98749883D01*
X115061874Y-99468321D01*
X114995786Y-99505004D01*
X114841469Y-99637480D01*
X114716979Y-99798308D01*
X114706374Y-99819927D01*
X113989883Y-99103436D01*
X113989882Y-99103437D01*
X113883196Y-99245953D01*
X113883191Y-99245961D01*
X113746091Y-99497041D01*
X113646109Y-99765104D01*
X113585300Y-100044637D01*
X113564891Y-100329998D01*
X113564891Y-100330001D01*
X110000500Y-100330001D01*
X110000500Y-84328000D01*
X113960341Y-84328000D01*
X113980936Y-84563403D01*
X113980938Y-84563413D01*
X114042094Y-84791655D01*
X114042096Y-84791659D01*
X114042097Y-84791663D01*
X114121567Y-84962086D01*
X114141965Y-85005830D01*
X114141967Y-85005834D01*
X114250281Y-85160521D01*
X114277501Y-85199396D01*
X114277506Y-85199402D01*
X114399818Y-85321714D01*
X114433303Y-85383037D01*
X114428319Y-85452729D01*
X114386447Y-85508662D01*
X114355471Y-85525577D01*
X114223912Y-85574646D01*
X114223906Y-85574649D01*
X114108812Y-85660809D01*
X114108809Y-85660812D01*
X114022649Y-85775906D01*
X114022645Y-85775913D01*
X113972403Y-85910620D01*
X113972401Y-85910627D01*
X113966000Y-85970155D01*
X113966000Y-86618000D01*
X114882314Y-86618000D01*
X114856507Y-86658156D01*
X114816000Y-86796111D01*
X114816000Y-86939889D01*
X114856507Y-87077844D01*
X114882314Y-87118000D01*
X113966000Y-87118000D01*
X113966000Y-87765844D01*
X113972401Y-87825372D01*
X113972403Y-87825379D01*
X114022645Y-87960086D01*
X114022649Y-87960093D01*
X114108809Y-88075187D01*
X114108812Y-88075190D01*
X114223906Y-88161350D01*
X114223913Y-88161354D01*
X114358620Y-88211596D01*
X114358627Y-88211598D01*
X114418155Y-88217999D01*
X114418172Y-88218000D01*
X115066000Y-88218000D01*
X115066000Y-87303501D01*
X115173685Y-87352680D01*
X115280237Y-87368000D01*
X115351763Y-87368000D01*
X115458315Y-87352680D01*
X115566000Y-87303501D01*
X115566000Y-88218000D01*
X116213828Y-88218000D01*
X116213844Y-88217999D01*
X116273372Y-88211598D01*
X116273379Y-88211596D01*
X116408086Y-88161354D01*
X116408093Y-88161350D01*
X116523187Y-88075190D01*
X116523190Y-88075187D01*
X116609350Y-87960093D01*
X116609354Y-87960086D01*
X116659596Y-87825379D01*
X116659598Y-87825372D01*
X116665999Y-87765844D01*
X116666000Y-87765827D01*
X116666000Y-87118000D01*
X115749686Y-87118000D01*
X115775493Y-87077844D01*
X115816000Y-86939889D01*
X115816000Y-86796111D01*
X115775493Y-86658156D01*
X115749686Y-86618000D01*
X116666000Y-86618000D01*
X116666000Y-85970172D01*
X116665999Y-85970155D01*
X116659598Y-85910627D01*
X116659596Y-85910620D01*
X116609354Y-85775913D01*
X116609350Y-85775906D01*
X116523190Y-85660812D01*
X116523187Y-85660809D01*
X116408093Y-85574649D01*
X116408088Y-85574646D01*
X116276528Y-85525577D01*
X116220595Y-85483705D01*
X116196178Y-85418241D01*
X116211030Y-85349968D01*
X116232175Y-85321720D01*
X116354495Y-85199401D01*
X116490035Y-85005830D01*
X116589903Y-84791663D01*
X116651063Y-84563408D01*
X116671659Y-84328000D01*
X116651063Y-84092592D01*
X116589903Y-83864337D01*
X116490035Y-83650171D01*
X116375363Y-83486401D01*
X116354494Y-83456597D01*
X116187402Y-83289506D01*
X116187396Y-83289501D01*
X116001842Y-83159575D01*
X115958217Y-83104998D01*
X115951023Y-83035500D01*
X115982546Y-82973145D01*
X116001842Y-82956425D01*
X116024026Y-82940891D01*
X116187401Y-82826495D01*
X116354495Y-82659401D01*
X116490035Y-82465830D01*
X116589903Y-82251663D01*
X116651063Y-82023408D01*
X116671659Y-81788000D01*
X116651063Y-81552592D01*
X116589903Y-81324337D01*
X116569231Y-81280006D01*
X123054700Y-81280006D01*
X123073864Y-81511297D01*
X123073866Y-81511308D01*
X123130842Y-81736300D01*
X123224075Y-81948848D01*
X123351018Y-82143150D01*
X123446167Y-82246510D01*
X123477089Y-82309164D01*
X123469228Y-82378590D01*
X123425081Y-82432746D01*
X123398271Y-82446674D01*
X123317911Y-82476646D01*
X123317906Y-82476649D01*
X123202812Y-82562809D01*
X123202809Y-82562812D01*
X123116649Y-82677906D01*
X123116645Y-82677913D01*
X123066403Y-82812620D01*
X123066401Y-82812627D01*
X123060000Y-82872155D01*
X123060000Y-83570000D01*
X124084722Y-83570000D01*
X124036375Y-83653740D01*
X124006190Y-83785992D01*
X124016327Y-83921265D01*
X124065887Y-84047541D01*
X124083797Y-84070000D01*
X123060000Y-84070000D01*
X123060000Y-84767844D01*
X123066401Y-84827372D01*
X123066403Y-84827379D01*
X123116645Y-84962086D01*
X123116649Y-84962093D01*
X123202809Y-85077187D01*
X123202812Y-85077190D01*
X123317906Y-85163350D01*
X123317913Y-85163354D01*
X123452620Y-85213596D01*
X123452627Y-85213598D01*
X123512155Y-85219999D01*
X123512172Y-85220000D01*
X124210000Y-85220000D01*
X124210000Y-84194189D01*
X124262547Y-84230016D01*
X124392173Y-84270000D01*
X124493724Y-84270000D01*
X124594138Y-84254865D01*
X124710000Y-84199068D01*
X124710000Y-85220000D01*
X125407828Y-85220000D01*
X125407844Y-85219999D01*
X125467372Y-85213598D01*
X125467379Y-85213596D01*
X125602086Y-85163354D01*
X125602093Y-85163350D01*
X125717187Y-85077190D01*
X125717190Y-85077187D01*
X125803350Y-84962093D01*
X125803354Y-84962086D01*
X125853596Y-84827379D01*
X125853598Y-84827372D01*
X125859999Y-84767844D01*
X125860000Y-84767827D01*
X125860000Y-84070000D01*
X124835278Y-84070000D01*
X124883625Y-83986260D01*
X124913810Y-83854008D01*
X124903673Y-83718735D01*
X124854113Y-83592459D01*
X124836203Y-83570000D01*
X125860000Y-83570000D01*
X125860000Y-82872172D01*
X125859999Y-82872155D01*
X125853598Y-82812627D01*
X125853596Y-82812620D01*
X125803354Y-82677913D01*
X125803350Y-82677906D01*
X125717190Y-82562812D01*
X125717187Y-82562809D01*
X125602093Y-82476649D01*
X125602086Y-82476645D01*
X125521729Y-82446674D01*
X125465795Y-82404803D01*
X125441378Y-82339338D01*
X125456230Y-82271065D01*
X125473826Y-82246516D01*
X125568979Y-82143153D01*
X125695924Y-81948849D01*
X125789157Y-81736300D01*
X125846134Y-81511305D01*
X125846516Y-81506697D01*
X125865300Y-81280006D01*
X125865300Y-81279993D01*
X125846135Y-81048702D01*
X125846131Y-81048682D01*
X125830257Y-80985996D01*
X125832881Y-80916175D01*
X125862779Y-80867876D01*
X126209056Y-80521599D01*
X126211748Y-80519065D01*
X126258183Y-80477929D01*
X126293436Y-80426855D01*
X126295613Y-80423896D01*
X126333878Y-80375057D01*
X126338037Y-80365815D01*
X126349062Y-80346268D01*
X126354818Y-80337930D01*
X126376820Y-80279912D01*
X126378235Y-80276495D01*
X126403694Y-80219932D01*
X126405520Y-80209965D01*
X126411548Y-80188340D01*
X126415140Y-80178872D01*
X126422615Y-80117309D01*
X126423179Y-80113605D01*
X126427456Y-80090258D01*
X126434357Y-80052606D01*
X126430755Y-79993064D01*
X126430613Y-79990707D01*
X126430500Y-79986963D01*
X126430500Y-77426264D01*
X126430499Y-74821668D01*
X126450184Y-74754633D01*
X126483372Y-74720100D01*
X126569139Y-74660047D01*
X126730047Y-74499139D01*
X126860568Y-74312734D01*
X126956739Y-74106496D01*
X127015635Y-73886692D01*
X127035468Y-73660000D01*
X127015635Y-73433308D01*
X126956739Y-73213504D01*
X126860568Y-73007266D01*
X126730047Y-72820861D01*
X126730045Y-72820858D01*
X126569141Y-72659954D01*
X126382734Y-72529432D01*
X126382732Y-72529431D01*
X126176497Y-72433261D01*
X126176488Y-72433258D01*
X125956697Y-72374366D01*
X125956693Y-72374365D01*
X125956692Y-72374365D01*
X125956691Y-72374364D01*
X125956686Y-72374364D01*
X125730002Y-72354532D01*
X125729998Y-72354532D01*
X125503313Y-72374364D01*
X125503302Y-72374366D01*
X125283511Y-72433258D01*
X125283502Y-72433261D01*
X125077267Y-72529431D01*
X125077265Y-72529432D01*
X124890858Y-72659954D01*
X124729954Y-72820858D01*
X124599432Y-73007265D01*
X124599431Y-73007267D01*
X124503261Y-73213502D01*
X124503258Y-73213511D01*
X124444366Y-73433302D01*
X124444364Y-73433313D01*
X124424532Y-73659998D01*
X124424532Y-73660001D01*
X124444364Y-73886686D01*
X124444366Y-73886697D01*
X124503258Y-74106488D01*
X124503261Y-74106497D01*
X124599431Y-74312732D01*
X124599432Y-74312734D01*
X124729954Y-74499141D01*
X124890858Y-74660045D01*
X124976622Y-74720097D01*
X125020247Y-74774673D01*
X125029499Y-74821672D01*
X125029500Y-79668480D01*
X125009815Y-79735519D01*
X124993181Y-79756162D01*
X124872961Y-79876381D01*
X124811638Y-79909865D01*
X124764871Y-79911008D01*
X124576049Y-79879500D01*
X124343951Y-79879500D01*
X124298164Y-79887140D01*
X124115015Y-79917702D01*
X123895504Y-79993061D01*
X123895495Y-79993064D01*
X123691371Y-80103531D01*
X123691365Y-80103535D01*
X123508222Y-80246081D01*
X123508219Y-80246084D01*
X123351016Y-80416852D01*
X123224075Y-80611151D01*
X123130842Y-80823699D01*
X123073866Y-81048691D01*
X123073864Y-81048702D01*
X123054700Y-81279993D01*
X123054700Y-81280006D01*
X116569231Y-81280006D01*
X116490035Y-81110171D01*
X116450220Y-81053308D01*
X116354494Y-80916597D01*
X116187404Y-80749508D01*
X116187401Y-80749505D01*
X116187396Y-80749501D01*
X116187393Y-80749499D01*
X116069376Y-80666861D01*
X116025751Y-80612284D01*
X116016500Y-80565287D01*
X116016500Y-74965733D01*
X116036185Y-74898694D01*
X116088093Y-74853352D01*
X116222734Y-74790568D01*
X116409139Y-74660047D01*
X116570047Y-74499139D01*
X116700568Y-74312734D01*
X116796739Y-74106496D01*
X116855635Y-73886692D01*
X116875468Y-73660000D01*
X116855635Y-73433308D01*
X116796739Y-73213504D01*
X116700568Y-73007266D01*
X116570047Y-72820861D01*
X116570045Y-72820858D01*
X116437602Y-72688415D01*
X116404117Y-72627092D01*
X116409101Y-72557400D01*
X116437599Y-72513056D01*
X117093837Y-71856819D01*
X117155161Y-71823334D01*
X117181519Y-71820500D01*
X129198481Y-71820500D01*
X129265520Y-71840185D01*
X129286162Y-71856819D01*
X132462397Y-75033054D01*
X132495882Y-75094377D01*
X132490898Y-75164069D01*
X132462397Y-75208416D01*
X132309954Y-75360858D01*
X132179432Y-75547265D01*
X132179430Y-75547269D01*
X132172105Y-75562978D01*
X132125931Y-75615417D01*
X132058737Y-75634567D01*
X131991857Y-75614350D01*
X131947341Y-75562974D01*
X131940132Y-75547515D01*
X131940131Y-75547512D01*
X131889026Y-75474526D01*
X131889025Y-75474526D01*
X131207953Y-76155598D01*
X131195165Y-76074852D01*
X131137641Y-75961955D01*
X131048045Y-75872359D01*
X130935148Y-75814835D01*
X130854400Y-75802046D01*
X131535472Y-75120974D01*
X131535471Y-75120973D01*
X131462483Y-75069866D01*
X131462481Y-75069865D01*
X131256326Y-74973734D01*
X131256317Y-74973730D01*
X131036610Y-74914860D01*
X131036599Y-74914858D01*
X130810002Y-74895034D01*
X130809998Y-74895034D01*
X130583400Y-74914858D01*
X130583389Y-74914860D01*
X130363682Y-74973730D01*
X130363673Y-74973734D01*
X130157513Y-75069868D01*
X130084527Y-75120972D01*
X130084526Y-75120973D01*
X130765600Y-75802046D01*
X130684852Y-75814835D01*
X130571955Y-75872359D01*
X130482359Y-75961955D01*
X130424835Y-76074852D01*
X130412046Y-76155599D01*
X129730973Y-75474526D01*
X129730972Y-75474527D01*
X129679868Y-75547513D01*
X129583734Y-75753673D01*
X129583730Y-75753682D01*
X129524860Y-75973389D01*
X129524858Y-75973400D01*
X129505034Y-76199997D01*
X129505034Y-76200002D01*
X129524858Y-76426599D01*
X129524860Y-76426610D01*
X129583730Y-76646317D01*
X129583734Y-76646326D01*
X129679865Y-76852481D01*
X129679866Y-76852483D01*
X129730973Y-76925471D01*
X129730974Y-76925472D01*
X130412046Y-76244399D01*
X130424835Y-76325148D01*
X130482359Y-76438045D01*
X130571955Y-76527641D01*
X130684852Y-76585165D01*
X130765599Y-76597953D01*
X130084526Y-77279025D01*
X130084526Y-77279026D01*
X130157512Y-77330131D01*
X130157516Y-77330133D01*
X130363673Y-77426265D01*
X130363682Y-77426269D01*
X130583389Y-77485139D01*
X130583400Y-77485141D01*
X130809998Y-77504966D01*
X130810002Y-77504966D01*
X131036599Y-77485141D01*
X131036610Y-77485139D01*
X131256317Y-77426269D01*
X131256331Y-77426264D01*
X131462478Y-77330136D01*
X131535472Y-77279025D01*
X130854401Y-76597953D01*
X130935148Y-76585165D01*
X131048045Y-76527641D01*
X131137641Y-76438045D01*
X131195165Y-76325148D01*
X131207953Y-76244400D01*
X131889025Y-76925472D01*
X131940134Y-76852481D01*
X131947340Y-76837028D01*
X131993511Y-76784587D01*
X132060704Y-76765433D01*
X132127585Y-76785646D01*
X132172105Y-76837022D01*
X132179430Y-76852730D01*
X132179432Y-76852734D01*
X132309954Y-77039141D01*
X132470857Y-77200044D01*
X132470860Y-77200046D01*
X132470861Y-77200047D01*
X132596623Y-77288105D01*
X132640248Y-77342681D01*
X132649500Y-77389680D01*
X132649500Y-79992773D01*
X132629815Y-80059812D01*
X132584527Y-80101823D01*
X132581377Y-80103527D01*
X132581365Y-80103535D01*
X132398222Y-80246081D01*
X132398219Y-80246084D01*
X132241016Y-80416852D01*
X132114075Y-80611151D01*
X132020842Y-80823699D01*
X131963866Y-81048691D01*
X131963864Y-81048702D01*
X131944700Y-81279993D01*
X131944700Y-81280006D01*
X131963864Y-81511297D01*
X131963866Y-81511308D01*
X132020842Y-81736300D01*
X132114075Y-81948848D01*
X132241016Y-82143147D01*
X132241019Y-82143150D01*
X132241021Y-82143153D01*
X132335803Y-82246114D01*
X132366724Y-82308767D01*
X132358864Y-82378193D01*
X132314716Y-82432348D01*
X132287906Y-82446277D01*
X132207669Y-82476203D01*
X132207664Y-82476206D01*
X132092455Y-82562452D01*
X132092452Y-82562455D01*
X132006206Y-82677664D01*
X132006202Y-82677671D01*
X131955908Y-82812517D01*
X131949501Y-82872116D01*
X131949501Y-82872123D01*
X131949500Y-82872135D01*
X131949500Y-84767870D01*
X131949501Y-84767876D01*
X131955908Y-84827483D01*
X132006202Y-84962328D01*
X132006206Y-84962335D01*
X132092452Y-85077544D01*
X132092455Y-85077547D01*
X132207664Y-85163793D01*
X132207671Y-85163797D01*
X132342517Y-85214091D01*
X132342516Y-85214091D01*
X132349444Y-85214835D01*
X132402127Y-85220500D01*
X134297872Y-85220499D01*
X134357483Y-85214091D01*
X134492331Y-85163796D01*
X134607546Y-85077546D01*
X134693796Y-84962331D01*
X134744091Y-84827483D01*
X134750500Y-84767873D01*
X134750500Y-84644500D01*
X134770185Y-84577461D01*
X134822989Y-84531706D01*
X134874500Y-84520500D01*
X137136952Y-84520500D01*
X137140697Y-84520613D01*
X137148042Y-84521057D01*
X137202606Y-84524358D01*
X137240314Y-84517447D01*
X137263621Y-84513177D01*
X137267325Y-84512613D01*
X137285170Y-84510446D01*
X137328872Y-84505140D01*
X137338335Y-84501550D01*
X137359961Y-84495522D01*
X137360893Y-84495351D01*
X137369932Y-84493695D01*
X137426512Y-84468229D01*
X137429942Y-84466809D01*
X137487930Y-84444818D01*
X137496266Y-84439062D01*
X137515821Y-84428034D01*
X137525057Y-84423878D01*
X137573896Y-84385613D01*
X137576876Y-84383421D01*
X137627929Y-84348183D01*
X137669065Y-84301748D01*
X137671599Y-84299056D01*
X139369630Y-82601025D01*
X139430951Y-82567542D01*
X139468117Y-82565180D01*
X139473303Y-82565633D01*
X139473308Y-82565635D01*
X139678263Y-82583566D01*
X139699999Y-82585468D01*
X139700000Y-82585468D01*
X139700002Y-82585468D01*
X139756673Y-82580509D01*
X139926692Y-82565635D01*
X140146496Y-82506739D01*
X140352734Y-82410568D01*
X140539139Y-82280047D01*
X140700047Y-82119139D01*
X140830568Y-81932734D01*
X140926739Y-81726496D01*
X140985635Y-81506692D01*
X141002634Y-81312384D01*
X141005468Y-81280001D01*
X141005468Y-81279998D01*
X140990610Y-81110171D01*
X140985635Y-81053308D01*
X140926739Y-80833504D01*
X140830568Y-80627266D01*
X140700047Y-80440861D01*
X140700045Y-80440858D01*
X140539141Y-80279954D01*
X140352734Y-80149432D01*
X140352732Y-80149431D01*
X140146497Y-80053261D01*
X140146488Y-80053258D01*
X139926697Y-79994366D01*
X139926693Y-79994365D01*
X139926692Y-79994365D01*
X139926691Y-79994364D01*
X139926686Y-79994364D01*
X139700002Y-79974532D01*
X139699998Y-79974532D01*
X139473313Y-79994364D01*
X139473302Y-79994366D01*
X139253511Y-80053258D01*
X139253502Y-80053261D01*
X139047267Y-80149431D01*
X139047265Y-80149432D01*
X138860858Y-80279954D01*
X138699954Y-80440858D01*
X138569432Y-80627265D01*
X138569431Y-80627267D01*
X138473261Y-80833502D01*
X138473258Y-80833511D01*
X138414366Y-81053302D01*
X138414364Y-81053313D01*
X138394532Y-81279998D01*
X138394532Y-81280001D01*
X138414819Y-81511881D01*
X138401052Y-81580381D01*
X138378972Y-81610369D01*
X136906162Y-83083181D01*
X136844839Y-83116666D01*
X136818481Y-83119500D01*
X134874499Y-83119500D01*
X134807460Y-83099815D01*
X134761705Y-83047011D01*
X134750499Y-82995500D01*
X134750499Y-82872129D01*
X134750498Y-82872123D01*
X134750497Y-82872116D01*
X134744091Y-82812517D01*
X134693884Y-82677906D01*
X134693797Y-82677671D01*
X134693793Y-82677664D01*
X134607547Y-82562455D01*
X134607544Y-82562452D01*
X134492335Y-82476206D01*
X134492328Y-82476202D01*
X134412094Y-82446277D01*
X134356160Y-82404406D01*
X134331743Y-82338941D01*
X134346595Y-82270668D01*
X134364190Y-82246121D01*
X134458979Y-82143153D01*
X134585924Y-81948849D01*
X134679157Y-81736300D01*
X134736134Y-81511305D01*
X134736516Y-81506697D01*
X134755300Y-81280006D01*
X134755300Y-81279993D01*
X134736135Y-81048702D01*
X134736133Y-81048691D01*
X134679157Y-80823699D01*
X134585924Y-80611151D01*
X134458983Y-80416852D01*
X134458980Y-80416849D01*
X134458979Y-80416847D01*
X134301784Y-80246087D01*
X134301779Y-80246083D01*
X134301777Y-80246081D01*
X134118634Y-80103535D01*
X134118622Y-80103527D01*
X134115473Y-80101823D01*
X134114433Y-80100790D01*
X134114334Y-80100726D01*
X134114347Y-80100705D01*
X134065887Y-80052599D01*
X134050500Y-79992773D01*
X134050500Y-77333664D01*
X134070185Y-77266625D01*
X134103375Y-77232090D01*
X134149139Y-77200047D01*
X134310047Y-77039139D01*
X134440568Y-76852734D01*
X134536739Y-76646496D01*
X134595635Y-76426692D01*
X134615468Y-76200000D01*
X134595635Y-75973308D01*
X134536739Y-75753504D01*
X134440568Y-75547266D01*
X134310047Y-75360861D01*
X134149139Y-75199953D01*
X134063376Y-75139901D01*
X134019751Y-75085324D01*
X134010500Y-75038327D01*
X134010500Y-75033054D01*
X134010500Y-74913001D01*
X134010610Y-74909323D01*
X134014357Y-74847394D01*
X134003177Y-74786386D01*
X134002615Y-74782689D01*
X133995140Y-74721129D01*
X133995139Y-74721125D01*
X133991546Y-74711651D01*
X133985519Y-74690029D01*
X133983694Y-74680070D01*
X133983694Y-74680068D01*
X133958241Y-74623514D01*
X133956807Y-74620052D01*
X133947704Y-74596048D01*
X133934818Y-74562070D01*
X133929058Y-74553726D01*
X133918035Y-74534180D01*
X133913878Y-74524943D01*
X133875617Y-74476107D01*
X133873417Y-74473117D01*
X133856786Y-74449021D01*
X133838185Y-74422073D01*
X133838183Y-74422071D01*
X133791750Y-74380935D01*
X133789056Y-74378399D01*
X130530658Y-71120001D01*
X138394532Y-71120001D01*
X138414364Y-71346686D01*
X138414366Y-71346697D01*
X138473258Y-71566488D01*
X138473261Y-71566497D01*
X138569431Y-71772732D01*
X138569432Y-71772734D01*
X138699954Y-71959141D01*
X138860858Y-72120045D01*
X138860861Y-72120047D01*
X139047266Y-72250568D01*
X139253504Y-72346739D01*
X139253509Y-72346740D01*
X139253511Y-72346741D01*
X139255952Y-72347395D01*
X139473308Y-72405635D01*
X139635230Y-72419801D01*
X139699998Y-72425468D01*
X139700000Y-72425468D01*
X139700002Y-72425468D01*
X139756673Y-72420509D01*
X139926692Y-72405635D01*
X140146496Y-72346739D01*
X140352734Y-72250568D01*
X140539139Y-72120047D01*
X140700047Y-71959139D01*
X140830568Y-71772734D01*
X140926739Y-71566496D01*
X140985635Y-71346692D01*
X141005468Y-71120000D01*
X140985635Y-70893308D01*
X140985633Y-70893303D01*
X140985180Y-70888117D01*
X140998946Y-70819617D01*
X141021028Y-70789627D01*
X141103839Y-70706818D01*
X141165162Y-70673333D01*
X141191519Y-70670500D01*
X145320658Y-70670500D01*
X145387697Y-70690185D01*
X145433452Y-70742989D01*
X145434781Y-70746003D01*
X145466063Y-70819617D01*
X145475284Y-70841314D01*
X145620205Y-71078776D01*
X145620212Y-71078786D01*
X145798161Y-71292616D01*
X145798167Y-71292621D01*
X145963918Y-71441133D01*
X146005357Y-71478263D01*
X146237373Y-71631763D01*
X146489267Y-71749846D01*
X146489274Y-71749848D01*
X146489276Y-71749849D01*
X146755657Y-71829992D01*
X146755664Y-71829993D01*
X146755669Y-71829995D01*
X147030901Y-71870500D01*
X147030906Y-71870500D01*
X147639461Y-71870500D01*
X147639463Y-71870500D01*
X147639467Y-71870499D01*
X147639481Y-71870499D01*
X147686953Y-71867024D01*
X147847455Y-71855277D01*
X148118997Y-71794788D01*
X148378838Y-71695408D01*
X148621440Y-71559253D01*
X148841632Y-71389226D01*
X149034722Y-71188951D01*
X149196593Y-70962696D01*
X149308003Y-70746003D01*
X149323790Y-70715298D01*
X149323794Y-70715288D01*
X149323797Y-70715283D01*
X149413621Y-70451986D01*
X149464152Y-70178416D01*
X149474313Y-69900404D01*
X149443886Y-69623876D01*
X149376500Y-69366122D01*
X149373521Y-69354727D01*
X149369464Y-69345181D01*
X149264716Y-69098686D01*
X149119792Y-68861219D01*
X149028112Y-68751053D01*
X148941838Y-68647383D01*
X148941832Y-68647378D01*
X148734643Y-68461737D01*
X148502629Y-68308238D01*
X148502627Y-68308237D01*
X148250733Y-68190154D01*
X148250728Y-68190152D01*
X148250723Y-68190150D01*
X147984342Y-68110007D01*
X147984328Y-68110004D01*
X147865565Y-68092526D01*
X147709099Y-68069500D01*
X147100537Y-68069500D01*
X147100518Y-68069500D01*
X146892545Y-68084723D01*
X146892535Y-68084724D01*
X146621007Y-68145210D01*
X146620997Y-68145213D01*
X146361161Y-68244592D01*
X146118561Y-68380746D01*
X146118556Y-68380749D01*
X145898369Y-68550772D01*
X145898359Y-68550781D01*
X145705281Y-68751045D01*
X145705274Y-68751053D01*
X145543412Y-68977295D01*
X145543405Y-68977306D01*
X145427781Y-69202198D01*
X145379622Y-69252818D01*
X145317503Y-69269500D01*
X140873048Y-69269500D01*
X140869303Y-69269387D01*
X140807396Y-69265642D01*
X140807389Y-69265642D01*
X140746386Y-69276821D01*
X140742685Y-69277384D01*
X140681128Y-69284859D01*
X140681121Y-69284861D01*
X140671647Y-69288454D01*
X140650049Y-69294475D01*
X140640069Y-69296304D01*
X140583519Y-69321755D01*
X140580060Y-69323188D01*
X140522071Y-69345181D01*
X140522063Y-69345185D01*
X140513721Y-69350943D01*
X140494189Y-69361960D01*
X140484946Y-69366120D01*
X140436135Y-69404360D01*
X140433120Y-69406579D01*
X140382072Y-69441816D01*
X140382065Y-69441822D01*
X140340935Y-69488248D01*
X140338368Y-69490974D01*
X140030370Y-69798972D01*
X139969047Y-69832457D01*
X139931882Y-69834819D01*
X139700002Y-69814532D01*
X139699998Y-69814532D01*
X139473313Y-69834364D01*
X139473302Y-69834366D01*
X139253511Y-69893258D01*
X139253502Y-69893261D01*
X139047267Y-69989431D01*
X139047265Y-69989432D01*
X138860858Y-70119954D01*
X138699954Y-70280858D01*
X138569432Y-70467265D01*
X138569431Y-70467267D01*
X138473261Y-70673502D01*
X138473258Y-70673511D01*
X138414366Y-70893302D01*
X138414364Y-70893313D01*
X138394532Y-71119998D01*
X138394532Y-71120001D01*
X130530658Y-71120001D01*
X130051598Y-70640941D01*
X130049064Y-70638250D01*
X130007929Y-70591817D01*
X130007928Y-70591816D01*
X130007924Y-70591812D01*
X129956896Y-70556591D01*
X129953887Y-70554377D01*
X129905060Y-70516124D01*
X129905055Y-70516120D01*
X129895813Y-70511961D01*
X129876266Y-70500936D01*
X129874657Y-70499826D01*
X129867930Y-70495182D01*
X129809941Y-70473189D01*
X129806490Y-70471759D01*
X129749930Y-70446304D01*
X129739946Y-70444474D01*
X129718343Y-70438451D01*
X129708874Y-70434860D01*
X129708870Y-70434859D01*
X129647313Y-70427384D01*
X129643612Y-70426821D01*
X129582608Y-70415642D01*
X129582603Y-70415642D01*
X129520697Y-70419387D01*
X129516952Y-70419500D01*
X116863037Y-70419500D01*
X116859293Y-70419387D01*
X116797397Y-70415643D01*
X116797390Y-70415643D01*
X116736402Y-70426819D01*
X116732701Y-70427382D01*
X116671125Y-70434860D01*
X116661642Y-70438456D01*
X116640038Y-70444478D01*
X116638535Y-70444754D01*
X116630065Y-70446306D01*
X116573522Y-70471754D01*
X116570063Y-70473187D01*
X116533867Y-70486915D01*
X116512070Y-70495182D01*
X116512068Y-70495183D01*
X116512066Y-70495184D01*
X116512061Y-70495186D01*
X116503722Y-70500942D01*
X116484190Y-70511959D01*
X116474946Y-70516120D01*
X116474944Y-70516121D01*
X116474943Y-70516122D01*
X116445244Y-70539388D01*
X116426124Y-70554368D01*
X116423109Y-70556586D01*
X116372068Y-70591818D01*
X116330942Y-70638240D01*
X116328375Y-70640966D01*
X115090966Y-71878375D01*
X115088240Y-71880942D01*
X115041818Y-71922068D01*
X115006586Y-71973109D01*
X115004368Y-71976124D01*
X114966124Y-72024939D01*
X114966119Y-72024948D01*
X114961960Y-72034188D01*
X114950942Y-72053723D01*
X114945187Y-72062061D01*
X114945183Y-72062067D01*
X114945182Y-72062070D01*
X114945180Y-72062074D01*
X114945179Y-72062077D01*
X114923189Y-72120055D01*
X114921757Y-72123513D01*
X114896305Y-72180068D01*
X114894477Y-72190042D01*
X114888453Y-72211653D01*
X114884860Y-72221127D01*
X114884859Y-72221128D01*
X114877384Y-72282685D01*
X114876821Y-72286386D01*
X114865642Y-72347390D01*
X114865642Y-72347395D01*
X114869387Y-72409302D01*
X114869500Y-72413047D01*
X114869500Y-72498326D01*
X114849815Y-72565365D01*
X114816624Y-72599901D01*
X114730863Y-72659951D01*
X114569951Y-72820862D01*
X114439432Y-73007265D01*
X114439431Y-73007267D01*
X114343261Y-73213502D01*
X114343258Y-73213511D01*
X114284366Y-73433302D01*
X114284364Y-73433313D01*
X114264532Y-73659998D01*
X114264532Y-73660001D01*
X114284364Y-73886686D01*
X114284366Y-73886697D01*
X114343258Y-74106488D01*
X114343261Y-74106497D01*
X114439431Y-74312732D01*
X114439432Y-74312734D01*
X114569954Y-74499141D01*
X114579180Y-74508367D01*
X114612665Y-74569690D01*
X114615499Y-74596048D01*
X114615499Y-80565288D01*
X114595814Y-80632327D01*
X114562624Y-80666862D01*
X114444595Y-80749508D01*
X114277505Y-80916597D01*
X114141965Y-81110169D01*
X114141964Y-81110171D01*
X114042098Y-81324335D01*
X114042094Y-81324344D01*
X113980938Y-81552586D01*
X113980936Y-81552596D01*
X113960341Y-81787999D01*
X113960341Y-81788000D01*
X113980936Y-82023403D01*
X113980938Y-82023413D01*
X114042094Y-82251655D01*
X114042096Y-82251659D01*
X114042097Y-82251663D01*
X114126352Y-82432348D01*
X114141965Y-82465830D01*
X114141967Y-82465834D01*
X114277501Y-82659395D01*
X114277506Y-82659402D01*
X114444597Y-82826493D01*
X114444603Y-82826498D01*
X114630158Y-82956425D01*
X114673783Y-83011002D01*
X114680977Y-83080500D01*
X114649454Y-83142855D01*
X114630158Y-83159575D01*
X114444597Y-83289505D01*
X114277505Y-83456597D01*
X114141965Y-83650169D01*
X114141964Y-83650171D01*
X114042098Y-83864335D01*
X114042094Y-83864344D01*
X113980938Y-84092586D01*
X113980936Y-84092596D01*
X113960341Y-84327999D01*
X113960341Y-84328000D01*
X110000500Y-84328000D01*
X110000500Y-64000001D01*
X112094645Y-64000001D01*
X112101146Y-64090903D01*
X112099290Y-64099431D01*
X112103751Y-64129740D01*
X112104254Y-64134345D01*
X112104911Y-64143531D01*
X112105069Y-64147957D01*
X112105069Y-64173615D01*
X112107764Y-64183436D01*
X112114039Y-64271160D01*
X112114040Y-64271170D01*
X112134092Y-64363348D01*
X112133398Y-64373039D01*
X112142820Y-64404356D01*
X112144033Y-64409043D01*
X112146128Y-64418675D01*
X112146883Y-64422823D01*
X112150276Y-64445882D01*
X112153804Y-64453963D01*
X112171824Y-64536797D01*
X112205921Y-64628216D01*
X112206683Y-64638880D01*
X112221345Y-64670157D01*
X112223297Y-64674804D01*
X112225297Y-64680166D01*
X112227183Y-64685222D01*
X112228461Y-64689017D01*
X112234388Y-64708720D01*
X112238302Y-64715031D01*
X112266830Y-64791519D01*
X112266833Y-64791525D01*
X112315132Y-64879978D01*
X112317605Y-64891349D01*
X112337548Y-64921493D01*
X112340256Y-64925988D01*
X112346543Y-64937501D01*
X112348266Y-64940901D01*
X112355642Y-64956636D01*
X112359493Y-64961218D01*
X112397109Y-65030107D01*
X112397110Y-65030108D01*
X112397113Y-65030113D01*
X112459456Y-65113393D01*
X112463850Y-65125173D01*
X112488925Y-65153159D01*
X112492384Y-65157379D01*
X112501846Y-65170019D01*
X112503920Y-65172965D01*
X112511469Y-65184375D01*
X112514849Y-65187389D01*
X112560029Y-65247742D01*
X112560033Y-65247746D01*
X112560038Y-65247752D01*
X112635888Y-65323602D01*
X112642349Y-65335434D01*
X112672188Y-65360267D01*
X112676371Y-65364085D01*
X112690008Y-65377722D01*
X112692344Y-65380189D01*
X112698595Y-65387165D01*
X112701122Y-65388836D01*
X112752247Y-65439961D01*
X112752265Y-65439977D01*
X112799011Y-65474970D01*
X112840747Y-65506213D01*
X112849363Y-65517722D01*
X112883438Y-65538518D01*
X112888298Y-65541810D01*
X112907274Y-65556015D01*
X112909778Y-65557992D01*
X112913062Y-65560725D01*
X112914421Y-65561365D01*
X112969887Y-65602887D01*
X113069761Y-65657422D01*
X113080546Y-65668207D01*
X113118180Y-65684199D01*
X113123639Y-65686841D01*
X113143996Y-65697957D01*
X113149284Y-65700845D01*
X113150196Y-65701372D01*
X113150317Y-65701409D01*
X113208481Y-65733169D01*
X113208485Y-65733171D01*
X113208487Y-65733172D01*
X113318173Y-65774083D01*
X113331071Y-65783738D01*
X113371459Y-65794296D01*
X113377435Y-65796186D01*
X113463199Y-65828175D01*
X113506587Y-65837613D01*
X113580788Y-65853755D01*
X113595663Y-65861877D01*
X113637893Y-65866523D01*
X113644278Y-65867565D01*
X113728840Y-65885961D01*
X113852141Y-65894779D01*
X113868791Y-65900990D01*
X113911894Y-65899414D01*
X113918565Y-65899530D01*
X114000000Y-65905355D01*
X114126580Y-65896301D01*
X114144735Y-65900250D01*
X114187702Y-65892314D01*
X114194535Y-65891441D01*
X114271160Y-65885961D01*
X114398380Y-65858286D01*
X114417700Y-65859667D01*
X114459507Y-65845405D01*
X114466353Y-65843500D01*
X114536797Y-65828176D01*
X114536797Y-65828175D01*
X114536801Y-65828175D01*
X114661877Y-65781523D01*
X114681971Y-65780086D01*
X114721625Y-65759698D01*
X114728290Y-65756753D01*
X114791513Y-65733172D01*
X114911570Y-65667615D01*
X114931991Y-65663173D01*
X114968531Y-65637031D01*
X114974894Y-65633038D01*
X115030113Y-65602887D01*
X115142264Y-65518931D01*
X115162544Y-65511366D01*
X115195105Y-65479975D01*
X115200980Y-65474976D01*
X115247742Y-65439971D01*
X115349139Y-65338573D01*
X115368779Y-65327849D01*
X115396569Y-65291860D01*
X115401807Y-65285906D01*
X115439962Y-65247751D01*
X115439971Y-65247742D01*
X115527889Y-65130297D01*
X115546375Y-65116458D01*
X115568724Y-65076637D01*
X115573158Y-65069825D01*
X115602887Y-65030113D01*
X115674782Y-64898445D01*
X115691608Y-64881619D01*
X115707973Y-64838831D01*
X115711465Y-64831264D01*
X115733172Y-64791513D01*
X115786750Y-64647862D01*
X115801425Y-64628259D01*
X115811413Y-64583424D01*
X115813838Y-64575237D01*
X115828175Y-64536801D01*
X115885961Y-64271160D01*
X115905355Y-64000000D01*
X115885961Y-63728840D01*
X115828175Y-63463199D01*
X115813840Y-63424766D01*
X115811414Y-63416577D01*
X115803229Y-63379835D01*
X115786753Y-63352145D01*
X115733172Y-63208487D01*
X115733170Y-63208484D01*
X115733169Y-63208480D01*
X115733166Y-63208475D01*
X115711472Y-63168745D01*
X115707975Y-63161171D01*
X115694485Y-63125902D01*
X115674784Y-63101556D01*
X115602890Y-62969892D01*
X115602885Y-62969884D01*
X115573164Y-62930182D01*
X115568726Y-62923363D01*
X115550202Y-62890358D01*
X115527891Y-62869705D01*
X115507608Y-62842610D01*
X115439971Y-62752258D01*
X115439966Y-62752253D01*
X115439962Y-62752248D01*
X115401808Y-62714095D01*
X115396571Y-62708141D01*
X115373406Y-62678141D01*
X115349140Y-62661426D01*
X115247752Y-62560038D01*
X115247732Y-62560020D01*
X115200994Y-62525033D01*
X115195112Y-62520029D01*
X115167822Y-62493718D01*
X115142264Y-62481069D01*
X115140493Y-62479743D01*
X115030113Y-62397113D01*
X115030108Y-62397110D01*
X115030108Y-62397109D01*
X114974903Y-62366966D01*
X114968536Y-62362970D01*
X114937739Y-62340937D01*
X114911573Y-62332384D01*
X114791525Y-62266833D01*
X114791507Y-62266825D01*
X114728321Y-62243258D01*
X114721633Y-62240304D01*
X114688032Y-62223028D01*
X114661877Y-62218476D01*
X114536796Y-62171823D01*
X114466357Y-62156501D01*
X114459512Y-62154596D01*
X114423896Y-62142445D01*
X114398380Y-62141713D01*
X114271167Y-62114040D01*
X114271161Y-62114039D01*
X114194551Y-62108559D01*
X114187709Y-62107685D01*
X114150912Y-62100888D01*
X114126582Y-62103698D01*
X114000001Y-62094645D01*
X113999999Y-62094645D01*
X113918597Y-62100467D01*
X113911905Y-62100583D01*
X113874797Y-62099227D01*
X113852141Y-62105220D01*
X113728839Y-62114039D01*
X113728832Y-62114040D01*
X113644305Y-62132428D01*
X113637903Y-62133473D01*
X113601356Y-62137494D01*
X113580790Y-62146244D01*
X113463202Y-62171824D01*
X113377454Y-62203806D01*
X113371465Y-62205701D01*
X113336334Y-62214885D01*
X113318175Y-62225915D01*
X113208493Y-62266825D01*
X113208485Y-62266828D01*
X113150316Y-62298591D01*
X113150221Y-62298611D01*
X113149249Y-62299173D01*
X113123658Y-62313146D01*
X113118191Y-62315792D01*
X113085288Y-62329774D01*
X113069762Y-62342576D01*
X112969892Y-62397109D01*
X112914423Y-62438633D01*
X112913348Y-62439033D01*
X112909748Y-62442029D01*
X112907249Y-62444002D01*
X112888308Y-62458181D01*
X112883449Y-62461472D01*
X112853510Y-62479743D01*
X112840749Y-62493785D01*
X112752259Y-62560028D01*
X112752247Y-62560038D01*
X112701121Y-62611164D01*
X112699104Y-62612265D01*
X112692342Y-62619812D01*
X112690008Y-62622278D01*
X112676383Y-62635902D01*
X112672201Y-62639719D01*
X112645849Y-62661649D01*
X112635890Y-62676396D01*
X112560032Y-62752254D01*
X112560020Y-62752268D01*
X112514849Y-62812609D01*
X112512102Y-62814664D01*
X112503905Y-62827054D01*
X112501834Y-62829995D01*
X112492391Y-62842610D01*
X112488930Y-62846834D01*
X112466679Y-62871666D01*
X112459457Y-62886604D01*
X112397114Y-62969884D01*
X112397106Y-62969897D01*
X112359492Y-63038781D01*
X112356286Y-63041986D01*
X112348256Y-63059116D01*
X112346534Y-63062514D01*
X112340261Y-63074001D01*
X112337553Y-63078498D01*
X112319773Y-63105372D01*
X112315133Y-63120021D01*
X112266828Y-63208485D01*
X112266825Y-63208493D01*
X112238301Y-63284968D01*
X112234933Y-63289466D01*
X112228459Y-63310984D01*
X112227178Y-63314789D01*
X112223302Y-63325183D01*
X112221349Y-63329831D01*
X112208214Y-63357850D01*
X112205922Y-63371782D01*
X112171824Y-63463202D01*
X112153804Y-63546036D01*
X112150604Y-63551896D01*
X112146883Y-63577179D01*
X112146126Y-63581333D01*
X112144032Y-63590957D01*
X112142821Y-63595637D01*
X112134343Y-63623817D01*
X112134093Y-63636649D01*
X112114039Y-63728840D01*
X112107764Y-63816563D01*
X112105069Y-63823788D01*
X112105069Y-63852043D01*
X112104911Y-63856455D01*
X112104578Y-63861115D01*
X112104253Y-63865656D01*
X112103751Y-63870256D01*
X112099718Y-63897654D01*
X112101146Y-63909094D01*
X112094645Y-63999997D01*
X112094645Y-64000001D01*
X110000500Y-64000001D01*
X110000500Y-60124500D01*
X110020185Y-60057461D01*
X110072989Y-60011706D01*
X110124500Y-60000500D01*
X156086000Y-60000500D01*
X156153039Y-60020185D01*
G37*
%TD.AperFunction*%
%TD*%
M02*
