%TF.GenerationSoftware,KiCad,Pcbnew,7.0.5-0*%
%TF.CreationDate,2024-01-28T18:46:13+01:00*%
%TF.ProjectId,controller,636f6e74-726f-46c6-9c65-722e6b696361,1.0.0*%
%TF.SameCoordinates,Original*%
%TF.FileFunction,Soldermask,Top*%
%TF.FilePolarity,Negative*%
%FSLAX46Y46*%
G04 Gerber Fmt 4.6, Leading zero omitted, Abs format (unit mm)*
G04 Created by KiCad (PCBNEW 7.0.5-0) date 2024-01-28 18:46:13*
%MOMM*%
%LPD*%
G01*
G04 APERTURE LIST*
%ADD10R,1.800000X1.800000*%
%ADD11C,1.800000*%
%ADD12R,2.000000X2.000000*%
%ADD13O,3.200000X2.800000*%
%ADD14R,2.800000X2.800000*%
%ADD15O,3.600000X3.000000*%
%ADD16R,3.000000X3.000000*%
%ADD17C,1.600000*%
%ADD18O,1.600000X1.600000*%
%ADD19C,3.000000*%
%ADD20O,3.000000X3.600000*%
%ADD21O,1.500000X1.700000*%
%ADD22O,1.500000X1.500000*%
%ADD23R,1.700000X1.700000*%
%ADD24O,1.700000X1.700000*%
G04 APERTURE END LIST*
D10*
%TO.C,D1*%
X133350000Y-83820000D03*
D11*
X133350000Y-81280000D03*
%TD*%
D12*
%TO.C,TP2*%
X120650000Y-92710000D03*
%TD*%
D10*
%TO.C,D3*%
X124460000Y-83820000D03*
D11*
X124460000Y-81280000D03*
%TD*%
D10*
%TO.C,D2*%
X129540000Y-99060000D03*
D11*
X127000000Y-99060000D03*
%TD*%
D13*
%TO.C,RY1*%
X147370000Y-69970000D03*
D14*
X147370000Y-77470000D03*
D15*
X169570000Y-77470000D03*
X166370000Y-69970000D03*
D16*
X172770000Y-69970000D03*
%TD*%
D17*
%TO.C,R3*%
X115570000Y-73660000D03*
D18*
X125730000Y-73660000D03*
%TD*%
D15*
%TO.C,J4*%
X191730000Y-78740000D03*
X186730000Y-78740000D03*
X191730000Y-73660000D03*
X186730000Y-73660000D03*
%TD*%
D17*
%TO.C,R2*%
X139700000Y-81280000D03*
D18*
X139700000Y-71120000D03*
%TD*%
D12*
%TO.C,TP5*%
X137160000Y-87630000D03*
%TD*%
D15*
%TO.C,CB1*%
X166370000Y-87630000D03*
X166370000Y-92710000D03*
X173990000Y-87630000D03*
X173990000Y-92710000D03*
%TD*%
D19*
%TO.C,TP1*%
X115570000Y-100330000D03*
%TD*%
D12*
%TO.C,TP4*%
X142240000Y-87630000D03*
%TD*%
%TO.C,TP3*%
X134620000Y-69850000D03*
%TD*%
D17*
%TO.C,R1*%
X129540000Y-92710000D03*
D18*
X139700000Y-92710000D03*
%TD*%
D17*
%TO.C,C3*%
X133310000Y-76200000D03*
X130810000Y-76200000D03*
%TD*%
D20*
%TO.C,J5*%
X162560000Y-111760000D03*
X162560000Y-106760000D03*
X167640000Y-111760000D03*
X167640000Y-106760000D03*
X172720000Y-111760000D03*
X172720000Y-106760000D03*
X177800000Y-111760000D03*
X177800000Y-106760000D03*
%TD*%
D17*
%TO.C,C1*%
X139700000Y-97870000D03*
X139700000Y-102870000D03*
%TD*%
D21*
%TO.C,Q1*%
X147320000Y-97790000D03*
D22*
X148590000Y-96520000D03*
X147320000Y-95250000D03*
%TD*%
D15*
%TO.C,J3*%
X191770000Y-95250000D03*
X186770000Y-95250000D03*
X191770000Y-90170000D03*
X186770000Y-90170000D03*
%TD*%
D23*
%TO.C,J2*%
X115316000Y-86868000D03*
D24*
X115316000Y-84328000D03*
X115316000Y-81788000D03*
%TD*%
M02*
