M48
; DRILL file {KiCad 7.0.5-0} date 2024 January 28, Sunday 18:46:20
; FORMAT={-:-/ absolute / inch / decimal}
; #@! TF.CreationDate,2024-01-28T18:46:20+01:00
; #@! TF.GenerationSoftware,Kicad,Pcbnew,7.0.5-0
; #@! TF.FileFunction,Plated,1,2,PTH
FMAT,2
INCH
; #@! TA.AperFunction,Plated,PTH,ComponentDrill
T1C0.0276
; #@! TA.AperFunction,Plated,PTH,ComponentDrill
T2C0.0315
; #@! TA.AperFunction,Plated,PTH,ComponentDrill
T3C0.0354
; #@! TA.AperFunction,Plated,PTH,ComponentDrill
T4C0.0394
; #@! TA.AperFunction,Plated,PTH,ComponentDrill
T5C0.0591
; #@! TA.AperFunction,Plated,PTH,ComponentDrill
T6C0.0787
%
G90
G05
T1
X5.8Y-3.75
X5.8Y-3.85
X5.85Y-3.8
T2
X4.55Y-2.9
X4.95Y-2.9
X5.1Y-3.65
X5.15Y-3.0
X5.2484Y-3.0
X5.5Y-2.8
X5.5Y-3.2
X5.5Y-3.65
X5.5Y-3.8531
X5.5Y-4.05
T3
X4.9Y-3.2
X4.9Y-3.3
X5.0Y-3.9
X5.1Y-3.9
X5.25Y-3.2
X5.25Y-3.3
T4
X4.54Y-3.22
X4.54Y-3.32
X4.54Y-3.42
T5
X5.802Y-2.7547
X5.802Y-3.05
X6.4Y-4.2031
X6.4Y-4.4
X6.55Y-2.7547
X6.55Y-3.45
X6.55Y-3.65
X6.6Y-4.2031
X6.6Y-4.4
X6.676Y-3.05
X6.8Y-4.2031
X6.8Y-4.4
X6.802Y-2.7547
X6.85Y-3.45
X6.85Y-3.65
X7.0Y-4.2031
X7.0Y-4.4
X7.3516Y-2.9
X7.3516Y-3.1
X7.3531Y-3.55
X7.3531Y-3.75
X7.5484Y-2.9
X7.5484Y-3.1
X7.55Y-3.55
X7.55Y-3.75
T6
X4.55Y-3.95
T0
M30
