%TF.GenerationSoftware,KiCad,Pcbnew,7.0.5-0*%
%TF.CreationDate,2024-01-28T18:46:13+01:00*%
%TF.ProjectId,controller,636f6e74-726f-46c6-9c65-722e6b696361,1.0.0*%
%TF.SameCoordinates,Original*%
%TF.FileFunction,Copper,L1,Top*%
%TF.FilePolarity,Positive*%
%FSLAX46Y46*%
G04 Gerber Fmt 4.6, Leading zero omitted, Abs format (unit mm)*
G04 Created by KiCad (PCBNEW 7.0.5-0) date 2024-01-28 18:46:13*
%MOMM*%
%LPD*%
G01*
G04 APERTURE LIST*
%TA.AperFunction,ComponentPad*%
%ADD10R,1.800000X1.800000*%
%TD*%
%TA.AperFunction,ComponentPad*%
%ADD11C,1.800000*%
%TD*%
%TA.AperFunction,SMDPad,CuDef*%
%ADD12R,2.000000X2.000000*%
%TD*%
%TA.AperFunction,ComponentPad*%
%ADD13O,3.200000X2.800000*%
%TD*%
%TA.AperFunction,ComponentPad*%
%ADD14R,2.800000X2.800000*%
%TD*%
%TA.AperFunction,ComponentPad*%
%ADD15O,3.600000X3.000000*%
%TD*%
%TA.AperFunction,ComponentPad*%
%ADD16R,3.000000X3.000000*%
%TD*%
%TA.AperFunction,ComponentPad*%
%ADD17C,1.600000*%
%TD*%
%TA.AperFunction,ComponentPad*%
%ADD18O,1.600000X1.600000*%
%TD*%
%TA.AperFunction,ComponentPad*%
%ADD19C,3.000000*%
%TD*%
%TA.AperFunction,ComponentPad*%
%ADD20O,3.000000X3.600000*%
%TD*%
%TA.AperFunction,ComponentPad*%
%ADD21O,1.500000X1.700000*%
%TD*%
%TA.AperFunction,ComponentPad*%
%ADD22O,1.500000X1.500000*%
%TD*%
%TA.AperFunction,ComponentPad*%
%ADD23R,1.700000X1.700000*%
%TD*%
%TA.AperFunction,ComponentPad*%
%ADD24O,1.700000X1.700000*%
%TD*%
%TA.AperFunction,Conductor*%
%ADD25C,0.400000*%
%TD*%
G04 APERTURE END LIST*
D10*
%TO.P,D1,1,K*%
%TO.N,Net-(D1-K)*%
X133350000Y-83820000D03*
D11*
%TO.P,D1,2,A*%
%TO.N,+5V*%
X133350000Y-81280000D03*
%TD*%
D12*
%TO.P,TP2,1,1*%
%TO.N,Net-(D2-A)*%
X120650000Y-92710000D03*
%TD*%
D10*
%TO.P,D3,1,K*%
%TO.N,GND*%
X124460000Y-83820000D03*
D11*
%TO.P,D3,2,A*%
%TO.N,Net-(D3-A)*%
X124460000Y-81280000D03*
%TD*%
D10*
%TO.P,D2,1,K*%
%TO.N,Net-(D2-K)*%
X129540000Y-99060000D03*
D11*
%TO.P,D2,2,A*%
%TO.N,Net-(D2-A)*%
X127000000Y-99060000D03*
%TD*%
D13*
%TO.P,RY1,1,A1*%
%TO.N,Net-(RY1-A1)*%
X147370000Y-69970000D03*
D14*
%TO.P,RY1,2,A2*%
%TO.N,Net-(Q1-C)*%
X147370000Y-77470000D03*
D15*
%TO.P,RY1,3,11*%
%TO.N,/Fuse*%
X169570000Y-77470000D03*
%TO.P,RY1,4,12*%
%TO.N,unconnected-(RY1-12-Pad4)*%
X166370000Y-69970000D03*
D16*
%TO.P,RY1,5,14*%
%TO.N,/Oven*%
X172770000Y-69970000D03*
%TD*%
D17*
%TO.P,R3,1*%
%TO.N,+5V*%
X115570000Y-73660000D03*
D18*
%TO.P,R3,2*%
%TO.N,Net-(D3-A)*%
X125730000Y-73660000D03*
%TD*%
D15*
%TO.P,J4,1,A*%
%TO.N,AC*%
X191730000Y-78740000D03*
%TO.P,J4,2,B*%
X186730000Y-78740000D03*
%TO.P,J4,3,C*%
%TO.N,/Oven*%
X191730000Y-73660000D03*
%TO.P,J4,4,D*%
X186730000Y-73660000D03*
%TD*%
D17*
%TO.P,R2,1*%
%TO.N,Net-(D1-K)*%
X139700000Y-81280000D03*
D18*
%TO.P,R2,2*%
%TO.N,Net-(RY1-A1)*%
X139700000Y-71120000D03*
%TD*%
D12*
%TO.P,TP5,1,1*%
%TO.N,Net-(RY1-A1)*%
X137160000Y-87630000D03*
%TD*%
D15*
%TO.P,CB1,1,A*%
%TO.N,/Fuse*%
X166370000Y-87630000D03*
%TO.P,CB1,2,B*%
X166370000Y-92710000D03*
%TO.P,CB1,3,C*%
%TO.N,Earth*%
X173990000Y-87630000D03*
%TO.P,CB1,4,D*%
X173990000Y-92710000D03*
%TD*%
D19*
%TO.P,TP1,1,1*%
%TO.N,GND*%
X115570000Y-100330000D03*
%TD*%
D12*
%TO.P,TP4,1,1*%
%TO.N,Net-(D1-K)*%
X142240000Y-87630000D03*
%TD*%
%TO.P,TP3,1,1*%
%TO.N,+5V*%
X134620000Y-69850000D03*
%TD*%
D17*
%TO.P,R1,1*%
%TO.N,Net-(D2-K)*%
X129540000Y-92710000D03*
D18*
%TO.P,R1,2*%
%TO.N,Net-(Q1-B)*%
X139700000Y-92710000D03*
%TD*%
D17*
%TO.P,C3,1*%
%TO.N,+5V*%
X133310000Y-76200000D03*
%TO.P,C3,2*%
%TO.N,GND*%
X130810000Y-76200000D03*
%TD*%
D20*
%TO.P,J5,1,A*%
%TO.N,/Oven*%
X162560000Y-111760000D03*
%TO.P,J5,2,B*%
X162560000Y-106760000D03*
%TO.P,J5,3,C*%
%TO.N,/Fuse*%
X167640000Y-111760000D03*
%TO.P,J5,4,D*%
X167640000Y-106760000D03*
%TO.P,J5,5,E*%
%TO.N,Earth*%
X172720000Y-111760000D03*
%TO.P,J5,6,F*%
X172720000Y-106760000D03*
%TO.P,J5,7,G*%
%TO.N,AC*%
X177800000Y-111760000D03*
%TO.P,J5,8,H*%
X177800000Y-106760000D03*
%TD*%
D17*
%TO.P,C1,1*%
%TO.N,Net-(Q1-B)*%
X139700000Y-97870000D03*
%TO.P,C1,2*%
%TO.N,GND*%
X139700000Y-102870000D03*
%TD*%
D21*
%TO.P,Q1,1,E*%
%TO.N,GND*%
X147320000Y-97790000D03*
D22*
%TO.P,Q1,2,B*%
%TO.N,Net-(Q1-B)*%
X148590000Y-96520000D03*
%TO.P,Q1,3,C*%
%TO.N,Net-(Q1-C)*%
X147320000Y-95250000D03*
%TD*%
D15*
%TO.P,J3,1,A*%
%TO.N,Earth*%
X191770000Y-95250000D03*
%TO.P,J3,2,B*%
X186770000Y-95250000D03*
%TO.P,J3,3,C*%
%TO.N,AC*%
X191770000Y-90170000D03*
%TO.P,J3,4,D*%
X186770000Y-90170000D03*
%TD*%
D23*
%TO.P,J2,1,Pin_1*%
%TO.N,GND*%
X115316000Y-86868000D03*
D24*
%TO.P,J2,2,Pin_2*%
%TO.N,Net-(D2-A)*%
X115316000Y-84328000D03*
%TO.P,J2,3,Pin_3*%
%TO.N,+5V*%
X115316000Y-81788000D03*
%TD*%
D25*
%TO.N,+5V*%
X134620000Y-74930000D02*
X134620000Y-69850000D01*
X133310000Y-76200000D02*
X134580000Y-74930000D01*
X134580000Y-74930000D02*
X134620000Y-74930000D01*
%TO.N,Net-(D1-K)*%
X139700000Y-81280000D02*
X142240000Y-83820000D01*
X142240000Y-83820000D02*
X142240000Y-87630000D01*
%TO.N,Net-(RY1-A1)*%
X137160000Y-87630000D02*
X137160000Y-73660000D01*
X137160000Y-73660000D02*
X139700000Y-71120000D01*
%TO.N,Net-(D2-A)*%
X120650000Y-92710000D02*
X127000000Y-99060000D01*
X120650000Y-87630000D02*
X120650000Y-92710000D01*
X117348000Y-84328000D02*
X120650000Y-87630000D01*
X115316000Y-84328000D02*
X117348000Y-84328000D01*
%TD*%
M02*
